G04 Layer: TopSolderMaskLayer*
G04 EasyEDA v6.5.42, 2024-03-17 11:44:53*
G04 597a10fb728243aa825b0aea125d946e,ed70181f279245e6aff80281ee7dc86a,10*
G04 Gerber Generator version 0.2*
G04 Scale: 100 percent, Rotated: No, Reflected: No *
G04 Dimensions in millimeters *
G04 leading zeros omitted , absolute positions ,4 integer and 5 decimal *
%FSLAX45Y45*%
%MOMM*%

%AMMACRO1*1,1,$1,$2,$3*1,1,$1,$4,$5*1,1,$1,0-$2,0-$3*1,1,$1,0-$4,0-$5*20,1,$1,$2,$3,$4,$5,0*20,1,$1,$4,$5,0-$2,0-$3,0*20,1,$1,0-$2,0-$3,0-$4,0-$5,0*20,1,$1,0-$4,0-$5,$2,$3,0*4,1,4,$2,$3,$4,$5,0-$2,0-$3,0-$4,0-$5,$2,$3,0*%
%ADD10MACRO1,0.1016X0.7505X-0.2782X-0.1067X-0.7932*%
%ADD11R,1.5016X1.6016*%
%ADD12O,2.3516082000000003X0.7315962*%
%ADD13MACRO1,0.1016X0.1343X-0.789X-0.7403X-0.3042*%
%ADD14MACRO1,0.1016X-0.2782X-0.7505X-0.7932X0.1067*%
%ADD15R,1.3516X1.1016*%
%ADD16MACRO1,0.1016X-0.789X-0.1343X-0.3042X0.7403*%
%ADD17MACRO1,0.1016X-0.7403X0.3042X0.1343X0.789*%
%ADD18MACRO1,0.1016X-0.5X0.625X0.5X0.625*%
%ADD19MACRO1,0.1016X-0.1343X0.789X0.7403X0.3042*%
%ADD20MACRO1,0.1016X0.3042X0.7403X0.789X-0.1343*%
%ADD21MACRO1,0.1016X0.625X0.5X0.625X-0.5*%
%ADD22MACRO1,0.1016X0.789X0.1343X0.3042X-0.7403*%
%ADD23MACRO1,0.1016X0.5X-0.625X-0.5X-0.625*%
%ADD24MACRO1,0.1016X-0.8149X-0.2337X-0.2337X0.8149*%
%ADD25MACRO1,0.1016X-0.0884X1.078X0.9611X0.4963*%
%ADD26MACRO1,0.1016X-0.8226X0.2051X0.2051X0.8225*%
%ADD27MACRO1,0.1016X0.4624X0.9778X1.0805X-0.0508*%
%ADD28MACRO1,0.1016X-0.5994X0.5994X0.5994X0.5994*%
%ADD29MACRO1,0.1016X0.9X0.6X0.9X-0.6*%
%ADD30MACRO1,0.1016X-0.2337X0.8149X0.8149X0.2337*%
%ADD31MACRO1,0.1016X1.0781X0.0885X0.4963X-0.9611*%
%ADD32MACRO1,0.1016X0.5994X-0.5994X-0.5994X-0.5994*%
%ADD33R,1.9016X1.3016*%
%ADD34MACRO1,0.1016X0.2337X-0.8149X-0.8149X-0.2337*%
%ADD35MACRO1,0.1016X-1.078X-0.0884X-0.4963X0.9611*%
%ADD36MACRO1,0.1016X-0.2051X-0.8226X-0.8226X0.2051*%
%ADD37MACRO1,0.1016X-0.9778X0.4624X0.0508X1.0805*%
%ADD38R,1.3005X1.3005*%
%ADD39MACRO1,0.1016X-0.6X0.9X0.6X0.9*%
%ADD40MACRO1,0.1016X0.2337X0.8149X0.8149X-0.2337*%
%ADD41MACRO1,0.1016X0.9611X-0.4963X-0.0884X-1.078*%
%ADD42MACRO1,0.1016X0.5994X0.5994X0.5994X-0.5994*%
%ADD43MACRO1,0.1016X0.6X-0.9X-0.6X-0.9*%
%ADD44MACRO1,0.1016X0.8149X0.2336X0.2337X-0.8149*%
%ADD45MACRO1,0.1016X0.0884X-1.078X-0.9611X-0.4963*%
%ADD46MACRO1,0.1016X0.8149X-0.2337X-0.2337X-0.8149*%
%ADD47MACRO1,0.1016X-0.4963X-0.9611X-1.078X0.0884*%
%ADD48C,0.9016*%

%LPD*%
D10*
G01*
X3154305Y5216664D03*
G01*
X2965715Y5103347D03*
D11*
G01*
X3219958Y4169918D03*
G01*
X3979925Y4169918D03*
D12*
G01*
X3246983Y4870500D03*
G01*
X3246983Y4743500D03*
G01*
X3246983Y4616500D03*
G01*
X3246983Y4489500D03*
G01*
X3953002Y4870500D03*
G01*
X3953002Y4743500D03*
G01*
X3953002Y4616500D03*
G01*
X3953002Y4489500D03*
D13*
G01*
X4266214Y5076706D03*
G01*
X4073785Y5183371D03*
D14*
G01*
X4616554Y4645597D03*
G01*
X4503237Y4834187D03*
D15*
G01*
X4739995Y4059910D03*
G01*
X4739995Y4279925D03*
D16*
G01*
X4536794Y3503716D03*
G01*
X4643459Y3696145D03*
D17*
G01*
X4103766Y3126731D03*
G01*
X4296195Y3233395D03*
D18*
G01*
X3490020Y2999973D03*
G01*
X3710035Y2999973D03*
D19*
G01*
X2933832Y3233390D03*
G01*
X3126261Y3126726D03*
D20*
G01*
X2586564Y3666164D03*
G01*
X2693229Y3473735D03*
D21*
G01*
X2490033Y4279910D03*
G01*
X2490033Y4059895D03*
D22*
G01*
X2693315Y4836205D03*
G01*
X2586650Y4643776D03*
D23*
G01*
X3710025Y5279897D03*
G01*
X3490010Y5279897D03*
D24*
G01*
X4083232Y5607857D03*
D25*
G01*
X4616752Y5312121D03*
D26*
G01*
X4732902Y5181426D03*
D27*
G01*
X5047079Y4658551D03*
D28*
G01*
X5099989Y4474992D03*
D29*
G01*
X5099989Y3864988D03*
D30*
G01*
X5067857Y3686752D03*
D31*
G01*
X4772121Y3153230D03*
D32*
G01*
X2099995Y3864990D03*
D33*
G01*
X2099995Y4474997D03*
D34*
G01*
X2162128Y4653230D03*
D35*
G01*
X2457862Y5186751D03*
D36*
G01*
X2588557Y5302902D03*
D37*
G01*
X3111432Y5617077D03*
D38*
G01*
X3294989Y5639993D03*
D39*
G01*
X3904996Y5639988D03*
D40*
G01*
X4646752Y2997861D03*
D41*
G01*
X4113229Y2702126D03*
D42*
G01*
X3904993Y2639994D03*
D43*
G01*
X3294989Y2639995D03*
D44*
G01*
X3116753Y2702128D03*
D45*
G01*
X2583234Y2997862D03*
D46*
G01*
X2457862Y3123233D03*
D47*
G01*
X2162128Y3656754D03*
D48*
G01*
X3899992Y5699988D03*
G01*
X4319981Y4409998D03*
G01*
X4350004Y4529988D03*
G01*
X4259986Y4649978D03*
G01*
X4169994Y4769993D03*
G01*
X3480003Y4769993D03*
G01*
X2939999Y4739995D03*
G01*
X2939999Y4619980D03*
G01*
X3599992Y5579998D03*
G01*
X3299993Y5189981D03*
G01*
X3569995Y4859985D03*
G01*
X2429992Y4709998D03*
G01*
X2369997Y4139996D03*
G01*
X2759989Y4469993D03*
G01*
X3480003Y4380001D03*
G01*
X4889982Y5039995D03*
G01*
X2969996Y4439996D03*
G01*
X2910001Y4289983D03*
G01*
X4889982Y4889982D03*
M02*
