G04 Layer: TopPasteMaskLayer*
G04 EasyEDA v6.5.42, 2024-03-17 11:44:53*
G04 597a10fb728243aa825b0aea125d946e,ed70181f279245e6aff80281ee7dc86a,10*
G04 Gerber Generator version 0.2*
G04 Scale: 100 percent, Rotated: No, Reflected: No *
G04 Dimensions in millimeters *
G04 leading zeros omitted , absolute positions ,4 integer and 5 decimal *
%FSLAX45Y45*%
%MOMM*%

%AMMACRO1*21,1,$1,$2,0,0,$3*%
%ADD10MACRO1,1.0001X1.2501X-148.9988*%
%ADD11MACRO1,1.0001X1.2498X-148.9988*%
%ADD12R,1.4000X1.5000*%
%ADD13O,2.2500082X0.6299962*%
%ADD14MACRO1,1X1.2498X150.9935*%
%ADD15MACRO1,1X1.25X150.9935*%
%ADD16MACRO1,1.0001X1.2498X121.0012*%
%ADD17MACRO1,0.9999X1.25X121.0087*%
%ADD18R,1.2500X1.0000*%
%ADD19MACRO1,0.9998X1.25X61.0062*%
%ADD20MACRO1,1X1.25X60.9935*%
%ADD21MACRO1,1X1.25X29.0065*%
%ADD22MACRO1,0.9998X1.25X28.9938*%
%ADD23R,1.0000X1.2500*%
%ADD24MACRO1,1.0001X1.2502X-28.9868*%
%ADD25MACRO1,1.0002X1.25X-28.9995*%
%ADD26MACRO1,1.0002X1.2498X-61.0005*%
%ADD27MACRO1,1.0002X1.25X-118.9995*%
%ADD28MACRO1,1.1988X1.199X61.0020*%
%ADD29MACRO1,1.2001X1.8X-29.0063*%
%ADD30MACRO1,1.1988X1.1987X30.9887*%
%ADD31MACRO1,1.2X1.8001X-58.9884*%
%ADD32R,1.1989X1.1989*%
%ADD33R,1.8000X1.2000*%
%ADD34MACRO1,1.1988X1.199X-28.9980*%
%ADD35MACRO1,1.1999X1.8X-118.9957*%
%ADD36MACRO1,1.1988X1.1988X151.0020*%
%ADD37MACRO1,1.1999X1.8002X61.0043*%
%ADD38MACRO1,1.1989X1.1989X120.9991*%
%ADD39MACRO1,1.2X1.8001X31.0116*%
%ADD40R,1.2000X1.8000*%
%ADD41MACRO1,1.1988X1.1988X-61.0020*%
%ADD42MACRO1,1.1999X1.8X-151.0043*%
%ADD43MACRO1,1.1988X1.1988X-118.9980*%
%ADD44MACRO1,1.1999X1.8X151.0043*%
%ADD45MACRO1,1.199X1.1988X-151.0079*%
%ADD46MACRO1,1.1999X1.8X118.9957*%

%LPD*%
D10*
G01*
X3154311Y5216664D03*
D11*
G01*
X2965716Y5103342D03*
D12*
G01*
X3219958Y4169918D03*
G01*
X3979925Y4169918D03*
D13*
G01*
X3246983Y4870500D03*
G01*
X3246983Y4743500D03*
G01*
X3246983Y4616500D03*
G01*
X3246983Y4489500D03*
G01*
X3953002Y4870500D03*
G01*
X3953002Y4743500D03*
G01*
X3953002Y4616500D03*
G01*
X3953002Y4489500D03*
D14*
G01*
X4266209Y5076710D03*
D15*
G01*
X4073791Y5183365D03*
D16*
G01*
X4616551Y4645596D03*
D17*
G01*
X4503242Y4834191D03*
D18*
G01*
X4739995Y4059910D03*
G01*
X4739995Y4279925D03*
D19*
G01*
X4536795Y3503714D03*
D20*
G01*
X4643462Y3696144D03*
D21*
G01*
X4103763Y3126727D03*
D22*
G01*
X4296194Y3233394D03*
D23*
G01*
X3490010Y2999968D03*
G01*
X3710025Y2999968D03*
D24*
G01*
X2933826Y3233381D03*
D25*
G01*
X3126257Y3126727D03*
D26*
G01*
X2586570Y3666172D03*
G01*
X2693225Y3473742D03*
D18*
G01*
X2490038Y4279900D03*
G01*
X2490038Y4059885D03*
D27*
G01*
X2693327Y4836210D03*
G01*
X2586647Y4643780D03*
D23*
G01*
X3710025Y5279897D03*
G01*
X3490010Y5279897D03*
D28*
G01*
X4083240Y5607862D03*
D29*
G01*
X4616754Y5312117D03*
D30*
G01*
X4732896Y5181434D03*
D31*
G01*
X5047068Y4658550D03*
D32*
G01*
X5099989Y4474997D03*
D33*
G01*
X5099989Y3864990D03*
D34*
G01*
X5067858Y3686746D03*
D35*
G01*
X4772126Y3153232D03*
D32*
G01*
X2099995Y3864990D03*
D33*
G01*
X2099995Y4474997D03*
D36*
G01*
X2162124Y4653229D03*
D37*
G01*
X2457869Y5186756D03*
D38*
G01*
X2588552Y5302897D03*
D39*
G01*
X3111436Y5617070D03*
D32*
G01*
X3294989Y5639993D03*
D40*
G01*
X3904995Y5639993D03*
D41*
G01*
X4646752Y2997860D03*
D42*
G01*
X4113225Y2702128D03*
D32*
G01*
X3904995Y2639999D03*
D40*
G01*
X3294989Y2639999D03*
D43*
G01*
X3116757Y2702128D03*
D44*
G01*
X2583230Y2997860D03*
D45*
G01*
X2457869Y3123234D03*
D46*
G01*
X2162124Y3656761D03*
M02*
