G04 Layer: TopLayer*
G04 EasyEDA v6.5.42, 2024-04-15 10:04:03*
G04 35ccfcd0ecce4f4f936ce021b9bc61d8,ed70181f279245e6aff80281ee7dc86a,10*
G04 Gerber Generator version 0.2*
G04 Scale: 100 percent, Rotated: No, Reflected: No *
G04 Dimensions in millimeters *
G04 leading zeros omitted , absolute positions ,4 integer and 5 decimal *
%FSLAX45Y45*%
%MOMM*%

%AMMACRO1*21,1,$1,$2,0,0,$3*%
%ADD10C,0.3000*%
%ADD11C,0.4000*%
%ADD12R,1.4000X1.5000*%
%ADD13MACRO1,1.1989X1.1989X-119.9996*%
%ADD14MACRO1,1.2X1.8X150.0003*%
%ADD15MACRO1,1.1989X1.1989X-148.0003*%
%ADD16MACRO1,1.2X1.8X121.9996*%
%ADD17R,1.1989X1.1989*%
%ADD18R,1.8000X1.2000*%
%ADD19MACRO1,1.1989X1.1989X152.0000*%
%ADD20MACRO1,1.2X1.8X61.9986*%
%ADD21MACRO1,1.1989X1.1989X121.0004*%
%ADD22MACRO1,1.2X1.8X31.0006*%
%ADD23R,1.2000X1.8000*%
%ADD24MACRO1,1.1989X1.1989X60.0004*%
%ADD25MACRO1,1.2X1.8X-29.9997*%
%ADD26MACRO1,1.1989X1.1989X29.0000*%
%ADD27MACRO1,1.2X1.8X-60.9990*%
%ADD28MACRO1,1.1989X1.1989X-29.9996*%
%ADD29MACRO1,1.2X1.8X-119.9997*%
%ADD30MACRO1,1.1989X1.1989X-61.0000*%
%ADD31MACRO1,1.2X1.8X-151.0001*%
%ADD32O,2.2500082X0.6299962*%
%ADD33MACRO1,1X1.25X-149.0003*%
%ADD34MACRO1,1X1.25X151.0001*%
%ADD35MACRO1,1X1.25X120.9997*%
%ADD36R,1.2500X1.0000*%
%ADD37MACRO1,1X1.25X61.0001*%
%ADD38MACRO1,1X1.25X28.9999*%
%ADD39R,1.0000X1.2500*%
%ADD40MACRO1,1X1.25X-28.9999*%
%ADD41MACRO1,1X1.25X-61.0001*%
%ADD42MACRO1,1X1.25X-118.9999*%
%ADD43C,0.8000*%
%ADD44C,0.0103*%

%LPD*%
G36*
X3614318Y2440533D02*
G01*
X3556304Y2441041D01*
X3498291Y2443530D01*
X3440379Y2447950D01*
X3382670Y2454351D01*
X3325215Y2462733D01*
X3268116Y2472994D01*
X3211322Y2485237D01*
X3155035Y2499410D01*
X3099257Y2515463D01*
X3044037Y2533396D01*
X2989478Y2553208D01*
X2935579Y2574899D01*
X2882493Y2598369D01*
X2830220Y2623616D01*
X2778810Y2650642D01*
X2728417Y2679395D01*
X2678938Y2709824D01*
X2630576Y2741930D01*
X2583332Y2775661D01*
X2537256Y2810967D01*
X2492400Y2847848D01*
X2448814Y2886202D01*
X2406548Y2926029D01*
X2365705Y2967228D01*
X2326233Y3009849D01*
X2288286Y3053740D01*
X2251811Y3098901D01*
X2216912Y3145282D01*
X2183587Y3192830D01*
X2151888Y3241497D01*
X2121865Y3291179D01*
X2093569Y3341878D01*
X2067001Y3393490D01*
X2042210Y3446018D01*
X2019198Y3499307D01*
X1998014Y3553358D01*
X1978660Y3608120D01*
X1961184Y3663442D01*
X1945639Y3719372D01*
X1931974Y3775811D01*
X1920189Y3832656D01*
X1910384Y3889908D01*
X1902561Y3947414D01*
X1896668Y4005173D01*
X1892706Y4063085D01*
X1890725Y4121099D01*
X1890775Y4179163D01*
X1892757Y4237228D01*
X1896668Y4295140D01*
X1902612Y4352899D01*
X1910435Y4410405D01*
X1920290Y4467606D01*
X1932025Y4524502D01*
X1945690Y4580890D01*
X1961286Y4636820D01*
X1978761Y4692192D01*
X1998116Y4746904D01*
X2019300Y4800955D01*
X2042312Y4854295D01*
X2067153Y4906772D01*
X2093722Y4958384D01*
X2122068Y5009083D01*
X2152091Y5058765D01*
X2183739Y5107381D01*
X2217115Y5154930D01*
X2252014Y5201310D01*
X2288489Y5246471D01*
X2326487Y5290362D01*
X2365959Y5332984D01*
X2406802Y5374182D01*
X2449068Y5414010D01*
X2492654Y5452364D01*
X2537510Y5489194D01*
X2583637Y5524500D01*
X2630881Y5558231D01*
X2679242Y5590336D01*
X2728671Y5620766D01*
X2779115Y5649518D01*
X2830525Y5676493D01*
X2882798Y5701741D01*
X2935935Y5725210D01*
X2989783Y5746851D01*
X3044342Y5766663D01*
X3099562Y5784596D01*
X3155391Y5800648D01*
X3211677Y5814771D01*
X3268421Y5827014D01*
X3325571Y5837275D01*
X3383026Y5845657D01*
X3440734Y5852007D01*
X3498596Y5856478D01*
X3556609Y5858916D01*
X3614674Y5859424D01*
X3672738Y5857900D01*
X3730650Y5854446D01*
X3788460Y5849061D01*
X3846068Y5841644D01*
X3903370Y5832348D01*
X3960317Y5821070D01*
X4016857Y5807862D01*
X4072890Y5792774D01*
X4128414Y5775756D01*
X4183329Y5756859D01*
X4237532Y5736132D01*
X4291025Y5713577D01*
X4343755Y5689193D01*
X4395571Y5663031D01*
X4446473Y5635142D01*
X4496460Y5605576D01*
X4545330Y5574284D01*
X4593183Y5541365D01*
X4639818Y5506821D01*
X4685334Y5470753D01*
X4729530Y5433110D01*
X4772456Y5394045D01*
X4814011Y5353507D01*
X4854194Y5311597D01*
X4892903Y5268315D01*
X4930140Y5223764D01*
X4965852Y5177993D01*
X4999939Y5131003D01*
X5032451Y5082895D01*
X5063337Y5033721D01*
X5092496Y4983530D01*
X5119928Y4932375D01*
X5145633Y4880305D01*
X5169509Y4827422D01*
X5191607Y4773726D01*
X5211876Y4719320D01*
X5230266Y4664252D01*
X5246827Y4608576D01*
X5261457Y4552391D01*
X5274157Y4495749D01*
X5284927Y4438700D01*
X5293766Y4381347D01*
X5300624Y4323689D01*
X5305552Y4265828D01*
X5308498Y4207865D01*
X5309463Y4149801D01*
X5308498Y4091736D01*
X5305501Y4033774D01*
X5300573Y3975912D01*
X5293715Y3918305D01*
X5284876Y3860901D01*
X5274056Y3803853D01*
X5261356Y3747211D01*
X5246725Y3691026D01*
X5230164Y3635400D01*
X5211775Y3580333D01*
X5191506Y3525926D01*
X5169408Y3472230D01*
X5145481Y3419348D01*
X5119776Y3367278D01*
X5092293Y3316122D01*
X5063134Y3265932D01*
X5032298Y3216757D01*
X4999786Y3168650D01*
X4965649Y3121710D01*
X4929936Y3075889D01*
X4892700Y3031388D01*
X4853940Y2988106D01*
X4813808Y2946196D01*
X4772202Y2905709D01*
X4729276Y2866593D01*
X4685030Y2829001D01*
X4639564Y2792933D01*
X4592878Y2758389D01*
X4545076Y2725470D01*
X4496155Y2694228D01*
X4446168Y2664612D01*
X4395266Y2636723D01*
X4343400Y2610612D01*
X4290720Y2586228D01*
X4237228Y2563723D01*
X4182973Y2542997D01*
X4128109Y2524099D01*
X4072585Y2507132D01*
X4016501Y2491994D01*
X3959961Y2478836D01*
X3903014Y2467559D01*
X3845712Y2458262D01*
X3788156Y2450896D01*
X3730345Y2445461D01*
X3672382Y2442006D01*
G37*

%LPC*%
G36*
X3845458Y2519578D02*
G01*
X3964432Y2519578D01*
X3970883Y2520188D01*
X3976624Y2521915D01*
X3981856Y2524760D01*
X3986479Y2528519D01*
X3990289Y2533142D01*
X3993083Y2538425D01*
X3994810Y2544114D01*
X3995470Y2550566D01*
X3995470Y2579420D01*
X3996232Y2583281D01*
X3998417Y2586583D01*
X4001719Y2588818D01*
X4005630Y2589580D01*
X4065524Y2589580D01*
X4071162Y2589885D01*
X4075125Y2589326D01*
X4078528Y2587294D01*
X4079900Y2586075D01*
X4085031Y2582976D01*
X4090670Y2580995D01*
X4096562Y2580132D01*
X4102557Y2580436D01*
X4108297Y2581859D01*
X4114190Y2584653D01*
X4216095Y2645867D01*
X4221276Y2649728D01*
X4225290Y2654147D01*
X4228338Y2659278D01*
X4230370Y2664917D01*
X4231233Y2670810D01*
X4230928Y2676804D01*
X4229455Y2682595D01*
X4226712Y2688437D01*
X4165447Y2790342D01*
X4161586Y2795524D01*
X4157167Y2799537D01*
X4152036Y2802585D01*
X4146397Y2804617D01*
X4140504Y2805480D01*
X4134561Y2805176D01*
X4128770Y2803702D01*
X4122928Y2800959D01*
X4021023Y2739694D01*
X4015790Y2735834D01*
X4012184Y2731820D01*
X4008729Y2729331D01*
X4004564Y2728468D01*
X4000398Y2729433D01*
X3996994Y2731973D01*
X3994912Y2735681D01*
X3993083Y2741726D01*
X3990289Y2747010D01*
X3986479Y2751632D01*
X3981856Y2755392D01*
X3976624Y2758236D01*
X3970883Y2759964D01*
X3964432Y2760573D01*
X3845458Y2760573D01*
X3839006Y2759964D01*
X3833266Y2758236D01*
X3828034Y2755392D01*
X3823411Y2751632D01*
X3819601Y2747010D01*
X3816807Y2741726D01*
X3815079Y2736037D01*
X3814419Y2729585D01*
X3814419Y2550566D01*
X3815079Y2544114D01*
X3816807Y2538425D01*
X3819601Y2533142D01*
X3823411Y2528519D01*
X3828034Y2524760D01*
X3833266Y2521915D01*
X3839006Y2520188D01*
G37*
G36*
X3235502Y2549601D02*
G01*
X3354374Y2549601D01*
X3360826Y2550261D01*
X3366566Y2551988D01*
X3371799Y2554782D01*
X3376422Y2558592D01*
X3380232Y2563215D01*
X3383026Y2568498D01*
X3384753Y2574188D01*
X3385413Y2580640D01*
X3385413Y2699512D01*
X3384753Y2705963D01*
X3383026Y2711653D01*
X3380232Y2716936D01*
X3376422Y2721559D01*
X3371799Y2725369D01*
X3366566Y2728163D01*
X3360826Y2729890D01*
X3354374Y2730550D01*
X3251301Y2730550D01*
X3247339Y2731312D01*
X3244037Y2733598D01*
X3241852Y2737053D01*
X3241192Y2741015D01*
X3241395Y2747314D01*
X3240379Y2753207D01*
X3238296Y2758795D01*
X3235147Y2763875D01*
X3231083Y2768244D01*
X3225800Y2772003D01*
X3122726Y2831490D01*
X3116834Y2834182D01*
X3111042Y2835503D01*
X3105048Y2835706D01*
X3099155Y2834741D01*
X3093567Y2832658D01*
X3088538Y2829509D01*
X3084169Y2825394D01*
X3080410Y2820162D01*
X2990900Y2665120D01*
X2988208Y2659227D01*
X2986887Y2653436D01*
X2986684Y2647442D01*
X2987649Y2641549D01*
X2989732Y2635961D01*
X2992882Y2630881D01*
X2996996Y2626563D01*
X3002229Y2622753D01*
X3105302Y2563266D01*
X3111195Y2560574D01*
X3116986Y2559253D01*
X3122980Y2559050D01*
X3128873Y2560015D01*
X3134461Y2562098D01*
X3139541Y2565298D01*
X3143859Y2569362D01*
X3147669Y2574594D01*
X3153816Y2585262D01*
X3156458Y2588260D01*
X3160115Y2590038D01*
X3164128Y2590190D01*
X3167024Y2589784D01*
X3171545Y2589580D01*
X3194405Y2589580D01*
X3198063Y2588869D01*
X3201212Y2586939D01*
X3203498Y2583992D01*
X3204514Y2580386D01*
X3205124Y2574188D01*
X3206851Y2568498D01*
X3209696Y2563215D01*
X3213455Y2558592D01*
X3218078Y2554782D01*
X3223361Y2551988D01*
X3229051Y2550261D01*
G37*
G36*
X3390341Y2774391D02*
G01*
X3631641Y2774442D01*
X3640328Y2775661D01*
X3648252Y2778302D01*
X3655618Y2782417D01*
X3662426Y2788056D01*
X3743299Y2868980D01*
X3748582Y2875991D01*
X3752342Y2883509D01*
X3754628Y2891688D01*
X3755440Y2898495D01*
X3756406Y2901797D01*
X3758387Y2904591D01*
X3761181Y2906522D01*
X3765956Y2907588D01*
X3771696Y2909366D01*
X3776929Y2912160D01*
X3781551Y2915970D01*
X3785362Y2920542D01*
X3788156Y2925826D01*
X3789883Y2931515D01*
X3790543Y2937967D01*
X3790543Y2944317D01*
X3791305Y2948178D01*
X3793490Y2951480D01*
X3796792Y2953715D01*
X3800703Y2954477D01*
X3978757Y2954528D01*
X3987444Y2955696D01*
X3995369Y2958388D01*
X4002684Y2962452D01*
X4009542Y2968142D01*
X4061917Y3020568D01*
X4064762Y3022549D01*
X4068064Y3023463D01*
X4071467Y3023260D01*
X4076395Y3020771D01*
X4081932Y3018536D01*
X4087825Y3017469D01*
X4093768Y3017570D01*
X4099610Y3018840D01*
X4105554Y3021380D01*
X4124045Y3031642D01*
X4128211Y3032861D01*
X4132529Y3032252D01*
X4136186Y3029915D01*
X4169511Y2996590D01*
X4176471Y2991307D01*
X4183989Y2987548D01*
X4192066Y2985262D01*
X4200855Y2984449D01*
X4381703Y2984500D01*
X4390390Y2985719D01*
X4398314Y2988360D01*
X4405680Y2992475D01*
X4412488Y2998114D01*
X4563465Y3149142D01*
X4568748Y3156153D01*
X4572508Y3163671D01*
X4574794Y3171748D01*
X4575606Y3180537D01*
X4575606Y3393490D01*
X4576165Y3396843D01*
X4577791Y3399790D01*
X4580280Y3402076D01*
X4586173Y3405886D01*
X4590440Y3410000D01*
X4594148Y3415334D01*
X4642154Y3501948D01*
X4644694Y3507892D01*
X4645964Y3513734D01*
X4646066Y3519678D01*
X4644948Y3525570D01*
X4642764Y3531108D01*
X4639513Y3536137D01*
X4635347Y3540404D01*
X4630064Y3544062D01*
X4521606Y3604209D01*
X4515662Y3606749D01*
X4509820Y3608019D01*
X4499711Y3607866D01*
X4496612Y3608882D01*
X4493971Y3610762D01*
X4488383Y3616299D01*
X4486198Y3619601D01*
X4485436Y3623513D01*
X4485436Y4056938D01*
X4486198Y4060850D01*
X4488383Y4064152D01*
X4637532Y4213250D01*
X4641037Y4215536D01*
X4645202Y4216196D01*
X4649266Y4215130D01*
X4652568Y4212488D01*
X4655921Y4208373D01*
X4660544Y4204563D01*
X4665827Y4201769D01*
X4671517Y4200042D01*
X4677968Y4199382D01*
X4801971Y4199382D01*
X4808423Y4200042D01*
X4814112Y4201769D01*
X4819396Y4204563D01*
X4824018Y4208373D01*
X4827778Y4212996D01*
X4830622Y4218279D01*
X4832350Y4223969D01*
X4832959Y4230420D01*
X4832959Y4329430D01*
X4832350Y4335830D01*
X4830622Y4341571D01*
X4827778Y4346854D01*
X4824018Y4351426D01*
X4819396Y4355236D01*
X4814112Y4358030D01*
X4808423Y4359808D01*
X4801971Y4360418D01*
X4677968Y4360418D01*
X4671517Y4359808D01*
X4665827Y4358030D01*
X4660544Y4355236D01*
X4655921Y4351426D01*
X4652162Y4346854D01*
X4649317Y4341571D01*
X4647590Y4335830D01*
X4647488Y4334510D01*
X4646066Y4330242D01*
X4642967Y4326991D01*
X4638751Y4325416D01*
X4629404Y4324146D01*
X4621479Y4321505D01*
X4614113Y4317390D01*
X4607306Y4311751D01*
X4417110Y4121556D01*
X4413808Y4119372D01*
X4409948Y4118610D01*
X4406036Y4119372D01*
X4402785Y4121556D01*
X4177182Y4347159D01*
X4174998Y4350410D01*
X4174236Y4354322D01*
X4174998Y4358233D01*
X4177182Y4361484D01*
X4180484Y4363720D01*
X4184396Y4364482D01*
X4261764Y4364482D01*
X4266031Y4363567D01*
X4278579Y4353001D01*
X4287977Y4347210D01*
X4298188Y4342993D01*
X4308957Y4340402D01*
X4319981Y4339539D01*
X4331004Y4340402D01*
X4341774Y4342993D01*
X4351985Y4347210D01*
X4361434Y4353001D01*
X4369816Y4360164D01*
X4377029Y4368596D01*
X4382770Y4377994D01*
X4387037Y4388205D01*
X4389577Y4398975D01*
X4390491Y4409998D01*
X4389577Y4421022D01*
X4387037Y4431792D01*
X4382770Y4442002D01*
X4376521Y4452213D01*
X4375048Y4456328D01*
X4375505Y4460646D01*
X4377690Y4464405D01*
X4391406Y4472990D01*
X4399838Y4480153D01*
X4407001Y4488586D01*
X4412792Y4497984D01*
X4417009Y4508246D01*
X4419600Y4518964D01*
X4420463Y4529988D01*
X4419600Y4541012D01*
X4417009Y4551781D01*
X4412792Y4561992D01*
X4407001Y4571441D01*
X4399838Y4579823D01*
X4391406Y4587036D01*
X4382008Y4592777D01*
X4371746Y4597044D01*
X4361027Y4599584D01*
X4350004Y4600498D01*
X4338980Y4599584D01*
X4330649Y4597603D01*
X4326686Y4597450D01*
X4322927Y4598822D01*
X4320032Y4601514D01*
X4318355Y4605121D01*
X4318203Y4609084D01*
X4319574Y4612792D01*
X4322775Y4618024D01*
X4327042Y4628235D01*
X4329582Y4638954D01*
X4330446Y4649978D01*
X4329582Y4661001D01*
X4326940Y4672076D01*
X4326890Y4676394D01*
X4328617Y4680407D01*
X4331868Y4683302D01*
X4336034Y4684572D01*
X4340352Y4683963D01*
X4344009Y4681626D01*
X4413453Y4612233D01*
X4420463Y4606950D01*
X4427982Y4603191D01*
X4436008Y4600905D01*
X4444847Y4600092D01*
X4529632Y4600092D01*
X4533036Y4599482D01*
X4536084Y4597806D01*
X4538319Y4595164D01*
X4562297Y4555286D01*
X4566158Y4550054D01*
X4570577Y4546041D01*
X4575708Y4542993D01*
X4581347Y4541012D01*
X4587240Y4540148D01*
X4593234Y4540402D01*
X4599025Y4541875D01*
X4604867Y4544669D01*
X4670552Y4584141D01*
X4674768Y4585512D01*
X4679188Y4585004D01*
X4682947Y4582617D01*
X4901488Y4364126D01*
X4903673Y4360824D01*
X4904435Y4356912D01*
X4904435Y4163009D01*
X4903673Y4159097D01*
X4901488Y4155795D01*
X4854092Y4108399D01*
X4850790Y4106214D01*
X4846878Y4105452D01*
X4842560Y4105452D01*
X4838903Y4106113D01*
X4835753Y4108094D01*
X4833518Y4111040D01*
X4832350Y4115866D01*
X4830622Y4121556D01*
X4827778Y4126839D01*
X4824018Y4131462D01*
X4819396Y4135221D01*
X4814112Y4138066D01*
X4808423Y4139793D01*
X4801971Y4140403D01*
X4677968Y4140403D01*
X4671517Y4139793D01*
X4665827Y4138066D01*
X4660544Y4135221D01*
X4655921Y4131462D01*
X4652162Y4126839D01*
X4649317Y4121556D01*
X4647590Y4115866D01*
X4646980Y4109415D01*
X4646980Y4010406D01*
X4647590Y4003954D01*
X4649317Y3998264D01*
X4652162Y3992981D01*
X4655921Y3988358D01*
X4660544Y3984599D01*
X4665827Y3981754D01*
X4671517Y3980027D01*
X4677968Y3979418D01*
X4684318Y3979418D01*
X4688230Y3978656D01*
X4691481Y3976420D01*
X4693716Y3973118D01*
X4694478Y3969258D01*
X4694478Y3815740D01*
X4693716Y3811828D01*
X4691481Y3808526D01*
X4666691Y3783736D01*
X4663033Y3781399D01*
X4658715Y3780790D01*
X4654550Y3782009D01*
X4628235Y3796639D01*
X4622292Y3799179D01*
X4616450Y3800449D01*
X4610506Y3800551D01*
X4604613Y3799433D01*
X4599076Y3797249D01*
X4594047Y3793998D01*
X4589780Y3789832D01*
X4586122Y3784549D01*
X4538116Y3697935D01*
X4535525Y3691991D01*
X4534255Y3686149D01*
X4534204Y3680206D01*
X4535271Y3674313D01*
X4537456Y3668776D01*
X4540707Y3663746D01*
X4544872Y3659479D01*
X4550206Y3655771D01*
X4658664Y3595674D01*
X4664608Y3593084D01*
X4670399Y3591864D01*
X4676394Y3591763D01*
X4682286Y3592829D01*
X4687824Y3595014D01*
X4692853Y3598265D01*
X4697120Y3602431D01*
X4700778Y3607765D01*
X4748784Y3694328D01*
X4751374Y3700272D01*
X4752594Y3706114D01*
X4752695Y3712108D01*
X4751628Y3717950D01*
X4749444Y3723538D01*
X4746955Y3728415D01*
X4746752Y3731869D01*
X4747666Y3735171D01*
X4749647Y3737965D01*
X4773371Y3761740D01*
X4778654Y3768750D01*
X4782362Y3776268D01*
X4784699Y3784295D01*
X4785512Y3793134D01*
X4785512Y3969258D01*
X4786274Y3973118D01*
X4788458Y3976420D01*
X4791760Y3978656D01*
X4795672Y3979418D01*
X4801971Y3979418D01*
X4808423Y3980027D01*
X4814112Y3981754D01*
X4819396Y3984599D01*
X4824018Y3988358D01*
X4827778Y3992981D01*
X4830622Y3998264D01*
X4832350Y4003954D01*
X4833518Y4008831D01*
X4835753Y4011777D01*
X4838954Y4013758D01*
X4842611Y4014419D01*
X4871669Y4014470D01*
X4880356Y4015689D01*
X4888280Y4018330D01*
X4895646Y4022445D01*
X4902454Y4028084D01*
X4983327Y4109008D01*
X4988610Y4116019D01*
X4992370Y4123537D01*
X4994656Y4131614D01*
X4995468Y4140403D01*
X4995468Y4374692D01*
X4996332Y4378807D01*
X4998821Y4382211D01*
X5002428Y4384344D01*
X5006594Y4384802D01*
X5010556Y4384395D01*
X5189575Y4384395D01*
X5196027Y4385056D01*
X5201716Y4386783D01*
X5207000Y4389577D01*
X5211622Y4393387D01*
X5215382Y4398010D01*
X5218226Y4403242D01*
X5219954Y4408982D01*
X5220563Y4415434D01*
X5220563Y4534408D01*
X5219954Y4540859D01*
X5218226Y4546600D01*
X5215382Y4551832D01*
X5211622Y4556455D01*
X5207000Y4560265D01*
X5201716Y4563059D01*
X5196027Y4564786D01*
X5189575Y4565446D01*
X5160721Y4565446D01*
X5156860Y4566208D01*
X5153558Y4568393D01*
X5151323Y4571695D01*
X5150561Y4575606D01*
X5150561Y4611573D01*
X5151018Y4614621D01*
X5152390Y4617415D01*
X5155082Y4620056D01*
X5159044Y4624578D01*
X5161991Y4629759D01*
X5163921Y4635398D01*
X5164683Y4641342D01*
X5164277Y4647285D01*
X5162702Y4653026D01*
X5159857Y4658868D01*
X5096814Y4759655D01*
X5092903Y4764786D01*
X5088382Y4768697D01*
X5083200Y4771694D01*
X5077561Y4773625D01*
X5071618Y4774387D01*
X5065674Y4773980D01*
X5059934Y4772406D01*
X5054092Y4769510D01*
X4953304Y4706518D01*
X4948174Y4702556D01*
X4944211Y4698085D01*
X4941265Y4692904D01*
X4939334Y4687265D01*
X4938572Y4681321D01*
X4938979Y4675378D01*
X4940554Y4669586D01*
X4943449Y4663795D01*
X4998618Y4575454D01*
X5000040Y4571593D01*
X4999837Y4567478D01*
X4997958Y4563770D01*
X4994808Y4561128D01*
X4993132Y4560265D01*
X4988509Y4556455D01*
X4984750Y4551832D01*
X4981905Y4546600D01*
X4980178Y4540859D01*
X4979568Y4534408D01*
X4979568Y4439259D01*
X4978806Y4435348D01*
X4976571Y4432096D01*
X4973269Y4429861D01*
X4969408Y4429099D01*
X4965496Y4429861D01*
X4962194Y4432096D01*
X4715205Y4679035D01*
X4708144Y4684369D01*
X4701540Y4687722D01*
X4699203Y4689348D01*
X4697425Y4691532D01*
X4670755Y4735931D01*
X4666894Y4741113D01*
X4662474Y4745126D01*
X4657344Y4748174D01*
X4651756Y4750206D01*
X4645812Y4751070D01*
X4639868Y4750765D01*
X4634077Y4749292D01*
X4628235Y4746548D01*
X4538370Y4692548D01*
X4535881Y4691481D01*
X4533138Y4691126D01*
X4467453Y4691126D01*
X4463542Y4691888D01*
X4460240Y4694072D01*
X4128465Y5025847D01*
X4126280Y5029149D01*
X4125518Y5033060D01*
X4125518Y5107940D01*
X4125823Y5110530D01*
X4126788Y5112867D01*
X4174236Y5198567D01*
X4176826Y5204510D01*
X4178096Y5210352D01*
X4178147Y5216296D01*
X4177080Y5222189D01*
X4174896Y5227726D01*
X4171645Y5232755D01*
X4167479Y5237022D01*
X4162196Y5240731D01*
X4075582Y5288686D01*
X4069638Y5291277D01*
X4063796Y5292547D01*
X4057853Y5292598D01*
X4051960Y5291531D01*
X4046423Y5289346D01*
X4041394Y5286095D01*
X4037126Y5281930D01*
X4033418Y5276596D01*
X3973322Y5168188D01*
X3970731Y5162245D01*
X3968648Y5151729D01*
X3966464Y5148478D01*
X3963162Y5146344D01*
X3959301Y5145582D01*
X3372865Y5145582D01*
X3368954Y5146344D01*
X3365652Y5148529D01*
X3363468Y5151831D01*
X3362706Y5155742D01*
X3363468Y5159603D01*
X3367024Y5168239D01*
X3369614Y5179009D01*
X3370478Y5190032D01*
X3369614Y5201056D01*
X3367024Y5211775D01*
X3363468Y5220360D01*
X3362706Y5224221D01*
X3363468Y5228132D01*
X3365703Y5231434D01*
X3369005Y5233619D01*
X3372865Y5234381D01*
X3399332Y5234381D01*
X3403244Y5233619D01*
X3406546Y5231434D01*
X3408730Y5228132D01*
X3409492Y5224221D01*
X3409492Y5217871D01*
X3410153Y5211419D01*
X3411880Y5205730D01*
X3414674Y5200446D01*
X3418484Y5195874D01*
X3423107Y5192064D01*
X3428339Y5189270D01*
X3434079Y5187492D01*
X3440531Y5186883D01*
X3539540Y5186883D01*
X3545941Y5187492D01*
X3551682Y5189270D01*
X3556965Y5192064D01*
X3561537Y5195874D01*
X3565347Y5200446D01*
X3568141Y5205730D01*
X3569868Y5211419D01*
X3570528Y5217871D01*
X3570528Y5341874D01*
X3569868Y5348325D01*
X3568141Y5354066D01*
X3565347Y5359298D01*
X3561537Y5363921D01*
X3556965Y5367731D01*
X3551682Y5370525D01*
X3545941Y5372252D01*
X3539540Y5372912D01*
X3440531Y5372912D01*
X3434079Y5372252D01*
X3428339Y5370525D01*
X3423107Y5367731D01*
X3418484Y5363921D01*
X3414674Y5359298D01*
X3411880Y5354066D01*
X3410153Y5348325D01*
X3409492Y5341874D01*
X3409492Y5335574D01*
X3408730Y5331663D01*
X3406546Y5328361D01*
X3403244Y5326176D01*
X3399332Y5325414D01*
X3215792Y5325364D01*
X3207004Y5324144D01*
X3201212Y5322366D01*
X3194405Y5318963D01*
X3190494Y5317896D01*
X3186531Y5318455D01*
X3177946Y5323535D01*
X3172358Y5325516D01*
X3166414Y5326380D01*
X3160471Y5326126D01*
X3154680Y5324652D01*
X3148838Y5321858D01*
X3063951Y5270855D01*
X3058769Y5266994D01*
X3054756Y5262575D01*
X3051708Y5257444D01*
X3049676Y5251856D01*
X3048812Y5245912D01*
X3049117Y5239969D01*
X3050590Y5234178D01*
X3053384Y5228336D01*
X3103168Y5145481D01*
X3104235Y5142941D01*
X3104591Y5140248D01*
X3104591Y5123129D01*
X3103829Y5119217D01*
X3101644Y5115915D01*
X3079851Y5094173D01*
X3076854Y5092090D01*
X3073298Y5091226D01*
X3069640Y5091684D01*
X3066389Y5093411D01*
X3064002Y5096154D01*
X3002788Y5197957D01*
X2998927Y5203139D01*
X2994507Y5207152D01*
X2990494Y5209540D01*
X2987852Y5211826D01*
X2986176Y5214823D01*
X2985566Y5218277D01*
X2985566Y5226913D01*
X2986328Y5230774D01*
X2988513Y5234076D01*
X3135782Y5381498D01*
X3139084Y5383733D01*
X3142945Y5384495D01*
X3361537Y5384546D01*
X3370224Y5385714D01*
X3378200Y5388406D01*
X3385515Y5392470D01*
X3392373Y5398109D01*
X3435908Y5441492D01*
X3439210Y5443677D01*
X3443122Y5444439D01*
X3606850Y5444439D01*
X3610762Y5443677D01*
X3614064Y5441492D01*
X3661460Y5394096D01*
X3663645Y5390794D01*
X3664407Y5386882D01*
X3664407Y5382514D01*
X3663746Y5378856D01*
X3661765Y5375656D01*
X3658819Y5373420D01*
X3654094Y5372252D01*
X3648354Y5370525D01*
X3643071Y5367731D01*
X3638499Y5363921D01*
X3634689Y5359298D01*
X3631895Y5354066D01*
X3630168Y5348325D01*
X3629507Y5341874D01*
X3629507Y5217871D01*
X3630168Y5211419D01*
X3631895Y5205730D01*
X3634689Y5200446D01*
X3638499Y5195874D01*
X3643071Y5192064D01*
X3648354Y5189270D01*
X3654094Y5187492D01*
X3660495Y5186883D01*
X3759504Y5186883D01*
X3765956Y5187492D01*
X3771696Y5189270D01*
X3776929Y5192064D01*
X3781551Y5195874D01*
X3785362Y5200446D01*
X3788156Y5205730D01*
X3789883Y5211419D01*
X3790543Y5217871D01*
X3790543Y5224221D01*
X3791305Y5228132D01*
X3793490Y5231434D01*
X3796792Y5233619D01*
X3800703Y5234381D01*
X3841699Y5234432D01*
X3850386Y5235651D01*
X3858310Y5238292D01*
X3865676Y5242407D01*
X3872484Y5248046D01*
X3975963Y5351576D01*
X3979265Y5353761D01*
X3983177Y5354523D01*
X4146854Y5354523D01*
X4150766Y5353761D01*
X4154068Y5351576D01*
X4271568Y5234076D01*
X4273753Y5230774D01*
X4274515Y5226862D01*
X4274515Y5194503D01*
X4273550Y5190134D01*
X4270756Y5186629D01*
X4266742Y5184648D01*
X4262221Y5184597D01*
X4256227Y5185867D01*
X4250232Y5185968D01*
X4244390Y5184902D01*
X4238802Y5182666D01*
X4233824Y5179466D01*
X4229506Y5175300D01*
X4225848Y5169966D01*
X4165752Y5061508D01*
X4163161Y5055565D01*
X4161891Y5049723D01*
X4161840Y5043779D01*
X4162907Y5037886D01*
X4165092Y5032349D01*
X4168343Y5027320D01*
X4172508Y5023053D01*
X4177792Y5019344D01*
X4264406Y4971338D01*
X4270349Y4968798D01*
X4276191Y4967528D01*
X4282135Y4967427D01*
X4288028Y4968494D01*
X4293565Y4970729D01*
X4298492Y4973218D01*
X4301947Y4973421D01*
X4305249Y4972507D01*
X4308043Y4970526D01*
X4400296Y4878273D01*
X4402429Y4875123D01*
X4403242Y4871364D01*
X4402632Y4867554D01*
X4400600Y4864303D01*
X4399432Y4862982D01*
X4396333Y4857851D01*
X4394352Y4852212D01*
X4393488Y4846320D01*
X4393793Y4840325D01*
X4395216Y4834534D01*
X4398010Y4828692D01*
X4449013Y4743856D01*
X4452874Y4738624D01*
X4457293Y4734661D01*
X4462424Y4731562D01*
X4468063Y4729581D01*
X4473956Y4728718D01*
X4479899Y4729022D01*
X4485690Y4730445D01*
X4491532Y4733239D01*
X4597857Y4797094D01*
X4603038Y4800955D01*
X4607052Y4805375D01*
X4610100Y4810506D01*
X4612132Y4816144D01*
X4612995Y4822037D01*
X4612690Y4828032D01*
X4611217Y4833823D01*
X4608474Y4839665D01*
X4557471Y4924501D01*
X4553610Y4929682D01*
X4549190Y4933696D01*
X4544060Y4936794D01*
X4538421Y4938776D01*
X4532528Y4939639D01*
X4526534Y4939334D01*
X4520742Y4937912D01*
X4514900Y4935118D01*
X4494987Y4923180D01*
X4490770Y4921758D01*
X4486351Y4922316D01*
X4482592Y4924704D01*
X4353814Y5053482D01*
X4351477Y5057140D01*
X4350867Y5061458D01*
X4352086Y5065572D01*
X4366666Y5091887D01*
X4369257Y5097830D01*
X4370476Y5103672D01*
X4370578Y5109667D01*
X4369511Y5115509D01*
X4365701Y5124450D01*
X4365396Y5127650D01*
X4365548Y5130800D01*
X4365498Y5251653D01*
X4364278Y5260340D01*
X4361637Y5268264D01*
X4357522Y5275630D01*
X4351883Y5282438D01*
X4200804Y5433415D01*
X4193844Y5438698D01*
X4186326Y5442458D01*
X4178249Y5444744D01*
X4169460Y5445556D01*
X3958386Y5445506D01*
X3949700Y5444286D01*
X3941775Y5441645D01*
X3934409Y5437530D01*
X3927601Y5431891D01*
X3824122Y5328361D01*
X3820820Y5326176D01*
X3816908Y5325414D01*
X3800703Y5325414D01*
X3796792Y5326176D01*
X3793490Y5328361D01*
X3791305Y5331663D01*
X3790543Y5335574D01*
X3790543Y5341874D01*
X3789883Y5348325D01*
X3788156Y5354066D01*
X3785362Y5359298D01*
X3781551Y5363921D01*
X3776929Y5367731D01*
X3771696Y5370525D01*
X3765956Y5372252D01*
X3761028Y5373420D01*
X3758082Y5375706D01*
X3756101Y5378856D01*
X3755440Y5382514D01*
X3755390Y5411673D01*
X3754170Y5420360D01*
X3751529Y5428284D01*
X3747414Y5435650D01*
X3741775Y5442458D01*
X3662375Y5521858D01*
X3658717Y5524957D01*
X3656482Y5527700D01*
X3655263Y5531053D01*
X3655364Y5534660D01*
X3656634Y5538012D01*
X3662781Y5548020D01*
X3666998Y5558231D01*
X3669588Y5568950D01*
X3670452Y5579973D01*
X3669588Y5591048D01*
X3666998Y5601766D01*
X3662781Y5611977D01*
X3656990Y5621426D01*
X3649827Y5629808D01*
X3641394Y5637022D01*
X3631996Y5642813D01*
X3621786Y5647029D01*
X3611016Y5649620D01*
X3599992Y5650484D01*
X3588969Y5649620D01*
X3578199Y5647029D01*
X3567988Y5642813D01*
X3558590Y5637022D01*
X3550158Y5629808D01*
X3542995Y5621426D01*
X3537204Y5611977D01*
X3532987Y5601766D01*
X3530396Y5591048D01*
X3529533Y5579973D01*
X3530396Y5568950D01*
X3532987Y5558231D01*
X3536594Y5549493D01*
X3537356Y5545632D01*
X3536594Y5541721D01*
X3534359Y5538419D01*
X3531057Y5536234D01*
X3527196Y5535472D01*
X3418484Y5535422D01*
X3409797Y5534253D01*
X3401822Y5531561D01*
X3394506Y5527497D01*
X3387648Y5521858D01*
X3344113Y5478475D01*
X3340811Y5476290D01*
X3336899Y5475528D01*
X3118104Y5475478D01*
X3109417Y5474258D01*
X3101492Y5471566D01*
X3094177Y5467502D01*
X3087370Y5461812D01*
X2906674Y5280863D01*
X2901391Y5273852D01*
X2897632Y5266334D01*
X2895346Y5258257D01*
X2894533Y5249468D01*
X2894533Y5185714D01*
X2893771Y5181803D01*
X2891586Y5178501D01*
X2888284Y5176316D01*
X2884373Y5175554D01*
X2638348Y5175504D01*
X2629662Y5174284D01*
X2621737Y5171643D01*
X2614371Y5167528D01*
X2607564Y5161889D01*
X2535377Y5089702D01*
X2531872Y5087416D01*
X2527808Y5086705D01*
X2523744Y5087721D01*
X2520492Y5090261D01*
X2518460Y5093868D01*
X2518105Y5097983D01*
X2519375Y5101945D01*
X2558389Y5169560D01*
X2561132Y5172608D01*
X2564892Y5174335D01*
X2569006Y5174437D01*
X2571750Y5173929D01*
X2577744Y5174030D01*
X2583535Y5175300D01*
X2589479Y5177891D01*
X2693568Y5235549D01*
X2698902Y5239258D01*
X2703068Y5243525D01*
X2706319Y5248554D01*
X2708503Y5254091D01*
X2709570Y5259984D01*
X2709468Y5265928D01*
X2708249Y5271770D01*
X2705658Y5277713D01*
X2618892Y5434279D01*
X2615234Y5439613D01*
X2610916Y5443778D01*
X2605887Y5446979D01*
X2600350Y5449214D01*
X2594508Y5450281D01*
X2588514Y5450179D01*
X2582672Y5448909D01*
X2576728Y5446369D01*
X2472639Y5388660D01*
X2467305Y5385003D01*
X2463190Y5380685D01*
X2459939Y5375706D01*
X2457754Y5370118D01*
X2456637Y5364276D01*
X2456738Y5358282D01*
X2458008Y5352440D01*
X2460548Y5346496D01*
X2487371Y5298186D01*
X2488590Y5294020D01*
X2487980Y5289753D01*
X2485644Y5286095D01*
X2484221Y5284622D01*
X2480513Y5282285D01*
X2476144Y5281726D01*
X2471978Y5283047D01*
X2456129Y5292191D01*
X2450236Y5294833D01*
X2444394Y5296204D01*
X2438450Y5296408D01*
X2432558Y5295442D01*
X2426970Y5293309D01*
X2421890Y5290159D01*
X2417521Y5286095D01*
X2413762Y5280812D01*
X2354326Y5177840D01*
X2351633Y5171948D01*
X2350312Y5166156D01*
X2350109Y5160162D01*
X2351074Y5154269D01*
X2353157Y5148681D01*
X2356307Y5143652D01*
X2360422Y5139283D01*
X2365654Y5135524D01*
X2468626Y5076037D01*
X2474518Y5073396D01*
X2480360Y5072024D01*
X2486304Y5071821D01*
X2492502Y5072837D01*
X2496718Y5072684D01*
X2500528Y5070754D01*
X2503170Y5067452D01*
X2504287Y5063388D01*
X2503627Y5059222D01*
X2501341Y5055666D01*
X2306726Y4860950D01*
X2301443Y4853990D01*
X2297684Y4846472D01*
X2295398Y4838395D01*
X2294585Y4829606D01*
X2294585Y4698746D01*
X2293721Y4694580D01*
X2291232Y4691176D01*
X2287574Y4689043D01*
X2283358Y4688636D01*
X2279345Y4689906D01*
X2125116Y4778959D01*
X2119223Y4781651D01*
X2113432Y4782972D01*
X2107438Y4783175D01*
X2101545Y4782210D01*
X2095957Y4780127D01*
X2090877Y4776978D01*
X2086559Y4772863D01*
X2082749Y4767630D01*
X2023262Y4664557D01*
X2020570Y4658664D01*
X2019249Y4652873D01*
X2019046Y4646879D01*
X2020011Y4640986D01*
X2022093Y4635398D01*
X2025294Y4630318D01*
X2029358Y4626000D01*
X2034590Y4622190D01*
X2045258Y4616043D01*
X2048256Y4613402D01*
X2050034Y4609744D01*
X2050186Y4605731D01*
X2049780Y4602835D01*
X2049576Y4598314D01*
X2049576Y4575454D01*
X2048865Y4571796D01*
X2046935Y4568647D01*
X2043988Y4566361D01*
X2040382Y4565345D01*
X2034184Y4564735D01*
X2028494Y4563008D01*
X2023211Y4560163D01*
X2018588Y4556404D01*
X2014778Y4551781D01*
X2011984Y4546498D01*
X2010257Y4540808D01*
X2009597Y4534357D01*
X2009597Y4415485D01*
X2010257Y4409033D01*
X2011984Y4403293D01*
X2014778Y4398060D01*
X2018588Y4393438D01*
X2023211Y4389628D01*
X2028494Y4386834D01*
X2034184Y4385106D01*
X2040636Y4384446D01*
X2159508Y4384446D01*
X2163318Y4384852D01*
X2167483Y4384395D01*
X2171090Y4382262D01*
X2173579Y4378858D01*
X2174443Y4374743D01*
X2174494Y4048302D01*
X2175713Y4039615D01*
X2178354Y4031691D01*
X2182469Y4024325D01*
X2188108Y4017518D01*
X2261412Y3944264D01*
X2263597Y3940962D01*
X2264359Y3937050D01*
X2264410Y3868165D01*
X2265629Y3859529D01*
X2268321Y3851554D01*
X2272385Y3844239D01*
X2278024Y3837432D01*
X2478633Y3637076D01*
X2480818Y3633825D01*
X2481580Y3629914D01*
X2480818Y3626002D01*
X2478633Y3622751D01*
X2456586Y3600602D01*
X2451303Y3593642D01*
X2447544Y3586124D01*
X2445258Y3578047D01*
X2444445Y3569258D01*
X2444496Y3388156D01*
X2445715Y3379470D01*
X2448356Y3371545D01*
X2452471Y3364179D01*
X2458110Y3357372D01*
X2789021Y3026562D01*
X2795981Y3021279D01*
X2803499Y3017520D01*
X2811576Y3015234D01*
X2820365Y3014421D01*
X3061157Y3014472D01*
X3069844Y3015691D01*
X3077768Y3018332D01*
X3085236Y3022498D01*
X3090214Y3026410D01*
X3093872Y3030016D01*
X3097530Y3032353D01*
X3101797Y3032912D01*
X3105912Y3031642D01*
X3124454Y3021380D01*
X3130397Y3018840D01*
X3136239Y3017570D01*
X3142234Y3017469D01*
X3148076Y3018536D01*
X3153613Y3020771D01*
X3158642Y3023971D01*
X3162960Y3028137D01*
X3166618Y3033471D01*
X3226714Y3141929D01*
X3229305Y3147872D01*
X3230575Y3153714D01*
X3230626Y3159658D01*
X3229559Y3165551D01*
X3227374Y3171088D01*
X3224123Y3176117D01*
X3219958Y3180384D01*
X3214624Y3184093D01*
X3128060Y3232099D01*
X3121355Y3234994D01*
X3118104Y3237230D01*
X3115970Y3240532D01*
X3115259Y3244392D01*
X3116021Y3248253D01*
X3118256Y3251504D01*
X3121507Y3253689D01*
X3125419Y3254451D01*
X3186988Y3254451D01*
X3190900Y3253689D01*
X3194202Y3251504D01*
X3251504Y3194202D01*
X3253689Y3190900D01*
X3254451Y3186988D01*
X3254502Y2908401D01*
X3255721Y2899714D01*
X3258362Y2891790D01*
X3262426Y2884424D01*
X3268065Y2877616D01*
X3358997Y2786532D01*
X3365957Y2781249D01*
X3373475Y2777490D01*
X3381552Y2775204D01*
G37*
G36*
X4634890Y2868523D02*
G01*
X4640834Y2868777D01*
X4646625Y2870250D01*
X4652467Y2873044D01*
X4754473Y2934309D01*
X4759655Y2938170D01*
X4763668Y2942590D01*
X4766767Y2947720D01*
X4768748Y2953359D01*
X4769612Y2959252D01*
X4769307Y2965246D01*
X4767884Y2971038D01*
X4765090Y2976880D01*
X4738268Y3021482D01*
X4736846Y3025749D01*
X4737404Y3030169D01*
X4739792Y3033928D01*
X4756759Y3050895D01*
X4760366Y3053181D01*
X4764582Y3053842D01*
X4768697Y3052673D01*
X4786833Y3043021D01*
X4792776Y3040583D01*
X4798669Y3039414D01*
X4804613Y3039414D01*
X4810506Y3040634D01*
X4815992Y3042920D01*
X4820970Y3046222D01*
X4825187Y3050489D01*
X4828743Y3055874D01*
X4884572Y3160826D01*
X4887010Y3166821D01*
X4888179Y3172663D01*
X4888179Y3178657D01*
X4887010Y3184499D01*
X4884674Y3190036D01*
X4881372Y3194964D01*
X4877155Y3199180D01*
X4871720Y3202787D01*
X4766767Y3258565D01*
X4760772Y3261055D01*
X4754930Y3262223D01*
X4748936Y3262172D01*
X4743094Y3261004D01*
X4737608Y3258718D01*
X4732629Y3255365D01*
X4728413Y3251149D01*
X4724857Y3245764D01*
X4672431Y3147161D01*
X4670196Y3144367D01*
X4667097Y3142488D01*
X4663592Y3141776D01*
X4660036Y3142386D01*
X4653838Y3144570D01*
X4647946Y3145434D01*
X4642002Y3145129D01*
X4636211Y3143707D01*
X4630369Y3140913D01*
X4528362Y3079597D01*
X4523130Y3075736D01*
X4519168Y3071317D01*
X4516069Y3066186D01*
X4514088Y3060598D01*
X4513224Y3054654D01*
X4513529Y3048711D01*
X4514951Y3042920D01*
X4517745Y3037078D01*
X4609947Y2883662D01*
X4613808Y2878429D01*
X4618228Y2874416D01*
X4623358Y2871368D01*
X4628946Y2869387D01*
G37*
G36*
X2609697Y2890113D02*
G01*
X2615590Y2891078D01*
X2621178Y2893161D01*
X2626207Y2896311D01*
X2630576Y2900426D01*
X2634335Y2905658D01*
X2693822Y3008630D01*
X2696464Y3014522D01*
X2697835Y3020364D01*
X2698038Y3026308D01*
X2697073Y3032201D01*
X2694940Y3037789D01*
X2691790Y3042869D01*
X2687726Y3047238D01*
X2682443Y3050997D01*
X2600299Y3098393D01*
X2597251Y3101136D01*
X2595524Y3104896D01*
X2595422Y3109061D01*
X2595930Y3111754D01*
X2595829Y3117748D01*
X2594559Y3123539D01*
X2591968Y3129483D01*
X2534310Y3233572D01*
X2530602Y3238906D01*
X2526334Y3243072D01*
X2521305Y3246323D01*
X2515768Y3248507D01*
X2509875Y3249574D01*
X2503932Y3249472D01*
X2498090Y3248253D01*
X2492146Y3245662D01*
X2335580Y3158896D01*
X2330246Y3155238D01*
X2326081Y3150920D01*
X2322880Y3145891D01*
X2320645Y3140354D01*
X2319578Y3134512D01*
X2319680Y3128518D01*
X2320950Y3122676D01*
X2323490Y3116732D01*
X2381199Y3012643D01*
X2384856Y3007309D01*
X2389174Y3003194D01*
X2394153Y2999943D01*
X2399741Y2997758D01*
X2405583Y2996641D01*
X2411577Y2996742D01*
X2417419Y2998012D01*
X2423363Y3000552D01*
X2471674Y3027375D01*
X2475839Y3028594D01*
X2480106Y3027984D01*
X2483764Y3025648D01*
X2485237Y3024225D01*
X2487574Y3020517D01*
X2488133Y3016148D01*
X2486812Y3011982D01*
X2477668Y2996133D01*
X2475026Y2990240D01*
X2473655Y2984398D01*
X2473452Y2978454D01*
X2474417Y2972562D01*
X2476550Y2966974D01*
X2479700Y2961894D01*
X2483764Y2957525D01*
X2489047Y2953766D01*
X2592019Y2894330D01*
X2597912Y2891637D01*
X2603703Y2890316D01*
G37*
G36*
X2136140Y3544773D02*
G01*
X2142083Y3544874D01*
X2147925Y3546144D01*
X2153869Y3548735D01*
X2257856Y3606342D01*
X2263190Y3610051D01*
X2267356Y3614318D01*
X2270556Y3619347D01*
X2272792Y3624884D01*
X2273858Y3630777D01*
X2273757Y3636721D01*
X2272487Y3642563D01*
X2269947Y3648506D01*
X2212289Y3752494D01*
X2208631Y3757828D01*
X2203602Y3762654D01*
X2201468Y3765702D01*
X2200554Y3769309D01*
X2201011Y3773017D01*
X2202789Y3776319D01*
X2211628Y3783380D01*
X2215388Y3788003D01*
X2218232Y3793236D01*
X2219960Y3798976D01*
X2220569Y3805428D01*
X2220569Y3924401D01*
X2219960Y3930853D01*
X2218232Y3936593D01*
X2215388Y3941826D01*
X2211628Y3946448D01*
X2207006Y3950258D01*
X2201722Y3953052D01*
X2196033Y3954779D01*
X2189581Y3955440D01*
X2010562Y3955440D01*
X2004110Y3954779D01*
X1998421Y3953052D01*
X1993138Y3950258D01*
X1988515Y3946448D01*
X1984756Y3941826D01*
X1981911Y3936593D01*
X1980184Y3930853D01*
X1979574Y3924401D01*
X1979574Y3805428D01*
X1980184Y3798976D01*
X1981911Y3793236D01*
X1984756Y3788003D01*
X1988515Y3783380D01*
X1993138Y3779570D01*
X1998421Y3776776D01*
X2004110Y3775049D01*
X2010562Y3774389D01*
X2039416Y3774389D01*
X2043277Y3773627D01*
X2046579Y3771442D01*
X2048814Y3768140D01*
X2049576Y3764229D01*
X2049576Y3718814D01*
X2049780Y3714191D01*
X2050338Y3709822D01*
X2051253Y3705656D01*
X2053183Y3699967D01*
X2053742Y3696462D01*
X2053031Y3692956D01*
X2051253Y3688384D01*
X2050186Y3682542D01*
X2050237Y3676548D01*
X2051507Y3670706D01*
X2054098Y3664762D01*
X2111705Y3560775D01*
X2115413Y3555492D01*
X2119680Y3551326D01*
X2124710Y3548075D01*
X2130247Y3545890D01*
G37*
G36*
X5111546Y3563874D02*
G01*
X5117541Y3563874D01*
X5123383Y3565042D01*
X5128869Y3567328D01*
X5133848Y3570681D01*
X5138064Y3574897D01*
X5141620Y3580282D01*
X5197500Y3685387D01*
X5199989Y3691382D01*
X5201107Y3697224D01*
X5201107Y3703167D01*
X5199938Y3709060D01*
X5197652Y3714546D01*
X5194300Y3719525D01*
X5190083Y3723741D01*
X5184698Y3727297D01*
X5155946Y3742588D01*
X5153101Y3744823D01*
X5151221Y3747973D01*
X5150561Y3751529D01*
X5150561Y3764381D01*
X5151272Y3768039D01*
X5153202Y3771188D01*
X5156149Y3773474D01*
X5159756Y3774490D01*
X5165953Y3775100D01*
X5171643Y3776827D01*
X5176926Y3779672D01*
X5181549Y3783431D01*
X5185359Y3788054D01*
X5188153Y3793337D01*
X5189880Y3799027D01*
X5190540Y3805478D01*
X5190540Y3924350D01*
X5189880Y3930802D01*
X5188153Y3936492D01*
X5185359Y3941775D01*
X5181549Y3946398D01*
X5176926Y3950208D01*
X5171643Y3953001D01*
X5165953Y3954729D01*
X5159502Y3955389D01*
X5040630Y3955389D01*
X5034178Y3954729D01*
X5028488Y3953001D01*
X5023205Y3950208D01*
X5018582Y3946398D01*
X5014772Y3941775D01*
X5011978Y3936492D01*
X5010251Y3930802D01*
X5009591Y3924350D01*
X5009591Y3823309D01*
X5008829Y3819448D01*
X5006644Y3816146D01*
X5003342Y3813911D01*
X4997450Y3811473D01*
X4992471Y3808120D01*
X4988306Y3803904D01*
X4984699Y3798519D01*
X4928819Y3693464D01*
X4926380Y3687470D01*
X4925212Y3681628D01*
X4925212Y3675634D01*
X4926431Y3669792D01*
X4928717Y3664254D01*
X4932019Y3659327D01*
X4936286Y3655110D01*
X4941671Y3651504D01*
X5099710Y3567480D01*
X5105704Y3565042D01*
G37*
G36*
X4916322Y4824831D02*
G01*
X4921961Y4827219D01*
X4931410Y4832959D01*
X4939842Y4840173D01*
X4947005Y4848555D01*
X4952796Y4858004D01*
X4955133Y4863642D01*
X4916322Y4863642D01*
G37*
G36*
X4863642Y4824831D02*
G01*
X4863642Y4863642D01*
X4824831Y4863642D01*
X4827168Y4858004D01*
X4832959Y4848555D01*
X4840173Y4840173D01*
X4848555Y4832959D01*
X4858004Y4827219D01*
G37*
G36*
X4916322Y4916322D02*
G01*
X4955133Y4916322D01*
X4952796Y4921961D01*
X4947005Y4931410D01*
X4939842Y4939842D01*
X4931410Y4947005D01*
X4921961Y4952796D01*
X4916322Y4955133D01*
G37*
G36*
X4824831Y4916322D02*
G01*
X4863642Y4916322D01*
X4863642Y4955133D01*
X4858004Y4952796D01*
X4848555Y4947005D01*
X4840173Y4939842D01*
X4832959Y4931410D01*
X4827168Y4921961D01*
G37*
G36*
X4863642Y4974844D02*
G01*
X4863642Y5013655D01*
X4824882Y5013655D01*
X4827219Y5008016D01*
X4832959Y4998567D01*
X4840173Y4990185D01*
X4848555Y4982972D01*
X4858004Y4977180D01*
G37*
G36*
X4916322Y4974844D02*
G01*
X4922012Y4977180D01*
X4931410Y4982972D01*
X4939842Y4990185D01*
X4947005Y4998567D01*
X4952796Y5008016D01*
X4955133Y5013655D01*
X4916373Y5013655D01*
G37*
G36*
X4682896Y5049621D02*
G01*
X4688890Y5050028D01*
X4694631Y5051552D01*
X4700422Y5054447D01*
X4852263Y5149291D01*
X4857343Y5153253D01*
X4861306Y5157774D01*
X4864252Y5162956D01*
X4866182Y5168595D01*
X4866944Y5174538D01*
X4866538Y5180482D01*
X4864963Y5186222D01*
X4862118Y5192014D01*
X4799025Y5292953D01*
X4795113Y5298084D01*
X4790592Y5301996D01*
X4785410Y5304993D01*
X4779772Y5306872D01*
X4773828Y5307634D01*
X4767884Y5307228D01*
X4762093Y5305704D01*
X4756302Y5302808D01*
X4727600Y5284876D01*
X4723384Y5283403D01*
X4718964Y5283860D01*
X4715154Y5286197D01*
X4712716Y5289905D01*
X4712106Y5294325D01*
X4713427Y5298592D01*
X4722164Y5313730D01*
X4724857Y5319623D01*
X4726228Y5325465D01*
X4726432Y5331409D01*
X4725416Y5337302D01*
X4723333Y5342890D01*
X4720183Y5347970D01*
X4716119Y5352338D01*
X4710836Y5356098D01*
X4607864Y5415534D01*
X4601972Y5418226D01*
X4596180Y5419598D01*
X4590186Y5419750D01*
X4584293Y5418785D01*
X4578705Y5416702D01*
X4573625Y5413552D01*
X4569307Y5409438D01*
X4565497Y5404205D01*
X4506061Y5301234D01*
X4503420Y5295341D01*
X4502048Y5289499D01*
X4501845Y5283555D01*
X4502810Y5277662D01*
X4504944Y5272074D01*
X4508093Y5266994D01*
X4512157Y5262626D01*
X4517440Y5258866D01*
X4593082Y5215178D01*
X4596333Y5212181D01*
X4598009Y5208066D01*
X4597755Y5203647D01*
X4592472Y5194350D01*
X4590592Y5188661D01*
X4589830Y5182768D01*
X4590237Y5176774D01*
X4591761Y5171033D01*
X4594656Y5165242D01*
X4657699Y5064302D01*
X4661662Y5059172D01*
X4666183Y5055260D01*
X4671314Y5052314D01*
X4677003Y5050383D01*
G37*
G36*
X4824882Y5066334D02*
G01*
X4863642Y5066334D01*
X4863642Y5105146D01*
X4858004Y5102809D01*
X4848555Y5097018D01*
X4840173Y5089855D01*
X4832959Y5081422D01*
X4827219Y5071973D01*
G37*
G36*
X4916373Y5066334D02*
G01*
X4955133Y5066334D01*
X4952796Y5071973D01*
X4947005Y5081422D01*
X4939842Y5089855D01*
X4931410Y5097018D01*
X4922012Y5102809D01*
X4916373Y5105146D01*
G37*
G36*
X4094784Y5474157D02*
G01*
X4100677Y5475122D01*
X4106265Y5477205D01*
X4111345Y5480405D01*
X4115714Y5484469D01*
X4119473Y5489702D01*
X4138574Y5522772D01*
X4091635Y5549849D01*
X4057091Y5489956D01*
X4077106Y5478373D01*
X4082999Y5475681D01*
X4088841Y5474360D01*
G37*
G36*
X3090773Y5496001D02*
G01*
X3096717Y5496102D01*
X3102559Y5497372D01*
X3108502Y5499912D01*
X3207715Y5554929D01*
X3210915Y5556046D01*
X3214268Y5556046D01*
X3217418Y5554980D01*
X3223310Y5551830D01*
X3229051Y5550103D01*
X3235502Y5549493D01*
X3354476Y5549493D01*
X3360928Y5550103D01*
X3366668Y5551830D01*
X3371900Y5554675D01*
X3376523Y5558434D01*
X3380333Y5563057D01*
X3383127Y5568340D01*
X3384854Y5574030D01*
X3385515Y5580481D01*
X3385515Y5759500D01*
X3384854Y5765952D01*
X3383127Y5771642D01*
X3380333Y5776925D01*
X3376523Y5781548D01*
X3371900Y5785307D01*
X3366668Y5788101D01*
X3360928Y5789879D01*
X3354476Y5790488D01*
X3235502Y5790488D01*
X3229051Y5789879D01*
X3223310Y5788101D01*
X3218078Y5785307D01*
X3213455Y5781548D01*
X3209645Y5776925D01*
X3206851Y5771642D01*
X3205124Y5765952D01*
X3204464Y5759500D01*
X3204464Y5700725D01*
X3203702Y5696864D01*
X3201517Y5693562D01*
X3198215Y5691327D01*
X3194304Y5690565D01*
X3180181Y5690565D01*
X3176676Y5691225D01*
X3173577Y5693054D01*
X3171291Y5695797D01*
X3166922Y5703671D01*
X3163265Y5709005D01*
X3158947Y5713171D01*
X3153968Y5716422D01*
X3148380Y5718606D01*
X3142538Y5719673D01*
X3136544Y5719622D01*
X3130702Y5718352D01*
X3124758Y5715762D01*
X3020771Y5658154D01*
X3015488Y5654446D01*
X3011322Y5650179D01*
X3008071Y5645150D01*
X3005886Y5639612D01*
X3004820Y5633720D01*
X3004870Y5627776D01*
X3006140Y5621934D01*
X3008731Y5615990D01*
X3066338Y5512003D01*
X3070047Y5506669D01*
X3074314Y5502503D01*
X3079343Y5499303D01*
X3084880Y5497068D01*
G37*
G36*
X3994099Y5526278D02*
G01*
X4028694Y5586171D01*
X4000550Y5602478D01*
X3997807Y5604713D01*
X3996080Y5607761D01*
X3995470Y5611266D01*
X3995470Y5729427D01*
X3994810Y5735878D01*
X3993083Y5741568D01*
X3990238Y5746851D01*
X3986479Y5751474D01*
X3981856Y5755233D01*
X3976573Y5758078D01*
X3970883Y5759805D01*
X3964432Y5760415D01*
X3938676Y5760415D01*
X3935933Y5760821D01*
X3931970Y5762802D01*
X3921760Y5767019D01*
X3911041Y5769610D01*
X3899966Y5770473D01*
X3888943Y5769610D01*
X3878224Y5767019D01*
X3868013Y5762802D01*
X3864051Y5760821D01*
X3861308Y5760415D01*
X3845560Y5760415D01*
X3839108Y5759805D01*
X3833418Y5758078D01*
X3828135Y5755233D01*
X3823512Y5751474D01*
X3819702Y5746851D01*
X3816908Y5741568D01*
X3815181Y5735878D01*
X3814521Y5729427D01*
X3814521Y5610555D01*
X3815181Y5604103D01*
X3816908Y5598363D01*
X3819702Y5593130D01*
X3823512Y5588508D01*
X3828135Y5584698D01*
X3833418Y5581904D01*
X3839108Y5580176D01*
X3845560Y5579516D01*
X3948531Y5579516D01*
X3952494Y5578754D01*
X3955846Y5576417D01*
X3958031Y5573014D01*
X3958691Y5569051D01*
X3958488Y5562549D01*
X3959453Y5556656D01*
X3961587Y5551068D01*
X3964736Y5545988D01*
X3968800Y5541670D01*
X3974084Y5537860D01*
G37*
G36*
X4189882Y5611723D02*
G01*
X4208983Y5644743D01*
X4211675Y5650636D01*
X4212996Y5656478D01*
X4213199Y5662422D01*
X4212234Y5668314D01*
X4210151Y5673902D01*
X4206951Y5678982D01*
X4202887Y5683351D01*
X4197654Y5687110D01*
X4177588Y5698693D01*
X4142994Y5638800D01*
G37*
G36*
X4080052Y5675122D02*
G01*
X4114647Y5735015D01*
X4094581Y5746597D01*
X4088688Y5749290D01*
X4082846Y5750610D01*
X4076903Y5750814D01*
X4071010Y5749848D01*
X4065422Y5747766D01*
X4060342Y5744616D01*
X4055973Y5740501D01*
X4052214Y5735269D01*
X4033164Y5702198D01*
G37*

%LPD*%
G36*
X3412998Y2865424D02*
G01*
X3409086Y2866186D01*
X3405784Y2868422D01*
X3348431Y2925927D01*
X3346246Y2929229D01*
X3345484Y2933090D01*
X3345434Y3211779D01*
X3344214Y3220466D01*
X3341573Y3228390D01*
X3337458Y3235756D01*
X3331819Y3242564D01*
X3240938Y3333343D01*
X3233978Y3338626D01*
X3226460Y3342386D01*
X3218383Y3344672D01*
X3209594Y3345484D01*
X2998774Y3345434D01*
X2990088Y3344214D01*
X2982163Y3341573D01*
X2974695Y3337407D01*
X2969717Y3333496D01*
X2966262Y3330092D01*
X2962605Y3327755D01*
X2958338Y3327196D01*
X2954223Y3328466D01*
X2935630Y3338728D01*
X2929686Y3341319D01*
X2923844Y3342589D01*
X2917901Y3342640D01*
X2912008Y3341573D01*
X2906471Y3339388D01*
X2901543Y3336899D01*
X2898089Y3336645D01*
X2894787Y3337610D01*
X2891993Y3339592D01*
X2799435Y3431946D01*
X2797454Y3434740D01*
X2796540Y3438042D01*
X2796743Y3441496D01*
X2799232Y3446373D01*
X2801416Y3451910D01*
X2802483Y3457803D01*
X2802382Y3463747D01*
X2801162Y3469589D01*
X2798572Y3475532D01*
X2750566Y3562146D01*
X2746908Y3567480D01*
X2742641Y3571595D01*
X2737612Y3574846D01*
X2732074Y3577082D01*
X2726182Y3578148D01*
X2720187Y3578047D01*
X2714396Y3576777D01*
X2708452Y3574237D01*
X2599994Y3514090D01*
X2594660Y3510432D01*
X2590495Y3506114D01*
X2587244Y3501136D01*
X2585059Y3495548D01*
X2583992Y3489706D01*
X2584043Y3483711D01*
X2585313Y3477869D01*
X2587904Y3471926D01*
X2635910Y3385362D01*
X2639568Y3380028D01*
X2643835Y3375863D01*
X2648864Y3372612D01*
X2654401Y3370427D01*
X2660294Y3369360D01*
X2666238Y3369462D01*
X2672080Y3370681D01*
X2678023Y3373272D01*
X2704338Y3387851D01*
X2708503Y3389122D01*
X2712821Y3388512D01*
X2716479Y3386175D01*
X2846273Y3256635D01*
X2848610Y3252978D01*
X2849219Y3248710D01*
X2847949Y3244545D01*
X2833370Y3218180D01*
X2830779Y3212236D01*
X2829560Y3206445D01*
X2829458Y3200450D01*
X2830525Y3194558D01*
X2832709Y3189020D01*
X2835960Y3183991D01*
X2840126Y3179724D01*
X2845460Y3176066D01*
X2931972Y3128111D01*
X2939491Y3125012D01*
X2942793Y3122777D01*
X2944977Y3119526D01*
X2945739Y3115614D01*
X2944977Y3111703D01*
X2942793Y3108401D01*
X2939491Y3106216D01*
X2935579Y3105454D01*
X2842971Y3105454D01*
X2839059Y3106216D01*
X2835757Y3108401D01*
X2538425Y3405733D01*
X2536240Y3409035D01*
X2535478Y3412947D01*
X2535478Y3546652D01*
X2536240Y3550564D01*
X2538425Y3553866D01*
X2543708Y3559149D01*
X2546400Y3561029D01*
X2549499Y3561994D01*
X2553614Y3561791D01*
X2559608Y3561892D01*
X2565450Y3563112D01*
X2571394Y3565702D01*
X2679852Y3625799D01*
X2685135Y3629507D01*
X2689301Y3633774D01*
X2692552Y3638804D01*
X2694736Y3644341D01*
X2695854Y3650234D01*
X2695752Y3656177D01*
X2694482Y3662019D01*
X2691942Y3667963D01*
X2643936Y3754526D01*
X2640228Y3759860D01*
X2635961Y3764026D01*
X2630932Y3767277D01*
X2625394Y3769461D01*
X2619502Y3770528D01*
X2613558Y3770477D01*
X2607716Y3769207D01*
X2601772Y3766616D01*
X2528671Y3726129D01*
X2524506Y3724859D01*
X2520238Y3725468D01*
X2516581Y3727805D01*
X2358339Y3885844D01*
X2356154Y3889146D01*
X2355392Y3893007D01*
X2355342Y3961841D01*
X2354122Y3970528D01*
X2351481Y3978452D01*
X2347366Y3985818D01*
X2341727Y3992626D01*
X2268423Y4065879D01*
X2266238Y4069181D01*
X2265476Y4073093D01*
X2265476Y4386884D01*
X2266238Y4390796D01*
X2268423Y4394098D01*
X2373477Y4499152D01*
X2378760Y4506163D01*
X2382520Y4513681D01*
X2384806Y4521758D01*
X2385618Y4530547D01*
X2385618Y4637125D01*
X2386380Y4641037D01*
X2388565Y4644339D01*
X2391867Y4646523D01*
X2395778Y4647285D01*
X2399639Y4646523D01*
X2408224Y4642967D01*
X2418994Y4640376D01*
X2430018Y4639513D01*
X2441041Y4640376D01*
X2451760Y4642967D01*
X2466594Y4649165D01*
X2470556Y4649012D01*
X2474112Y4647438D01*
X2476804Y4644593D01*
X2478227Y4640935D01*
X2478176Y4636973D01*
X2477516Y4633772D01*
X2477414Y4627829D01*
X2478481Y4621936D01*
X2480665Y4616399D01*
X2483916Y4611370D01*
X2488285Y4606848D01*
X2490470Y4603546D01*
X2491181Y4599686D01*
X2490368Y4595876D01*
X2488184Y4592574D01*
X2456586Y4560976D01*
X2451303Y4554016D01*
X2447544Y4546498D01*
X2445258Y4538421D01*
X2444445Y4529632D01*
X2444445Y4370578D01*
X2443683Y4366666D01*
X2441498Y4363364D01*
X2438196Y4361180D01*
X2434285Y4360418D01*
X2428036Y4360418D01*
X2421585Y4359757D01*
X2415895Y4358030D01*
X2410612Y4355236D01*
X2405989Y4351426D01*
X2402230Y4346803D01*
X2399385Y4341571D01*
X2397658Y4335830D01*
X2397048Y4329379D01*
X2397048Y4230420D01*
X2397658Y4223969D01*
X2398522Y4221124D01*
X2398877Y4216908D01*
X2397506Y4212894D01*
X2394559Y4209846D01*
X2390648Y4208221D01*
X2386431Y4208322D01*
X2380996Y4209592D01*
X2369972Y4210456D01*
X2358948Y4209592D01*
X2348230Y4207052D01*
X2338019Y4202785D01*
X2328570Y4196994D01*
X2320137Y4189831D01*
X2312974Y4181449D01*
X2307183Y4172000D01*
X2302967Y4161790D01*
X2300376Y4151020D01*
X2299512Y4139996D01*
X2300376Y4128973D01*
X2302967Y4118203D01*
X2307183Y4107992D01*
X2312974Y4098594D01*
X2320137Y4090162D01*
X2328570Y4082999D01*
X2338019Y4077208D01*
X2348230Y4072991D01*
X2358948Y4070400D01*
X2375306Y4069029D01*
X2378964Y4066641D01*
X2394051Y4051554D01*
X2396286Y4048251D01*
X2397048Y4044391D01*
X2397048Y4010406D01*
X2397658Y4003954D01*
X2399385Y3998264D01*
X2402230Y3992981D01*
X2405989Y3988358D01*
X2410612Y3984599D01*
X2415895Y3981754D01*
X2421585Y3980027D01*
X2428036Y3979418D01*
X2552039Y3979418D01*
X2558491Y3980027D01*
X2564180Y3981754D01*
X2569464Y3984599D01*
X2574086Y3988358D01*
X2577846Y3992981D01*
X2580690Y3998264D01*
X2582418Y4003954D01*
X2583027Y4010406D01*
X2583027Y4097985D01*
X2583840Y4101896D01*
X2586024Y4105198D01*
X2589326Y4107383D01*
X2593187Y4108145D01*
X2597099Y4107383D01*
X2600401Y4105198D01*
X3461512Y3244088D01*
X3463696Y3240786D01*
X3464509Y3236874D01*
X3464509Y3103168D01*
X3463696Y3099257D01*
X3461512Y3095955D01*
X3458210Y3093770D01*
X3454349Y3093008D01*
X3440531Y3093008D01*
X3434079Y3092348D01*
X3428390Y3090621D01*
X3423107Y3087827D01*
X3418484Y3084017D01*
X3414725Y3079394D01*
X3411880Y3074162D01*
X3410153Y3068421D01*
X3409543Y3061970D01*
X3409543Y2937967D01*
X3410153Y2931515D01*
X3411880Y2925826D01*
X3414725Y2920542D01*
X3418484Y2915970D01*
X3423107Y2912160D01*
X3428390Y2909366D01*
X3434079Y2907588D01*
X3440531Y2906979D01*
X3539540Y2906979D01*
X3545992Y2907588D01*
X3551682Y2909366D01*
X3556965Y2912160D01*
X3561587Y2915970D01*
X3565347Y2920542D01*
X3568192Y2925826D01*
X3569919Y2931515D01*
X3570528Y2937967D01*
X3570528Y3061970D01*
X3569919Y3068421D01*
X3568192Y3074162D01*
X3565347Y3079394D01*
X3561587Y3084017D01*
X3559200Y3085947D01*
X3556457Y3089452D01*
X3555492Y3093821D01*
X3555492Y3126943D01*
X3556254Y3130804D01*
X3558489Y3134106D01*
X3705860Y3281527D01*
X3709162Y3283712D01*
X3713073Y3284474D01*
X4182922Y3284474D01*
X4187240Y3283508D01*
X4190746Y3280816D01*
X4192778Y3276904D01*
X4192930Y3272485D01*
X4191812Y3266338D01*
X4191914Y3260394D01*
X4193133Y3254552D01*
X4195724Y3248609D01*
X4255820Y3140151D01*
X4259529Y3134817D01*
X4263796Y3130651D01*
X4268825Y3127400D01*
X4274362Y3125216D01*
X4280255Y3124149D01*
X4286199Y3124250D01*
X4292041Y3125470D01*
X4297984Y3128060D01*
X4384548Y3176066D01*
X4389882Y3179724D01*
X4394047Y3184042D01*
X4397298Y3189020D01*
X4399483Y3194558D01*
X4400550Y3200450D01*
X4400499Y3206445D01*
X4399229Y3212287D01*
X4396638Y3218230D01*
X4336542Y3326637D01*
X4332884Y3331972D01*
X4328566Y3336137D01*
X4323537Y3339388D01*
X4318000Y3341573D01*
X4312158Y3342640D01*
X4306163Y3342589D01*
X4300321Y3341319D01*
X4294581Y3338829D01*
X4290669Y3338017D01*
X4286707Y3338728D01*
X4283354Y3340963D01*
X4260900Y3363366D01*
X4253941Y3368649D01*
X4246422Y3372408D01*
X4238345Y3374694D01*
X4229506Y3375507D01*
X3688232Y3375456D01*
X3679596Y3374237D01*
X3671620Y3371596D01*
X3664305Y3367481D01*
X3657498Y3361842D01*
X3568903Y3273247D01*
X3565550Y3271062D01*
X3561638Y3270300D01*
X3557727Y3271062D01*
X3554425Y3273348D01*
X3547516Y3285642D01*
X3541826Y3292449D01*
X2586024Y4248251D01*
X2583840Y4251553D01*
X2583027Y4255465D01*
X2583027Y4329379D01*
X2582418Y4335830D01*
X2580690Y4341571D01*
X2577846Y4346803D01*
X2574086Y4351426D01*
X2569464Y4355236D01*
X2564180Y4358030D01*
X2558491Y4359757D01*
X2552039Y4360418D01*
X2545638Y4360418D01*
X2541727Y4361180D01*
X2538425Y4363364D01*
X2536240Y4366666D01*
X2535478Y4370578D01*
X2535478Y4506976D01*
X2536240Y4510887D01*
X2538476Y4514189D01*
X2574442Y4550105D01*
X2578100Y4552442D01*
X2582418Y4553051D01*
X2586583Y4551781D01*
X2601874Y4543298D01*
X2607818Y4540758D01*
X2613660Y4539488D01*
X2619603Y4539386D01*
X2625496Y4540453D01*
X2631033Y4542688D01*
X2636062Y4545888D01*
X2640330Y4550054D01*
X2643987Y4555388D01*
X2691993Y4641951D01*
X2694990Y4648962D01*
X2697226Y4652213D01*
X2700528Y4654346D01*
X2704388Y4655108D01*
X2708249Y4654296D01*
X2711551Y4652111D01*
X2713736Y4648809D01*
X2714498Y4644948D01*
X2714498Y4528210D01*
X2713532Y4523943D01*
X2702966Y4511446D01*
X2697175Y4501997D01*
X2692958Y4491786D01*
X2690368Y4481017D01*
X2689504Y4469993D01*
X2690368Y4458970D01*
X2692958Y4448200D01*
X2697175Y4437989D01*
X2702966Y4428591D01*
X2710180Y4420158D01*
X2718562Y4412996D01*
X2728010Y4407204D01*
X2738221Y4402988D01*
X2748991Y4400397D01*
X2760014Y4399534D01*
X2771038Y4400397D01*
X2781757Y4402988D01*
X2791968Y4407204D01*
X2801416Y4412996D01*
X2809849Y4420158D01*
X2817012Y4428591D01*
X2822803Y4437989D01*
X2827020Y4448200D01*
X2829610Y4458970D01*
X2830474Y4469993D01*
X2829610Y4481017D01*
X2827020Y4491786D01*
X2822803Y4501997D01*
X2817012Y4511446D01*
X2806446Y4523943D01*
X2805480Y4528210D01*
X2805480Y4771339D01*
X2804414Y4779162D01*
X2804769Y4783429D01*
X2806852Y4787188D01*
X2810306Y4789728D01*
X2814523Y4790643D01*
X2870504Y4790643D01*
X2874670Y4789728D01*
X2878124Y4787188D01*
X2880207Y4783480D01*
X2880563Y4779213D01*
X2879140Y4775200D01*
X2877210Y4771999D01*
X2872994Y4761788D01*
X2870403Y4751019D01*
X2869539Y4739995D01*
X2870403Y4728972D01*
X2872994Y4718202D01*
X2877210Y4707991D01*
X2883001Y4698593D01*
X2890164Y4690160D01*
X2893009Y4687722D01*
X2895650Y4684268D01*
X2896565Y4680000D01*
X2895650Y4675733D01*
X2893009Y4672279D01*
X2890164Y4669840D01*
X2883001Y4661408D01*
X2877210Y4652010D01*
X2872943Y4641799D01*
X2870403Y4631029D01*
X2869539Y4620006D01*
X2870403Y4608982D01*
X2872943Y4598212D01*
X2877210Y4588002D01*
X2883001Y4578553D01*
X2890164Y4570171D01*
X2898546Y4563008D01*
X2907995Y4557217D01*
X2918206Y4552950D01*
X2928975Y4550410D01*
X2939999Y4549546D01*
X2951022Y4550410D01*
X2961792Y4552950D01*
X2972003Y4557217D01*
X2981401Y4563008D01*
X2987954Y4568545D01*
X2991002Y4570374D01*
X2994558Y4570984D01*
X3120186Y4570984D01*
X3123844Y4570272D01*
X3137204Y4561382D01*
X3140049Y4558588D01*
X3141573Y4554880D01*
X3141573Y4550918D01*
X3139998Y4547209D01*
X3137154Y4544415D01*
X3127857Y4538370D01*
X3120339Y4531410D01*
X3114040Y4523333D01*
X3109214Y4514342D01*
X3108248Y4511548D01*
X3184347Y4511548D01*
X3184347Y4544263D01*
X3185109Y4548174D01*
X3187293Y4551476D01*
X3190595Y4553661D01*
X3194507Y4554423D01*
X3299358Y4554423D01*
X3303270Y4553661D01*
X3306572Y4551476D01*
X3308756Y4548174D01*
X3309518Y4544263D01*
X3309518Y4511548D01*
X3385667Y4511548D01*
X3384702Y4514342D01*
X3379825Y4523333D01*
X3373526Y4531410D01*
X3366008Y4538370D01*
X3356711Y4544517D01*
X3353866Y4547311D01*
X3352342Y4551019D01*
X3352342Y4554982D01*
X3353866Y4558690D01*
X3356711Y4561484D01*
X3369970Y4570222D01*
X3373678Y4570933D01*
X3460546Y4570933D01*
X3464458Y4570171D01*
X3467760Y4567986D01*
X3876446Y4159250D01*
X3878681Y4155948D01*
X3879443Y4152036D01*
X3879443Y4095394D01*
X3880053Y4088993D01*
X3881780Y4083253D01*
X3884625Y4077970D01*
X3888384Y4073398D01*
X3893007Y4069587D01*
X3898290Y4066794D01*
X3903979Y4065015D01*
X3910431Y4064406D01*
X4049420Y4064406D01*
X4055872Y4065015D01*
X4061612Y4066794D01*
X4066844Y4069587D01*
X4071467Y4073398D01*
X4075277Y4077970D01*
X4078071Y4083253D01*
X4079798Y4088993D01*
X4080459Y4095394D01*
X4080459Y4244390D01*
X4079798Y4250842D01*
X4078071Y4256582D01*
X4075277Y4261815D01*
X4071467Y4266438D01*
X4066844Y4270248D01*
X4061612Y4273042D01*
X4055872Y4274769D01*
X4049420Y4275429D01*
X3910431Y4275429D01*
X3903979Y4274769D01*
X3898798Y4273194D01*
X3895191Y4272788D01*
X3891635Y4273702D01*
X3888689Y4275734D01*
X3877259Y4287164D01*
X3875074Y4290466D01*
X3874312Y4294327D01*
X3875074Y4298238D01*
X3877259Y4301540D01*
X3880561Y4303725D01*
X3884472Y4304487D01*
X4086910Y4304487D01*
X4090822Y4303725D01*
X4094124Y4301540D01*
X4359198Y4036466D01*
X4366209Y4031183D01*
X4373829Y4027373D01*
X4379620Y4025595D01*
X4385665Y4024782D01*
X4389069Y4023614D01*
X4391914Y4021378D01*
X4393742Y4018279D01*
X4394403Y4014673D01*
X4394454Y3598722D01*
X4395673Y3590036D01*
X4398314Y3582111D01*
X4402429Y3574745D01*
X4408068Y3567937D01*
X4439970Y3536035D01*
X4442307Y3532428D01*
X4442917Y3528110D01*
X4441647Y3523945D01*
X4431436Y3505504D01*
X4428896Y3499561D01*
X4427626Y3493770D01*
X4427524Y3487775D01*
X4428591Y3481882D01*
X4430826Y3476345D01*
X4434027Y3471316D01*
X4438192Y3467049D01*
X4443526Y3463391D01*
X4479340Y3443528D01*
X4482134Y3441242D01*
X4483963Y3438144D01*
X4484573Y3434638D01*
X4484573Y3203143D01*
X4483811Y3199231D01*
X4481626Y3195929D01*
X4364126Y3078429D01*
X4360824Y3076244D01*
X4356912Y3075482D01*
X4223512Y3075482D01*
X4219600Y3076244D01*
X4216298Y3078480D01*
X4210812Y3083966D01*
X4208881Y3086608D01*
X4207916Y3089706D01*
X4208170Y3093821D01*
X4208068Y3099765D01*
X4206798Y3105607D01*
X4204258Y3111550D01*
X4144111Y3220008D01*
X4140454Y3225342D01*
X4136136Y3229508D01*
X4131157Y3232708D01*
X4125569Y3234944D01*
X4119727Y3236010D01*
X4113733Y3235909D01*
X4107891Y3234639D01*
X4101947Y3232099D01*
X4015384Y3184093D01*
X4010050Y3180435D01*
X4005884Y3176117D01*
X4002633Y3171088D01*
X4000449Y3165551D01*
X3999382Y3159709D01*
X3999484Y3153714D01*
X4000703Y3147872D01*
X4003294Y3141929D01*
X4017873Y3115614D01*
X4019143Y3111449D01*
X4018534Y3107182D01*
X4016197Y3103524D01*
X3961129Y3048457D01*
X3957828Y3046272D01*
X3953967Y3045460D01*
X3800703Y3045460D01*
X3796792Y3046272D01*
X3793490Y3048457D01*
X3791305Y3051759D01*
X3790543Y3055620D01*
X3790543Y3061970D01*
X3789883Y3068421D01*
X3788156Y3074162D01*
X3785362Y3079394D01*
X3781551Y3084017D01*
X3776929Y3087827D01*
X3771696Y3090621D01*
X3765956Y3092348D01*
X3759504Y3093008D01*
X3660546Y3093008D01*
X3654094Y3092348D01*
X3648354Y3090621D01*
X3643122Y3087827D01*
X3638499Y3084017D01*
X3634689Y3079394D01*
X3631895Y3074162D01*
X3630168Y3068421D01*
X3629507Y3061970D01*
X3629507Y2937967D01*
X3630168Y2931515D01*
X3631895Y2925826D01*
X3634689Y2920542D01*
X3638499Y2915970D01*
X3642512Y2912618D01*
X3645154Y2909366D01*
X3646220Y2905302D01*
X3645560Y2901137D01*
X3643274Y2897581D01*
X3614064Y2868371D01*
X3610762Y2866186D01*
X3606850Y2865424D01*
G37*

%LPC*%
G36*
X3150463Y4064406D02*
G01*
X3289452Y4064406D01*
X3295904Y4065015D01*
X3301593Y4066794D01*
X3306876Y4069587D01*
X3311499Y4073398D01*
X3315258Y4077970D01*
X3318103Y4083253D01*
X3319830Y4088993D01*
X3320440Y4095394D01*
X3320440Y4244390D01*
X3319830Y4250842D01*
X3318103Y4256582D01*
X3315258Y4261815D01*
X3311499Y4266438D01*
X3306876Y4270248D01*
X3301593Y4273042D01*
X3295904Y4274769D01*
X3289452Y4275429D01*
X3284321Y4275429D01*
X3280410Y4276191D01*
X3277108Y4278376D01*
X3274923Y4281678D01*
X3274161Y4285589D01*
X3274923Y4289450D01*
X3277108Y4292752D01*
X3315817Y4331512D01*
X3319119Y4333697D01*
X3323031Y4334459D01*
X3421786Y4334459D01*
X3426053Y4333544D01*
X3438550Y4322978D01*
X3447999Y4317187D01*
X3458210Y4312970D01*
X3468979Y4310380D01*
X3480003Y4309516D01*
X3491026Y4310380D01*
X3501796Y4312970D01*
X3512007Y4317187D01*
X3521405Y4322978D01*
X3529837Y4330192D01*
X3537000Y4338574D01*
X3542792Y4348022D01*
X3547008Y4358233D01*
X3549599Y4368952D01*
X3550462Y4379976D01*
X3549599Y4391050D01*
X3547008Y4401769D01*
X3542792Y4411980D01*
X3537000Y4421428D01*
X3529837Y4429810D01*
X3521405Y4437024D01*
X3512007Y4442815D01*
X3501796Y4447032D01*
X3491026Y4449622D01*
X3480003Y4450486D01*
X3468979Y4449622D01*
X3458210Y4447032D01*
X3447999Y4442815D01*
X3438550Y4437024D01*
X3426002Y4426407D01*
X3421735Y4425492D01*
X3375710Y4425492D01*
X3371748Y4426305D01*
X3368395Y4428540D01*
X3366211Y4431944D01*
X3365550Y4435906D01*
X3366414Y4439869D01*
X3368801Y4443120D01*
X3373526Y4447489D01*
X3379825Y4455566D01*
X3384702Y4464558D01*
X3385667Y4467352D01*
X3309518Y4467352D01*
X3309518Y4435652D01*
X3308807Y4431792D01*
X3306673Y4428540D01*
X3303422Y4426305D01*
X3289554Y4424222D01*
X3281629Y4421581D01*
X3274263Y4417466D01*
X3267456Y4411827D01*
X3186582Y4330852D01*
X3181299Y4323892D01*
X3177540Y4316374D01*
X3175254Y4308297D01*
X3174441Y4299508D01*
X3174441Y4285589D01*
X3173679Y4281678D01*
X3171494Y4278376D01*
X3168192Y4276191D01*
X3164281Y4275429D01*
X3150463Y4275429D01*
X3144012Y4274769D01*
X3138271Y4273042D01*
X3133039Y4270248D01*
X3128416Y4266438D01*
X3124606Y4261815D01*
X3121812Y4256582D01*
X3120085Y4250842D01*
X3119424Y4244390D01*
X3119424Y4095394D01*
X3120085Y4088993D01*
X3121812Y4083253D01*
X3124606Y4077970D01*
X3128416Y4073398D01*
X3133039Y4069587D01*
X3138271Y4066794D01*
X3144012Y4065015D01*
G37*
G36*
X2936341Y4224832D02*
G01*
X2941980Y4227220D01*
X2951429Y4232960D01*
X2959811Y4240174D01*
X2967024Y4248556D01*
X2972765Y4258005D01*
X2975102Y4263644D01*
X2936341Y4263644D01*
G37*
G36*
X2883662Y4224832D02*
G01*
X2883662Y4263644D01*
X2844850Y4263644D01*
X2847187Y4258005D01*
X2852978Y4248556D01*
X2860141Y4240174D01*
X2868574Y4232960D01*
X2877972Y4227220D01*
G37*
G36*
X2844850Y4316323D02*
G01*
X2883662Y4316323D01*
X2883662Y4355134D01*
X2877972Y4352798D01*
X2868574Y4347006D01*
X2860141Y4339844D01*
X2852978Y4331411D01*
X2847187Y4321962D01*
G37*
G36*
X2936341Y4316323D02*
G01*
X2975102Y4316323D01*
X2972765Y4321962D01*
X2967024Y4331411D01*
X2959811Y4339844D01*
X2951429Y4347006D01*
X2941980Y4352798D01*
X2936341Y4355134D01*
G37*
G36*
X2996336Y4374845D02*
G01*
X3001975Y4377182D01*
X3011424Y4382973D01*
X3019806Y4390136D01*
X3027019Y4398568D01*
X3032810Y4408017D01*
X3035147Y4413656D01*
X2996336Y4413656D01*
G37*
G36*
X2943656Y4374845D02*
G01*
X2943656Y4413656D01*
X2904845Y4413656D01*
X2907182Y4408017D01*
X2912973Y4398568D01*
X2920136Y4390136D01*
X2928569Y4382973D01*
X2938018Y4377182D01*
G37*
G36*
X3166364Y4427423D02*
G01*
X3184347Y4427423D01*
X3184347Y4467352D01*
X3108248Y4467352D01*
X3109214Y4464558D01*
X3114040Y4455566D01*
X3120339Y4447489D01*
X3127857Y4440529D01*
X3136442Y4434941D01*
X3145840Y4430826D01*
X3155746Y4428337D01*
G37*
G36*
X2904845Y4466336D02*
G01*
X2943656Y4466336D01*
X2943656Y4505147D01*
X2938018Y4502810D01*
X2928569Y4497019D01*
X2920136Y4489805D01*
X2912973Y4481423D01*
X2907182Y4471974D01*
G37*
G36*
X2996336Y4466336D02*
G01*
X3035147Y4466336D01*
X3032810Y4471974D01*
X3027019Y4481423D01*
X3019806Y4489805D01*
X3011424Y4497019D01*
X3001975Y4502810D01*
X2996336Y4505147D01*
G37*

%LPD*%
D10*
X2965704Y5103368D02*
G01*
X2939034Y5130037D01*
X2640075Y5130037D01*
X2340102Y4830063D01*
X2340102Y4530089D01*
X2219959Y4409947D01*
X2219959Y4050029D01*
X2309875Y3960113D01*
X2309875Y3869944D01*
X2513838Y3666236D01*
X2586481Y3666236D01*
D11*
X3116643Y5607852D02*
G01*
X3148860Y5640070D01*
X3294938Y5640070D01*
X2462377Y5184119D02*
G01*
X2462377Y5191376D01*
X2583116Y5312115D01*
X2100072Y4474921D02*
G01*
X2100072Y4598537D01*
X2157374Y4655840D01*
X2162007Y3656644D02*
G01*
X2100072Y3718580D01*
X2100072Y3864914D01*
X2585740Y3002381D02*
G01*
X2578486Y3002381D01*
X2457744Y3123123D01*
X3294938Y2640076D02*
G01*
X3171322Y2640076D01*
X3114019Y2697378D01*
X4118538Y2692791D02*
G01*
X4065823Y2640076D01*
X3904945Y2640076D01*
X4776790Y3150809D02*
G01*
X4776790Y3142345D01*
X4641413Y3006968D01*
X5100065Y3864914D02*
G01*
X5100065Y3726306D01*
X5063169Y3689410D01*
X5051635Y4661321D02*
G01*
X5100065Y4612891D01*
X5100065Y4474921D01*
X4614130Y5307487D02*
G01*
X4614130Y5292887D01*
X4728380Y5178638D01*
D10*
X3299968Y5189981D02*
G01*
X3299968Y5100065D01*
X3343656Y5100065D01*
X3709924Y5279897D02*
G01*
X3839972Y5279897D01*
X3960113Y5400039D01*
X4169918Y5400039D01*
X4320031Y5249926D01*
X4320031Y5130545D01*
X4266184Y5076697D01*
X3154304Y5216664D02*
G01*
X3217537Y5279897D01*
X3490010Y5279897D01*
X4503237Y4834188D02*
G01*
X4503237Y4839682D01*
X4266214Y5076705D01*
X3710035Y2999973D02*
G01*
X3977010Y2999973D01*
X4103766Y3126729D01*
X2693161Y3473704D02*
G01*
X2933954Y3233420D01*
X4643460Y3696147D02*
G01*
X4739985Y3792672D01*
X4739985Y4059905D01*
X4616450Y4645660D02*
G01*
X4684268Y4645660D01*
X4949952Y4379976D01*
X4949952Y4139945D01*
X4869941Y4059936D01*
X4739893Y4059936D01*
X4103877Y3126739D02*
G01*
X4200397Y3029965D01*
X4379975Y3029965D01*
X4530090Y3180079D01*
X4530090Y3496818D01*
X4536693Y3503676D01*
X2586481Y3666236D02*
G01*
X2489961Y3569715D01*
X2489961Y3389884D01*
X2819908Y3059937D01*
X3059429Y3059937D01*
X3126231Y3126739D01*
X4739893Y4279900D02*
G01*
X4639818Y4279900D01*
X4439920Y4080002D01*
X4439920Y3600450D01*
X4536693Y3503676D01*
X2933954Y3233420D02*
G01*
X3000502Y3299968D01*
X3210052Y3299968D01*
X3299968Y3210052D01*
X3299968Y2910078D01*
X3389884Y2819907D01*
X3629913Y2819907D01*
X3709924Y2899918D01*
X3709924Y2999994D01*
X2490033Y4279910D02*
G01*
X3509992Y3259950D01*
X3509992Y3130077D01*
X3953002Y4489490D02*
G01*
X3963502Y4499990D01*
X4079991Y4499990D01*
X4169991Y4409991D01*
X4319991Y4409991D01*
X4350004Y4529988D02*
G01*
X4349998Y4529993D01*
X4169991Y4529993D01*
X4083497Y4616493D01*
X3952999Y4616493D01*
X3479993Y4769990D02*
G01*
X3379492Y4870490D01*
X3246983Y4870490D01*
X2939999Y4739995D02*
G01*
X2943496Y4743493D01*
X3246983Y4743493D01*
X2939999Y4619980D02*
G01*
X2943486Y4616493D01*
X3246983Y4616493D01*
X4073906Y5183378D02*
G01*
X3990340Y5100065D01*
X3269995Y5100065D01*
X3006090Y4836160D01*
X2693415Y4836160D01*
X3599941Y5579871D02*
G01*
X3601720Y5489955D01*
X3952999Y4743493D02*
G01*
X4046486Y4743493D01*
X4140004Y4649978D01*
X4259986Y4649978D01*
X3569995Y4859985D02*
G01*
X3569995Y4619985D01*
X3839977Y4350004D01*
X4109976Y4350004D01*
X4390130Y4069842D01*
X4439914Y4069842D01*
X3709924Y5279897D02*
G01*
X3709924Y5409945D01*
X3629913Y5489955D01*
X3420109Y5489955D01*
X3359911Y5430012D01*
X3119881Y5430012D01*
X2940050Y5249926D01*
X2940050Y5129021D01*
X2965704Y5103368D01*
X2430018Y4709921D02*
G01*
X2519934Y4710429D01*
X2369995Y4139991D02*
G01*
X2450091Y4059895D01*
X2490033Y4059895D01*
X2759994Y4469991D02*
G01*
X2759994Y4769528D01*
X2693316Y4836205D01*
X3979925Y4169918D02*
G01*
X3930141Y4169918D01*
X3483609Y4616450D01*
X3246881Y4616450D01*
X3219958Y4169918D02*
G01*
X3219958Y4299965D01*
X3299968Y4379976D01*
X3480054Y4379976D01*
X3490020Y2999973D02*
G01*
X3509992Y3019945D01*
X3509992Y3149993D01*
X3689992Y3329993D01*
X4229991Y3329993D01*
X4296194Y3263790D01*
X4296194Y3233397D01*
X4616554Y4645599D02*
G01*
X4444382Y4645599D01*
X4079991Y5009989D01*
X4079991Y5177165D01*
X4073784Y5183372D01*
X3154423Y5216649D02*
G01*
X3150108Y5212334D01*
X3150108Y5100065D01*
X2970027Y4919979D01*
X2880108Y4919979D01*
X2759969Y5039865D01*
X2670050Y5039865D01*
X2519934Y4890007D01*
X2519934Y4710506D01*
X2519934Y4710429D02*
G01*
X2586736Y4643881D01*
X2489961Y4279900D02*
G01*
X2489961Y4530089D01*
X2586736Y4626610D01*
X2586736Y4643881D01*
D11*
X3953002Y4870450D02*
G01*
X4069588Y4870450D01*
X4169918Y4769865D01*
D12*
G01*
X3219958Y4169918D03*
G01*
X3979925Y4169918D03*
D13*
G01*
X4614129Y5307488D03*
D14*
G01*
X4085851Y5612490D03*
D15*
G01*
X5051633Y4661324D03*
D16*
G01*
X4728380Y5178637D03*
D17*
G01*
X5100065Y3864914D03*
D18*
G01*
X5100065Y4474921D03*
D19*
G01*
X4776790Y3150810D03*
D20*
G01*
X5063169Y3689410D03*
D21*
G01*
X4118538Y2692793D03*
D22*
G01*
X4641414Y3006967D03*
D17*
G01*
X3294938Y2640076D03*
D23*
G01*
X3904945Y2640076D03*
D24*
G01*
X2585741Y3002380D03*
D25*
G01*
X3114019Y2697378D03*
D26*
G01*
X2162008Y3656643D03*
D27*
G01*
X2457744Y3123121D03*
D17*
G01*
X2100072Y4474921D03*
D18*
G01*
X2100072Y3864914D03*
D28*
G01*
X2462376Y5184118D03*
D29*
G01*
X2157374Y4655840D03*
D30*
G01*
X3116639Y5607851D03*
D31*
G01*
X2583117Y5312114D03*
D17*
G01*
X3904995Y5669988D03*
D23*
G01*
X3294989Y5669988D03*
D32*
G01*
X3246932Y4870450D03*
G01*
X3246932Y4743450D03*
G01*
X3246932Y4616450D03*
G01*
X3246932Y4489450D03*
G01*
X3952951Y4870450D03*
G01*
X3952951Y4743450D03*
G01*
X3952951Y4616450D03*
G01*
X3952951Y4489450D03*
D33*
G01*
X3154305Y5216664D03*
G01*
X2965715Y5103347D03*
D34*
G01*
X4266214Y5076706D03*
G01*
X4073785Y5183371D03*
D35*
G01*
X4616554Y4645597D03*
G01*
X4503237Y4834187D03*
D36*
G01*
X4739995Y4059910D03*
G01*
X4739995Y4279925D03*
D37*
G01*
X4536794Y3503716D03*
G01*
X4643459Y3696145D03*
D38*
G01*
X4103766Y3126731D03*
G01*
X4296195Y3233395D03*
D39*
G01*
X3490010Y2999968D03*
G01*
X3710025Y2999968D03*
D40*
G01*
X2933832Y3233390D03*
G01*
X3126261Y3126726D03*
D41*
G01*
X2586564Y3666164D03*
G01*
X2693229Y3473735D03*
D36*
G01*
X2490038Y4279900D03*
G01*
X2490038Y4059885D03*
D42*
G01*
X2693315Y4836205D03*
G01*
X2586650Y4643776D03*
D39*
G01*
X3710025Y5279897D03*
G01*
X3490010Y5279897D03*
D43*
G01*
X3899992Y5699988D03*
G01*
X4319981Y4409998D03*
G01*
X4350004Y4529988D03*
G01*
X4259986Y4649978D03*
G01*
X4169994Y4769993D03*
G01*
X3480003Y4769993D03*
G01*
X2939999Y4739995D03*
G01*
X2939999Y4619980D03*
G01*
X3599992Y5579998D03*
G01*
X3299993Y5189981D03*
G01*
X3569995Y4859985D03*
G01*
X2429992Y4709998D03*
G01*
X2369997Y4139996D03*
G01*
X2759989Y4469993D03*
G01*
X3480003Y4380001D03*
G01*
X4889982Y5039995D03*
G01*
X2969996Y4439996D03*
G01*
X2910001Y4289983D03*
G01*
X4889982Y4889982D03*
M02*
