G04 Layer: TopPasteMaskLayer*
G04 EasyEDA v6.5.42, 2024-04-15 10:04:03*
G04 35ccfcd0ecce4f4f936ce021b9bc61d8,ed70181f279245e6aff80281ee7dc86a,10*
G04 Gerber Generator version 0.2*
G04 Scale: 100 percent, Rotated: No, Reflected: No *
G04 Dimensions in millimeters *
G04 leading zeros omitted , absolute positions ,4 integer and 5 decimal *
%FSLAX45Y45*%
%MOMM*%

%AMMACRO1*21,1,$1,$2,0,0,$3*%
%ADD10R,1.4000X1.5000*%
%ADD11MACRO1,1.199X1.199X-119.9978*%
%ADD12MACRO1,1.2X1.7999X149.9889*%
%ADD13MACRO1,1.1989X1.1987X-148.0036*%
%ADD14MACRO1,1.2002X1.8X122.0015*%
%ADD15R,1.1989X1.1989*%
%ADD16R,1.8000X1.2000*%
%ADD17MACRO1,1.1988X1.1988X151.9961*%
%ADD18MACRO1,1.2001X1.8X62.0031*%
%ADD19MACRO1,1.1989X1.1989X120.9991*%
%ADD20MACRO1,1.2001X1.7999X30.9950*%
%ADD21R,1.2000X1.8000*%
%ADD22MACRO1,1.199X1.199X60.0022*%
%ADD23MACRO1,1.2002X1.8X-30.0051*%
%ADD24MACRO1,1.1989X1.1991X29.0086*%
%ADD25MACRO1,1.2001X1.7999X-60.9937*%
%ADD26MACRO1,1.199X1.199X-29.9978*%
%ADD27MACRO1,1.2001X1.8003X-119.9946*%
%ADD28MACRO1,1.1989X1.1991X-60.9914*%
%ADD29MACRO1,1.1999X1.7999X-151.0043*%
%ADD30O,2.2500082X0.6299962*%
%ADD31MACRO1,1.0001X1.2501X-148.9988*%
%ADD32MACRO1,1.0001X1.2498X-148.9988*%
%ADD33MACRO1,1X1.2498X150.9935*%
%ADD34MACRO1,1X1.25X150.9935*%
%ADD35MACRO1,1.0001X1.2498X121.0012*%
%ADD36MACRO1,0.9999X1.25X121.0087*%
%ADD37R,1.2500X1.0000*%
%ADD38MACRO1,0.9998X1.25X61.0062*%
%ADD39MACRO1,1X1.25X60.9935*%
%ADD40MACRO1,1X1.25X29.0065*%
%ADD41MACRO1,0.9998X1.25X28.9938*%
%ADD42R,1.0000X1.2500*%
%ADD43MACRO1,1.0001X1.2502X-28.9868*%
%ADD44MACRO1,1.0002X1.25X-28.9995*%
%ADD45MACRO1,1.0002X1.2498X-61.0005*%
%ADD46MACRO1,1.0002X1.25X-118.9995*%

%LPD*%
D10*
G01*
X3219958Y4169918D03*
G01*
X3979925Y4169918D03*
D11*
G01*
X4614138Y5307482D03*
D12*
G01*
X4085844Y5612485D03*
D13*
G01*
X5051628Y4661319D03*
D14*
G01*
X4728387Y5178628D03*
D15*
G01*
X5100065Y3864914D03*
D16*
G01*
X5100065Y4474921D03*
D17*
G01*
X4776787Y3150806D03*
D18*
G01*
X5063172Y3689413D03*
D19*
G01*
X4118546Y2692793D03*
D20*
G01*
X4641418Y3006966D03*
D15*
G01*
X3294938Y2640076D03*
D21*
G01*
X3904945Y2640076D03*
D22*
G01*
X2585745Y3002381D03*
D23*
G01*
X3114014Y2697378D03*
D24*
G01*
X2162009Y3656634D03*
D25*
G01*
X2457742Y3123120D03*
D15*
G01*
X2100072Y4474921D03*
D16*
G01*
X2100072Y3864914D03*
D26*
G01*
X2462377Y5184114D03*
D27*
G01*
X2157374Y4655845D03*
D28*
G01*
X3116630Y5607850D03*
D29*
G01*
X2583116Y5312105D03*
D15*
G01*
X3904995Y5669988D03*
D21*
G01*
X3294989Y5669988D03*
D30*
G01*
X3246932Y4870450D03*
G01*
X3246932Y4743450D03*
G01*
X3246932Y4616450D03*
G01*
X3246932Y4489450D03*
G01*
X3952951Y4870450D03*
G01*
X3952951Y4743450D03*
G01*
X3952951Y4616450D03*
G01*
X3952951Y4489450D03*
D31*
G01*
X3154311Y5216664D03*
D32*
G01*
X2965716Y5103342D03*
D33*
G01*
X4266209Y5076710D03*
D34*
G01*
X4073791Y5183365D03*
D35*
G01*
X4616551Y4645596D03*
D36*
G01*
X4503242Y4834191D03*
D37*
G01*
X4739995Y4059910D03*
G01*
X4739995Y4279925D03*
D38*
G01*
X4536795Y3503714D03*
D39*
G01*
X4643462Y3696144D03*
D40*
G01*
X4103763Y3126727D03*
D41*
G01*
X4296194Y3233394D03*
D42*
G01*
X3490010Y2999968D03*
G01*
X3710025Y2999968D03*
D43*
G01*
X2933826Y3233381D03*
D44*
G01*
X3126257Y3126727D03*
D45*
G01*
X2586570Y3666172D03*
G01*
X2693225Y3473742D03*
D37*
G01*
X2490038Y4279900D03*
G01*
X2490038Y4059885D03*
D46*
G01*
X2693327Y4836210D03*
G01*
X2586647Y4643780D03*
D42*
G01*
X3710025Y5279897D03*
G01*
X3490010Y5279897D03*
M02*
