G04 Layer: BottomSilkscreenLayer*
G04 EasyEDA v6.5.42, 2024-03-03 20:16:13*
G04 2dd346860b7e4ad097e02c02aa15ffe7,ed70181f279245e6aff80281ee7dc86a,10*
G04 Gerber Generator version 0.2*
G04 Scale: 100 percent, Rotated: No, Reflected: No *
G04 Dimensions in millimeters *
G04 leading zeros omitted , absolute positions ,4 integer and 5 decimal *
%FSLAX45Y45*%
%MOMM*%

%ADD10C,0.1524*%
%ADD11C,0.2540*%
%ADD12C,0.2000*%

%LPD*%
G36*
X3628593Y2880309D02*
G01*
X3625900Y2879648D01*
X3624376Y2876854D01*
X3624427Y2482342D01*
X3626104Y2480310D01*
X3630117Y2480310D01*
X3632454Y2481783D01*
X3632809Y2676144D01*
X3634740Y2677363D01*
X3792931Y2677414D01*
X3795115Y2678785D01*
X3795115Y2683560D01*
X3793236Y2685389D01*
X3632809Y2685796D01*
X3632809Y2875889D01*
X3631387Y2879699D01*
G37*
G36*
X3692804Y2841345D02*
G01*
X3690518Y2840634D01*
X3688587Y2838297D01*
X3688587Y2814218D01*
X3665575Y2813761D01*
X3663391Y2810764D01*
X3663391Y2807563D01*
X3665220Y2805734D01*
X3686200Y2805734D01*
X3688587Y2803347D01*
X3688587Y2782366D01*
X3690467Y2780538D01*
X3694328Y2780538D01*
X3696665Y2782011D01*
X3697122Y2804566D01*
X3698951Y2805684D01*
X3721862Y2805734D01*
X3724046Y2807106D01*
X3724046Y2811881D01*
X3722166Y2813761D01*
X3697020Y2814218D01*
X3697020Y2836926D01*
X3695598Y2840736D01*
G37*
G36*
X3523132Y2814066D02*
G01*
X3470656Y2813761D01*
X3468471Y2810764D01*
X3468471Y2807563D01*
X3470300Y2805734D01*
X3524656Y2805734D01*
X3526536Y2806954D01*
X3526790Y2809900D01*
X3526586Y2812643D01*
G37*
G36*
X3562096Y2813913D02*
G01*
X3559810Y2813151D01*
X3557930Y2810764D01*
X3557930Y2685796D01*
X3397300Y2685389D01*
X3395116Y2682443D01*
X3395116Y2679242D01*
X3396945Y2677363D01*
X3555492Y2677363D01*
X3557930Y2674975D01*
X3557930Y2548585D01*
X3559759Y2546756D01*
X3563620Y2546756D01*
X3565956Y2548229D01*
X3566363Y2807614D01*
X3565448Y2812694D01*
G37*
G36*
X3610356Y3130042D02*
G01*
X3603244Y3129788D01*
X3596589Y3129026D01*
X3590442Y3127756D01*
X3584803Y3126028D01*
X3579672Y3123895D01*
X3574948Y3121304D01*
X3570782Y3118256D01*
X3567023Y3114852D01*
X3563721Y3111093D01*
X3560927Y3106928D01*
X3558540Y3102457D01*
X3556609Y3097682D01*
X3555085Y3092602D01*
X3554069Y3087217D01*
X3553409Y3081578D01*
X3553206Y3075686D01*
X3553307Y3071774D01*
X3554323Y3064154D01*
X3555187Y3060395D01*
X3557828Y3052826D01*
X3561689Y3045053D01*
X3566820Y3036824D01*
X3573272Y3027984D01*
X3581247Y3018282D01*
X3590747Y3007512D01*
X3601821Y2995472D01*
X3650742Y2944622D01*
X3544570Y2944622D01*
X3544570Y2921000D01*
X3670300Y2921000D01*
X3670300Y2940050D01*
X3634486Y2980537D01*
X3618636Y2998876D01*
X3608882Y3010712D01*
X3600602Y3021736D01*
X3593744Y3032048D01*
X3590848Y3037027D01*
X3588308Y3041904D01*
X3586124Y3046679D01*
X3582771Y3056026D01*
X3581603Y3060649D01*
X3580790Y3065221D01*
X3580282Y3069793D01*
X3580129Y3074416D01*
X3580434Y3080766D01*
X3581298Y3086760D01*
X3582771Y3092297D01*
X3584752Y3097377D01*
X3587242Y3102000D01*
X3590239Y3106064D01*
X3593693Y3109620D01*
X3597605Y3112566D01*
X3601974Y3114954D01*
X3606749Y3116681D01*
X3611930Y3117748D01*
X3617468Y3118104D01*
X3625037Y3117545D01*
X3633978Y3116072D01*
X3640074Y3093720D01*
X3643223Y3084728D01*
X3647033Y3078734D01*
X3651554Y3075432D01*
X3656837Y3074416D01*
X3661511Y3075076D01*
X3665677Y3076905D01*
X3669131Y3079902D01*
X3671824Y3083814D01*
X3670757Y3089402D01*
X3669182Y3094634D01*
X3667150Y3099511D01*
X3664661Y3103981D01*
X3661816Y3108147D01*
X3658514Y3111957D01*
X3654856Y3115360D01*
X3650894Y3118459D01*
X3646627Y3121152D01*
X3642055Y3123539D01*
X3637229Y3125520D01*
X3632200Y3127146D01*
X3626967Y3128416D01*
X3621582Y3129330D01*
X3616045Y3129838D01*
G37*
G36*
X3302508Y3130042D02*
G01*
X3296005Y3129788D01*
X3289808Y3129127D01*
X3283965Y3128010D01*
X3278479Y3126435D01*
X3273298Y3124454D01*
X3268573Y3122117D01*
X3264204Y3119374D01*
X3260191Y3116275D01*
X3256686Y3112820D01*
X3253536Y3109010D01*
X3250844Y3104896D01*
X3248660Y3100476D01*
X3246882Y3095752D01*
X3245612Y3090773D01*
X3244850Y3085490D01*
X3244596Y3080004D01*
X3244900Y3074263D01*
X3245866Y3068726D01*
X3247390Y3063443D01*
X3249574Y3058363D01*
X3252368Y3053588D01*
X3255721Y3049066D01*
X3259632Y3044901D01*
X3264153Y3041040D01*
X3269234Y3037484D01*
X3274872Y3034334D01*
X3281070Y3031591D01*
X3287776Y3029204D01*
X3279648Y3027324D01*
X3272282Y3024886D01*
X3265627Y3021939D01*
X3259734Y3018434D01*
X3254552Y3014472D01*
X3250133Y3010052D01*
X3246374Y3005175D01*
X3243326Y2999892D01*
X3240989Y2994253D01*
X3239312Y2988208D01*
X3238296Y2981807D01*
X3237992Y2975102D01*
X3238296Y2968904D01*
X3239262Y2963011D01*
X3240836Y2957322D01*
X3242970Y2951886D01*
X3245662Y2946806D01*
X3248914Y2942031D01*
X3252673Y2937611D01*
X3256940Y2933598D01*
X3261715Y2929940D01*
X3266897Y2926689D01*
X3272536Y2923844D01*
X3278581Y2921508D01*
X3285032Y2919679D01*
X3291890Y2918307D01*
X3299053Y2917494D01*
X3306572Y2917190D01*
X3314039Y2917444D01*
X3321100Y2918256D01*
X3327806Y2919628D01*
X3334105Y2921558D01*
X3339896Y2924098D01*
X3345230Y2927248D01*
X3350056Y2931007D01*
X3354324Y2935427D01*
X3357981Y2940456D01*
X3361080Y2946146D01*
X3363518Y2952546D01*
X3365246Y2959608D01*
X3362451Y2963926D01*
X3358997Y2966923D01*
X3355035Y2968701D01*
X3350514Y2969260D01*
X3344316Y2968091D01*
X3339846Y2964484D01*
X3336493Y2958236D01*
X3328670Y2931160D01*
X3324148Y2930042D01*
X3319729Y2929331D01*
X3311144Y2928874D01*
X3304032Y2929280D01*
X3297478Y2930448D01*
X3291484Y2932328D01*
X3286048Y2934919D01*
X3281222Y2938119D01*
X3276955Y2941980D01*
X3273348Y2946400D01*
X3270351Y2951378D01*
X3268014Y2956864D01*
X3266287Y2962757D01*
X3265271Y2969107D01*
X3264915Y2975864D01*
X3265271Y2982772D01*
X3266236Y2989173D01*
X3267913Y2995066D01*
X3270250Y3000502D01*
X3273196Y3005328D01*
X3276854Y3009646D01*
X3281172Y3013354D01*
X3286099Y3016453D01*
X3291687Y3018891D01*
X3297936Y3020618D01*
X3304844Y3021736D01*
X3312414Y3022092D01*
X3326892Y3022092D01*
X3326892Y3035808D01*
X3314954Y3035808D01*
X3308299Y3036112D01*
X3302101Y3037078D01*
X3296412Y3038652D01*
X3291179Y3040837D01*
X3286455Y3043580D01*
X3282340Y3046933D01*
X3278733Y3050844D01*
X3275736Y3055315D01*
X3273399Y3060344D01*
X3271672Y3065881D01*
X3270605Y3071926D01*
X3270250Y3078480D01*
X3270554Y3084576D01*
X3271418Y3090214D01*
X3272790Y3095396D01*
X3274771Y3100019D01*
X3277260Y3104184D01*
X3280257Y3107842D01*
X3283762Y3110941D01*
X3287725Y3113481D01*
X3292195Y3115462D01*
X3297174Y3116935D01*
X3302508Y3117799D01*
X3308350Y3118104D01*
X3315157Y3117697D01*
X3323082Y3116326D01*
X3328162Y3098546D01*
X3330854Y3090265D01*
X3334308Y3084525D01*
X3339033Y3081121D01*
X3345434Y3080004D01*
X3349955Y3080562D01*
X3353866Y3082391D01*
X3357168Y3085693D01*
X3359658Y3090672D01*
X3357879Y3096971D01*
X3355441Y3102762D01*
X3352342Y3107944D01*
X3348634Y3112617D01*
X3344367Y3116732D01*
X3339541Y3120288D01*
X3334308Y3123234D01*
X3328619Y3125724D01*
X3322523Y3127603D01*
X3316122Y3128975D01*
X3309467Y3129788D01*
G37*
G36*
X3148076Y3130042D02*
G01*
X3144062Y3129889D01*
X3140100Y3129432D01*
X3136138Y3128670D01*
X3132277Y3127603D01*
X3128416Y3126181D01*
X3124657Y3124403D01*
X3120948Y3122269D01*
X3117392Y3119831D01*
X3113938Y3116986D01*
X3110585Y3113786D01*
X3107385Y3110230D01*
X3104337Y3106216D01*
X3101441Y3101848D01*
X3098749Y3097072D01*
X3096209Y3091891D01*
X3093923Y3086252D01*
X3091840Y3080156D01*
X3090011Y3073654D01*
X3088386Y3066745D01*
X3087065Y3059328D01*
X3085998Y3051403D01*
X3085236Y3043072D01*
X3084728Y3034233D01*
X3084576Y3024886D01*
X3111754Y3024886D01*
X3112262Y3045358D01*
X3112871Y3054451D01*
X3113735Y3062833D01*
X3114802Y3070453D01*
X3116072Y3077413D01*
X3117545Y3083661D01*
X3119221Y3089351D01*
X3120999Y3094380D01*
X3122980Y3098850D01*
X3125063Y3102762D01*
X3127298Y3106166D01*
X3129635Y3109061D01*
X3132074Y3111500D01*
X3134563Y3113481D01*
X3137154Y3115005D01*
X3139846Y3116173D01*
X3142538Y3116986D01*
X3145282Y3117443D01*
X3148076Y3117596D01*
X3150971Y3117443D01*
X3153867Y3116986D01*
X3156712Y3116173D01*
X3159506Y3115005D01*
X3162198Y3113481D01*
X3164840Y3111500D01*
X3167329Y3109061D01*
X3169767Y3106166D01*
X3172053Y3102762D01*
X3174187Y3098850D01*
X3176219Y3094380D01*
X3178048Y3089351D01*
X3179724Y3083661D01*
X3181248Y3077413D01*
X3182569Y3070453D01*
X3183636Y3062833D01*
X3184499Y3054451D01*
X3185160Y3045358D01*
X3185668Y3024886D01*
X3185160Y3003702D01*
X3184499Y2994253D01*
X3183636Y2985617D01*
X3182569Y2977743D01*
X3181248Y2970530D01*
X3179724Y2964027D01*
X3178048Y2958185D01*
X3176219Y2952953D01*
X3174187Y2948330D01*
X3172053Y2944266D01*
X3169767Y2940710D01*
X3167329Y2937713D01*
X3164840Y2935224D01*
X3162198Y2933141D01*
X3159506Y2931566D01*
X3156712Y2930347D01*
X3153867Y2929483D01*
X3150971Y2929026D01*
X3148076Y2928874D01*
X3145282Y2929026D01*
X3142538Y2929534D01*
X3139846Y2930347D01*
X3137154Y2931566D01*
X3134563Y2933192D01*
X3132074Y2935274D01*
X3129635Y2937764D01*
X3127298Y2940812D01*
X3125063Y2944317D01*
X3122980Y2948381D01*
X3120999Y2953054D01*
X3119221Y2958287D01*
X3117545Y2964129D01*
X3116072Y2970631D01*
X3114802Y2977845D01*
X3113735Y2985719D01*
X3112871Y2994355D01*
X3112262Y3003753D01*
X3111754Y3024886D01*
X3084576Y3024886D01*
X3084728Y3015284D01*
X3085236Y3006191D01*
X3085998Y2997555D01*
X3087065Y2989478D01*
X3088386Y2981858D01*
X3090011Y2974746D01*
X3091840Y2968040D01*
X3093923Y2961843D01*
X3096209Y2956102D01*
X3098749Y2950768D01*
X3101441Y2945892D01*
X3104337Y2941421D01*
X3107385Y2937357D01*
X3110585Y2933700D01*
X3113938Y2930448D01*
X3117392Y2927553D01*
X3120948Y2925064D01*
X3124657Y2922930D01*
X3128416Y2921101D01*
X3132277Y2919679D01*
X3136138Y2918561D01*
X3140100Y2917799D01*
X3144062Y2917342D01*
X3148076Y2917190D01*
X3152190Y2917342D01*
X3156305Y2917799D01*
X3160318Y2918561D01*
X3164332Y2919679D01*
X3168243Y2921101D01*
X3172104Y2922930D01*
X3175812Y2925064D01*
X3179470Y2927553D01*
X3182975Y2930448D01*
X3186379Y2933700D01*
X3189630Y2937357D01*
X3192729Y2941421D01*
X3195624Y2945892D01*
X3198368Y2950768D01*
X3200908Y2956102D01*
X3203194Y2961843D01*
X3205276Y2968040D01*
X3207156Y2974746D01*
X3208782Y2981858D01*
X3210102Y2989478D01*
X3211169Y2997555D01*
X3211931Y3006191D01*
X3212439Y3015284D01*
X3212592Y3024886D01*
X3212439Y3034233D01*
X3211931Y3043072D01*
X3211169Y3051403D01*
X3210102Y3059328D01*
X3208782Y3066745D01*
X3207156Y3073654D01*
X3205276Y3080156D01*
X3203194Y3086252D01*
X3200908Y3091891D01*
X3198368Y3097072D01*
X3195624Y3101848D01*
X3192729Y3106216D01*
X3189630Y3110230D01*
X3186379Y3113786D01*
X3182975Y3116986D01*
X3179470Y3119831D01*
X3175812Y3122269D01*
X3172104Y3124403D01*
X3168243Y3126181D01*
X3164332Y3127603D01*
X3160318Y3128670D01*
X3156305Y3129432D01*
X3152190Y3129889D01*
G37*
G36*
X3416046Y3128772D02*
G01*
X3416046Y3100070D01*
X3440684Y3100070D01*
X3508248Y3002534D01*
X3440684Y3002534D01*
X3440684Y3100070D01*
X3416046Y3100070D01*
X3416046Y3002534D01*
X3383787Y3002534D01*
X3383787Y2984754D01*
X3416046Y2984754D01*
X3416046Y2921000D01*
X3440684Y2921000D01*
X3440684Y2984754D01*
X3523742Y2984754D01*
X3523742Y2999486D01*
X3433064Y3128772D01*
G37*
G36*
X4074414Y3125724D02*
G01*
X4074414Y3115056D01*
X4103115Y3112008D01*
X4103573Y3064916D01*
X4103573Y2973781D01*
X4103115Y2934208D01*
X4032758Y2934208D01*
X4022598Y2978658D01*
X4006850Y2978658D01*
X4008882Y2921000D01*
X4160774Y2921000D01*
X4160774Y2931668D01*
X4132072Y2934716D01*
X4131665Y2968498D01*
X4131564Y3058109D01*
X4132072Y3112008D01*
X4160774Y3115056D01*
X4160774Y3125724D01*
G37*
G36*
X3898646Y3125724D02*
G01*
X3898646Y3115056D01*
X3927094Y3112008D01*
X3927500Y3078530D01*
X3927601Y2988818D01*
X3927094Y2934970D01*
X3898646Y2931668D01*
X3898646Y2921000D01*
X3984751Y2921000D01*
X3984751Y2931668D01*
X3956304Y2934716D01*
X3955694Y2968193D01*
X3955542Y3051251D01*
X3955745Y3085185D01*
X3956304Y3112008D01*
X3984751Y3115056D01*
X3984751Y3125724D01*
G37*
G36*
X3785362Y3125724D02*
G01*
X3776929Y3125470D01*
X3768902Y3124809D01*
X3761384Y3123692D01*
X3754374Y3122117D01*
X3747770Y3120085D01*
X3741724Y3117697D01*
X3736187Y3114852D01*
X3731209Y3111601D01*
X3726738Y3107944D01*
X3722827Y3103930D01*
X3719474Y3099511D01*
X3716731Y3094736D01*
X3714546Y3089605D01*
X3712972Y3084118D01*
X3712006Y3078276D01*
X3711714Y3072384D01*
X3740404Y3072384D01*
X3740708Y3078734D01*
X3741623Y3084626D01*
X3743198Y3090011D01*
X3745433Y3094837D01*
X3748278Y3099206D01*
X3751783Y3102965D01*
X3755948Y3106216D01*
X3760774Y3108909D01*
X3766312Y3111042D01*
X3772560Y3112566D01*
X3779520Y3113481D01*
X3787140Y3113786D01*
X3813556Y3113786D01*
X3814114Y3086557D01*
X3814318Y3028188D01*
X3789426Y3028188D01*
X3781602Y3028594D01*
X3774440Y3029712D01*
X3767937Y3031540D01*
X3762146Y3033979D01*
X3757066Y3037078D01*
X3752646Y3040786D01*
X3748887Y3044952D01*
X3745839Y3049625D01*
X3743451Y3054756D01*
X3741775Y3060293D01*
X3740759Y3066186D01*
X3740404Y3072384D01*
X3711714Y3072384D01*
X3712057Y3066237D01*
X3713175Y3060446D01*
X3715004Y3054858D01*
X3717544Y3049524D01*
X3720846Y3044444D01*
X3724859Y3039668D01*
X3729583Y3035300D01*
X3735070Y3031337D01*
X3741267Y3027832D01*
X3748227Y3024835D01*
X3755898Y3022396D01*
X3764279Y3020568D01*
X3757422Y3018637D01*
X3751376Y3015996D01*
X3746042Y3012592D01*
X3741318Y3008426D01*
X3737203Y3003296D01*
X3733596Y2997250D01*
X3730447Y2990138D01*
X3727704Y2981960D01*
X3713479Y2933954D01*
X3689604Y2931668D01*
X3689604Y2921000D01*
X3694379Y2919679D01*
X3699814Y2918714D01*
X3705961Y2918155D01*
X3712718Y2917952D01*
X3719372Y2918206D01*
X3725113Y2919018D01*
X3730040Y2920390D01*
X3734104Y2922371D01*
X3737457Y2925064D01*
X3740150Y2928467D01*
X3742232Y2932582D01*
X3743706Y2937510D01*
X3756406Y2986024D01*
X3758895Y2994456D01*
X3761892Y3001264D01*
X3765550Y3006598D01*
X3770020Y3010611D01*
X3775303Y3013405D01*
X3781704Y3015234D01*
X3789222Y3016199D01*
X3798062Y3016504D01*
X3814318Y3016504D01*
X3814216Y2974898D01*
X3813556Y2934970D01*
X3785108Y2931668D01*
X3785108Y2921000D01*
X3871214Y2921000D01*
X3871214Y2931668D01*
X3842765Y2934716D01*
X3842308Y2974949D01*
X3842308Y3064865D01*
X3842765Y3112008D01*
X3871214Y3115056D01*
X3871214Y3125724D01*
G37*
G36*
X3862832Y3727450D02*
G01*
X3857447Y3727094D01*
X3852214Y3726027D01*
X3847084Y3724249D01*
X3842258Y3721811D01*
X3837686Y3718712D01*
X3833520Y3714902D01*
X3829812Y3710482D01*
X3826611Y3705402D01*
X3824020Y3699713D01*
X3822039Y3693363D01*
X3820820Y3686454D01*
X3820414Y3678936D01*
X3834892Y3678936D01*
X3835298Y3687013D01*
X3836568Y3694785D01*
X3838651Y3701948D01*
X3841597Y3708349D01*
X3845509Y3713683D01*
X3850335Y3717798D01*
X3856075Y3720439D01*
X3862832Y3721354D01*
X3867454Y3720947D01*
X3871620Y3719728D01*
X3875379Y3717798D01*
X3878732Y3715207D01*
X3881628Y3712057D01*
X3884168Y3708349D01*
X3886301Y3704183D01*
X3888028Y3699662D01*
X3889349Y3694785D01*
X3890264Y3689654D01*
X3890822Y3684371D01*
X3891026Y3678936D01*
X3890822Y3673449D01*
X3890264Y3668115D01*
X3889349Y3662934D01*
X3888028Y3658057D01*
X3886301Y3653485D01*
X3884168Y3649319D01*
X3881628Y3645611D01*
X3878732Y3642410D01*
X3875379Y3639820D01*
X3871620Y3637889D01*
X3867454Y3636670D01*
X3862832Y3636264D01*
X3858209Y3636670D01*
X3854043Y3637889D01*
X3850335Y3639820D01*
X3847033Y3642410D01*
X3844086Y3645611D01*
X3841597Y3649319D01*
X3839514Y3653485D01*
X3837838Y3658057D01*
X3836568Y3662934D01*
X3835603Y3668115D01*
X3835095Y3673449D01*
X3834892Y3678936D01*
X3820414Y3678936D01*
X3820820Y3671519D01*
X3822039Y3664661D01*
X3823970Y3658362D01*
X3826560Y3652621D01*
X3829710Y3647541D01*
X3833418Y3643020D01*
X3837584Y3639159D01*
X3842105Y3635959D01*
X3846982Y3633470D01*
X3852113Y3631641D01*
X3857396Y3630523D01*
X3862832Y3630168D01*
X3868267Y3630523D01*
X3873550Y3631590D01*
X3878681Y3633317D01*
X3883558Y3635756D01*
X3888079Y3638854D01*
X3892245Y3642664D01*
X3895953Y3647084D01*
X3899103Y3652164D01*
X3901694Y3657904D01*
X3903624Y3664305D01*
X3904843Y3671315D01*
X3905250Y3678936D01*
X3904843Y3686251D01*
X3903624Y3693007D01*
X3901694Y3699256D01*
X3899103Y3704945D01*
X3895953Y3710025D01*
X3892245Y3714546D01*
X3888079Y3718407D01*
X3883558Y3721608D01*
X3878681Y3724097D01*
X3873550Y3725976D01*
X3868267Y3727094D01*
G37*
G36*
X3727450Y3727450D02*
G01*
X3721150Y3727145D01*
X3714496Y3726027D01*
X3707637Y3723894D01*
X3700779Y3720592D01*
X3700526Y3700272D01*
X3708146Y3700272D01*
X3711701Y3717798D01*
X3715258Y3719423D01*
X3718814Y3720541D01*
X3722370Y3721150D01*
X3725926Y3721354D01*
X3730599Y3721049D01*
X3735070Y3720134D01*
X3739337Y3718610D01*
X3743299Y3716528D01*
X3746906Y3713784D01*
X3750208Y3710533D01*
X3753104Y3706672D01*
X3755542Y3702253D01*
X3757523Y3697224D01*
X3758996Y3691686D01*
X3759911Y3685590D01*
X3760215Y3678936D01*
X3759911Y3672230D01*
X3759098Y3666083D01*
X3757726Y3660495D01*
X3755847Y3655466D01*
X3753510Y3650996D01*
X3750767Y3647135D01*
X3747566Y3643833D01*
X3744010Y3641140D01*
X3740048Y3639007D01*
X3735832Y3637483D01*
X3731260Y3636568D01*
X3726434Y3636264D01*
X3722420Y3636467D01*
X3718407Y3637076D01*
X3714445Y3638194D01*
X3710432Y3639820D01*
X3706876Y3657346D01*
X3699256Y3657346D01*
X3699510Y3636772D01*
X3706114Y3633825D01*
X3713022Y3631742D01*
X3720134Y3630574D01*
X3727450Y3630168D01*
X3734257Y3630574D01*
X3740658Y3631793D01*
X3746601Y3633724D01*
X3752138Y3636365D01*
X3757117Y3639718D01*
X3761536Y3643680D01*
X3765397Y3648252D01*
X3768648Y3653434D01*
X3771239Y3659124D01*
X3773119Y3665270D01*
X3774287Y3671874D01*
X3774694Y3678936D01*
X3774287Y3685794D01*
X3773068Y3692296D01*
X3771137Y3698392D01*
X3768496Y3704031D01*
X3765194Y3709162D01*
X3761282Y3713784D01*
X3756761Y3717747D01*
X3751783Y3721150D01*
X3746296Y3723843D01*
X3740404Y3725824D01*
X3734104Y3727043D01*
G37*
G36*
X3305556Y3727450D02*
G01*
X3297326Y3727043D01*
X3290062Y3725722D01*
X3283559Y3723589D01*
X3277615Y3720592D01*
X3277362Y3700018D01*
X3284982Y3700018D01*
X3288284Y3717290D01*
X3291941Y3719118D01*
X3295802Y3720388D01*
X3299764Y3721100D01*
X3304032Y3721354D01*
X3308908Y3721049D01*
X3313582Y3720084D01*
X3317900Y3718509D01*
X3321913Y3716324D01*
X3325571Y3713581D01*
X3328822Y3710228D01*
X3331667Y3706368D01*
X3334054Y3701897D01*
X3335985Y3696919D01*
X3337407Y3691432D01*
X3338271Y3685438D01*
X3338576Y3678936D01*
X3338322Y3672433D01*
X3337458Y3666439D01*
X3336137Y3660901D01*
X3334308Y3655923D01*
X3331972Y3651453D01*
X3329178Y3647490D01*
X3325926Y3644137D01*
X3322269Y3641344D01*
X3318205Y3639159D01*
X3313785Y3637534D01*
X3308959Y3636568D01*
X3303778Y3636264D01*
X3299714Y3636467D01*
X3295802Y3636975D01*
X3288029Y3639058D01*
X3288284Y3670554D01*
X3303015Y3671570D01*
X3303015Y3676396D01*
X3266948Y3676396D01*
X3266948Y3671570D01*
X3275329Y3671062D01*
X3275584Y3638296D01*
X3282797Y3634892D01*
X3290112Y3632352D01*
X3297732Y3630726D01*
X3305810Y3630168D01*
X3312617Y3630574D01*
X3318967Y3631793D01*
X3324961Y3633774D01*
X3330397Y3636467D01*
X3335375Y3639870D01*
X3339795Y3643884D01*
X3343605Y3648506D01*
X3346805Y3653637D01*
X3349396Y3659327D01*
X3351276Y3665423D01*
X3352393Y3671976D01*
X3352800Y3678936D01*
X3352393Y3685794D01*
X3351225Y3692296D01*
X3349345Y3698392D01*
X3346754Y3704031D01*
X3343503Y3709162D01*
X3339642Y3713784D01*
X3335223Y3717747D01*
X3330244Y3721150D01*
X3324707Y3723843D01*
X3318764Y3725824D01*
X3312363Y3727043D01*
G37*
G36*
X2973070Y3727450D02*
G01*
X2966415Y3726942D01*
X2960420Y3725468D01*
X2955036Y3723182D01*
X2950210Y3720084D01*
X2950972Y3701796D01*
X2958338Y3701796D01*
X2961894Y3718560D01*
X2964535Y3719829D01*
X2967177Y3720744D01*
X2970022Y3721201D01*
X2973070Y3721354D01*
X2980842Y3720337D01*
X2987040Y3717239D01*
X2991154Y3712159D01*
X2992628Y3705098D01*
X2991561Y3699052D01*
X2988462Y3694176D01*
X2983534Y3690213D01*
X2976880Y3687064D01*
X2964891Y3681984D01*
X2959506Y3679088D01*
X2955086Y3676040D01*
X2951632Y3672789D01*
X2949041Y3669233D01*
X2947263Y3665423D01*
X2946247Y3661206D01*
X2945892Y3656584D01*
X2946501Y3650691D01*
X2948279Y3645509D01*
X2951175Y3640988D01*
X2955036Y3637178D01*
X2959811Y3634181D01*
X2965399Y3631996D01*
X2971698Y3630625D01*
X2978658Y3630168D01*
X2986379Y3630726D01*
X2993644Y3632352D01*
X3000146Y3634689D01*
X3005582Y3637534D01*
X3004820Y3657092D01*
X2997708Y3657092D01*
X2994152Y3639820D01*
X2990799Y3638194D01*
X2987344Y3637076D01*
X2983636Y3636467D01*
X2979420Y3636264D01*
X2970276Y3637381D01*
X2963316Y3640734D01*
X2958896Y3646119D01*
X2957322Y3653536D01*
X2958287Y3659581D01*
X2961436Y3664305D01*
X2966872Y3668318D01*
X2974848Y3672078D01*
X2985109Y3676396D01*
X2989783Y3678986D01*
X2993948Y3681831D01*
X2997403Y3684981D01*
X3000248Y3688537D01*
X3002330Y3692499D01*
X3003600Y3696919D01*
X3004058Y3701796D01*
X3003448Y3707587D01*
X3001670Y3712667D01*
X2998876Y3717036D01*
X2995117Y3720693D01*
X2990596Y3723640D01*
X2985312Y3725722D01*
X2979420Y3726992D01*
G37*
G36*
X3459734Y3727196D02*
G01*
X3453942Y3726789D01*
X3448761Y3725570D01*
X3444240Y3723589D01*
X3440429Y3720896D01*
X3437382Y3717594D01*
X3435146Y3713683D01*
X3433775Y3709263D01*
X3433318Y3704336D01*
X3434638Y3696919D01*
X3438448Y3690416D01*
X3444697Y3685082D01*
X3453129Y3681222D01*
X3447694Y3679901D01*
X3443071Y3677970D01*
X3439160Y3675583D01*
X3436010Y3672636D01*
X3433572Y3669284D01*
X3431895Y3665524D01*
X3430879Y3661359D01*
X3430524Y3656837D01*
X3431082Y3651351D01*
X3432759Y3646271D01*
X3435451Y3641801D01*
X3439058Y3637940D01*
X3443579Y3634740D01*
X3448862Y3632403D01*
X3454857Y3630929D01*
X3461512Y3630422D01*
X3466541Y3630676D01*
X3471214Y3631539D01*
X3475431Y3632962D01*
X3479139Y3635044D01*
X3482289Y3637686D01*
X3484930Y3641039D01*
X3486861Y3645052D01*
X3488182Y3649726D01*
X3486912Y3651707D01*
X3485337Y3653028D01*
X3483559Y3653790D01*
X3481578Y3654044D01*
X3478784Y3653536D01*
X3476701Y3651961D01*
X3475177Y3649218D01*
X3471672Y3636772D01*
X3467506Y3635959D01*
X3463544Y3635756D01*
X3454704Y3637330D01*
X3448202Y3641750D01*
X3444138Y3648506D01*
X3442715Y3657092D01*
X3443071Y3661714D01*
X3444036Y3665829D01*
X3445713Y3669436D01*
X3448100Y3672484D01*
X3451098Y3674922D01*
X3454806Y3676700D01*
X3459226Y3677818D01*
X3464306Y3678174D01*
X3470910Y3678174D01*
X3470910Y3684270D01*
X3465322Y3684270D01*
X3456889Y3685590D01*
X3450488Y3689400D01*
X3446424Y3695496D01*
X3445001Y3703828D01*
X3446170Y3711600D01*
X3449523Y3717239D01*
X3454958Y3720693D01*
X3462274Y3721862D01*
X3465525Y3721658D01*
X3469132Y3720846D01*
X3472637Y3709162D01*
X3474212Y3706469D01*
X3476345Y3704844D01*
X3479292Y3704336D01*
X3481273Y3704590D01*
X3483051Y3705402D01*
X3484524Y3706926D01*
X3485642Y3709162D01*
X3482289Y3717137D01*
X3476498Y3722725D01*
X3468776Y3726078D01*
G37*
G36*
X4124706Y3725164D02*
G01*
X4124706Y3720337D01*
X4137660Y3719068D01*
X4137914Y3666185D01*
X4137660Y3638296D01*
X4124706Y3637026D01*
X4124706Y3632200D01*
X4162551Y3632200D01*
X4162551Y3637026D01*
X4150614Y3638296D01*
X4150106Y3712210D01*
X4181601Y3632200D01*
X4187444Y3632200D01*
X4219956Y3711956D01*
X4219194Y3682746D01*
X4219194Y3638804D01*
X4207256Y3637026D01*
X4207256Y3632200D01*
X4238244Y3632200D01*
X4238244Y3637026D01*
X4225798Y3638804D01*
X4225544Y3718814D01*
X4238244Y3720337D01*
X4238244Y3725164D01*
X4212844Y3725164D01*
X4181601Y3647948D01*
X4151376Y3725164D01*
G37*
G36*
X4072890Y3725164D02*
G01*
X4072890Y3720337D01*
X4085844Y3719068D01*
X4086098Y3666185D01*
X4085844Y3638550D01*
X4072890Y3637026D01*
X4072890Y3632200D01*
X4112006Y3632200D01*
X4112006Y3637026D01*
X4099051Y3638296D01*
X4098798Y3691432D01*
X4099051Y3719068D01*
X4112006Y3720337D01*
X4112006Y3725164D01*
G37*
G36*
X3915156Y3725164D02*
G01*
X3915156Y3720337D01*
X3928110Y3719068D01*
X3928364Y3666185D01*
X3928110Y3638296D01*
X3915410Y3637026D01*
X3915410Y3632200D01*
X3953256Y3632200D01*
X3953256Y3637026D01*
X3941064Y3638296D01*
X3940810Y3665728D01*
X3940810Y3712210D01*
X3972051Y3632200D01*
X3978148Y3632200D01*
X4010660Y3711956D01*
X4009898Y3682746D01*
X4009898Y3638804D01*
X3997706Y3637026D01*
X3997706Y3632200D01*
X4028948Y3632200D01*
X4028948Y3637026D01*
X4016248Y3638804D01*
X4016248Y3718814D01*
X4028948Y3720337D01*
X4028948Y3725164D01*
X4003548Y3725164D01*
X3972051Y3647948D01*
X3942079Y3725164D01*
G37*
G36*
X3603498Y3725164D02*
G01*
X3603498Y3720337D01*
X3616706Y3718814D01*
X3640328Y3690112D01*
X3611626Y3638296D01*
X3600704Y3637026D01*
X3600704Y3632200D01*
X3636518Y3632200D01*
X3636518Y3637026D01*
X3624834Y3638296D01*
X3647948Y3681222D01*
X3661664Y3664458D01*
X3661410Y3638550D01*
X3648456Y3637026D01*
X3648456Y3632200D01*
X3687318Y3632200D01*
X3687318Y3637026D01*
X3674364Y3638296D01*
X3674110Y3691432D01*
X3674364Y3719068D01*
X3687318Y3720337D01*
X3687318Y3725164D01*
X3648201Y3725164D01*
X3648201Y3720337D01*
X3661410Y3719068D01*
X3661664Y3672586D01*
X3624326Y3718560D01*
X3635501Y3720337D01*
X3635501Y3725164D01*
G37*
G36*
X3219196Y3725164D02*
G01*
X3212592Y3724808D01*
X3206394Y3723792D01*
X3200654Y3722115D01*
X3195370Y3719779D01*
X3190646Y3716782D01*
X3186379Y3713175D01*
X3182721Y3708908D01*
X3179673Y3704031D01*
X3177235Y3698595D01*
X3175457Y3692550D01*
X3174339Y3685895D01*
X3173984Y3678682D01*
X3188462Y3678682D01*
X3188716Y3685133D01*
X3189427Y3691077D01*
X3190646Y3696462D01*
X3192322Y3701338D01*
X3194456Y3705606D01*
X3197047Y3709365D01*
X3200095Y3712514D01*
X3203549Y3715156D01*
X3207410Y3717188D01*
X3211728Y3718661D01*
X3216402Y3719525D01*
X3221482Y3719829D01*
X3233420Y3719829D01*
X3233674Y3661918D01*
X3233420Y3637787D01*
X3222498Y3637787D01*
X3217164Y3638092D01*
X3212287Y3639058D01*
X3207867Y3640582D01*
X3203854Y3642664D01*
X3200298Y3645357D01*
X3197199Y3648608D01*
X3194558Y3652367D01*
X3192373Y3656685D01*
X3190697Y3661460D01*
X3189427Y3666744D01*
X3188716Y3672484D01*
X3188462Y3678682D01*
X3173984Y3678682D01*
X3174390Y3671519D01*
X3175609Y3664915D01*
X3177540Y3658870D01*
X3180232Y3653434D01*
X3183534Y3648557D01*
X3187496Y3644290D01*
X3192018Y3640632D01*
X3197047Y3637635D01*
X3202584Y3635298D01*
X3208578Y3633571D01*
X3214979Y3632555D01*
X3221736Y3632200D01*
X3259582Y3632200D01*
X3259582Y3637026D01*
X3246628Y3638296D01*
X3246424Y3657041D01*
X3246628Y3719068D01*
X3259582Y3720337D01*
X3259582Y3725164D01*
G37*
G36*
X3057144Y3725164D02*
G01*
X3049625Y3724757D01*
X3043021Y3723538D01*
X3037281Y3721557D01*
X3032455Y3718763D01*
X3028645Y3715308D01*
X3025902Y3711143D01*
X3024174Y3706266D01*
X3023641Y3701034D01*
X3036570Y3701034D01*
X3037840Y3709009D01*
X3041700Y3714902D01*
X3048355Y3718560D01*
X3057906Y3719829D01*
X3069844Y3719829D01*
X3070098Y3680968D01*
X3058922Y3680968D01*
X3049117Y3682492D01*
X3042107Y3686708D01*
X3037941Y3693058D01*
X3036570Y3701034D01*
X3023641Y3701034D01*
X3023971Y3696817D01*
X3025089Y3693007D01*
X3026968Y3689451D01*
X3029559Y3686149D01*
X3032912Y3683203D01*
X3037027Y3680764D01*
X3041853Y3678783D01*
X3047492Y3677412D01*
X3041599Y3675329D01*
X3037027Y3671874D01*
X3033471Y3666845D01*
X3030728Y3659886D01*
X3024378Y3638042D01*
X3013456Y3637026D01*
X3013456Y3632200D01*
X3018231Y3631285D01*
X3024124Y3630929D01*
X3029712Y3631387D01*
X3033776Y3632911D01*
X3036468Y3635654D01*
X3038094Y3639820D01*
X3043936Y3661664D01*
X3046425Y3668674D01*
X3050082Y3672941D01*
X3055366Y3675075D01*
X3062732Y3675634D01*
X3070098Y3675634D01*
X3069844Y3638550D01*
X3056890Y3637026D01*
X3056890Y3632200D01*
X3096006Y3632200D01*
X3096006Y3637026D01*
X3083052Y3638296D01*
X3082798Y3691432D01*
X3083052Y3719068D01*
X3096006Y3720337D01*
X3096006Y3725164D01*
G37*
G36*
X3527551Y3712464D02*
G01*
X3527551Y3681476D01*
X3498342Y3681476D01*
X3498342Y3674872D01*
X3527551Y3674872D01*
X3527551Y3643122D01*
X3534664Y3643122D01*
X3534664Y3674872D01*
X3563874Y3674872D01*
X3563874Y3681476D01*
X3534664Y3681476D01*
X3534664Y3712464D01*
G37*
G36*
X3486861Y3422904D02*
G01*
X3480663Y3413760D01*
X3473551Y3404514D01*
X3465779Y3395370D01*
X3457448Y3386531D01*
X3448761Y3378301D01*
X3439871Y3370834D01*
X3446475Y3359912D01*
X3456178Y3367786D01*
X3465474Y3376523D01*
X3473805Y3385464D01*
X3480765Y3393948D01*
X3480765Y3234944D01*
X3493211Y3234944D01*
X3493211Y3393948D01*
X3500221Y3385464D01*
X3508552Y3376523D01*
X3517849Y3367786D01*
X3527501Y3359912D01*
X3534105Y3370834D01*
X3525265Y3378301D01*
X3516579Y3386531D01*
X3508197Y3395370D01*
X3500374Y3404514D01*
X3493211Y3413760D01*
G37*
G36*
X3265678Y3422904D02*
G01*
X3259378Y3413760D01*
X3252165Y3404514D01*
X3244342Y3395370D01*
X3236010Y3386531D01*
X3227273Y3378301D01*
X3218434Y3370834D01*
X3225038Y3359912D01*
X3234740Y3367786D01*
X3243986Y3376523D01*
X3252368Y3385464D01*
X3259328Y3393948D01*
X3259328Y3234944D01*
X3271774Y3234944D01*
X3271774Y3393948D01*
X3278733Y3385464D01*
X3287115Y3376523D01*
X3296361Y3367786D01*
X3306064Y3359912D01*
X3312668Y3370834D01*
X3303828Y3378301D01*
X3295142Y3386531D01*
X3286810Y3395370D01*
X3278987Y3404514D01*
X3271875Y3413760D01*
G37*
D10*
X3092246Y4906924D02*
G01*
X3081832Y4912258D01*
X3071418Y4922672D01*
X3066338Y4932832D01*
X3066338Y4953660D01*
X3071418Y4964074D01*
X3081832Y4974488D01*
X3092246Y4979822D01*
X3107994Y4984902D01*
X3133902Y4984902D01*
X3149396Y4979822D01*
X3159810Y4974488D01*
X3170224Y4964074D01*
X3175304Y4953660D01*
X3175304Y4932832D01*
X3170224Y4922672D01*
X3159810Y4912258D01*
X3149396Y4906924D01*
X3092246Y4867554D02*
G01*
X3087166Y4867554D01*
X3076752Y4862220D01*
X3071418Y4857140D01*
X3066338Y4846726D01*
X3066338Y4825898D01*
X3071418Y4815484D01*
X3076752Y4810404D01*
X3087166Y4805070D01*
X3097580Y4805070D01*
X3107994Y4810404D01*
X3123488Y4820818D01*
X3175304Y4872634D01*
X3175304Y4799990D01*
X2794767Y4979997D02*
G01*
X2903870Y4979997D01*
X2794767Y4979997D02*
G01*
X2794767Y4933238D01*
X2799961Y4917653D01*
X2805158Y4912456D01*
X2815549Y4907262D01*
X2825940Y4907262D01*
X2836331Y4912456D01*
X2841525Y4917653D01*
X2846720Y4933238D01*
X2846720Y4979997D01*
X2846720Y4943629D02*
G01*
X2903870Y4907262D01*
X2794767Y4810625D02*
G01*
X2794767Y4862581D01*
X2841525Y4867775D01*
X2836331Y4862581D01*
X2831134Y4846993D01*
X2831134Y4831407D01*
X2836331Y4815822D01*
X2846720Y4805431D01*
X2862308Y4800234D01*
X2872699Y4800234D01*
X2888284Y4805431D01*
X2898675Y4815822D01*
X2903870Y4831407D01*
X2903870Y4846993D01*
X2898675Y4862581D01*
X2893481Y4867775D01*
X2883090Y4872972D01*
X4109996Y5755330D02*
G01*
X4109996Y5646364D01*
X4109996Y5755330D02*
G01*
X4073674Y5755330D01*
X4057926Y5750250D01*
X4047766Y5739836D01*
X4042432Y5729422D01*
X4037350Y5713674D01*
X4037352Y5687766D01*
X4042432Y5672272D01*
X4047766Y5661858D01*
X4057926Y5651444D01*
X4073674Y5646364D01*
X4109996Y5646364D01*
X4003062Y5734502D02*
G01*
X3992648Y5739836D01*
X3976900Y5755330D01*
X3976900Y5646364D01*
X4470151Y5262915D02*
G01*
X4444471Y5134495D01*
X4521520Y5211546D02*
G01*
X4470151Y5262915D01*
X4444471Y5134495D02*
G01*
X4393102Y5185864D01*
X4445909Y5287162D02*
G01*
X4368858Y5210111D01*
X4445909Y5287162D02*
G01*
X4420041Y5313022D01*
X4405495Y5320388D01*
X4390768Y5320388D01*
X4379810Y5316616D01*
X4364906Y5309250D01*
X4346587Y5290931D01*
X4339402Y5276204D01*
X4335627Y5265247D01*
X4335630Y5250520D01*
X4342991Y5235973D01*
X4368858Y5210111D01*
X4355386Y5348223D02*
G01*
X4351797Y5359364D01*
X4351794Y5381271D01*
X4274743Y5304223D01*
X3223275Y5511820D02*
G01*
X3224115Y5523494D01*
X3229632Y5537151D01*
X3237001Y5545795D01*
X3256170Y5553933D01*
X3267743Y5553323D01*
X3281398Y5547812D01*
X3290379Y5540303D01*
X3301207Y5527794D01*
X3311329Y5503946D01*
X3312708Y5487700D01*
X3311867Y5476029D01*
X3306348Y5462374D01*
X3298751Y5453628D01*
X3279576Y5445490D01*
X3268240Y5446199D01*
X3254585Y5451713D01*
X3245606Y5459216D01*
X3189729Y5503100D02*
G01*
X3178055Y5503938D01*
X3157740Y5512150D01*
X3200316Y5411845D01*
X4109991Y5485305D02*
G01*
X4109991Y5376339D01*
X4109991Y5485305D02*
G01*
X4063255Y5485305D01*
X4047761Y5480225D01*
X4042427Y5474891D01*
X4037347Y5464477D01*
X4037347Y5454063D01*
X4042427Y5443649D01*
X4047761Y5438569D01*
X4063255Y5433489D01*
X4109991Y5433489D01*
X4073669Y5433489D02*
G01*
X4037347Y5376339D01*
X4003057Y5464477D02*
G01*
X3992643Y5469811D01*
X3976895Y5485305D01*
X3976895Y5376339D01*
X4139813Y5273624D02*
G01*
X4139813Y5164658D01*
X4139813Y5273624D02*
G01*
X4093077Y5273624D01*
X4077583Y5268544D01*
X4072249Y5263210D01*
X4067169Y5252796D01*
X4067169Y5242382D01*
X4072249Y5231968D01*
X4077583Y5226888D01*
X4093077Y5221808D01*
X4139813Y5221808D01*
X4103491Y5221808D02*
G01*
X4067169Y5164658D01*
X4027545Y5247716D02*
G01*
X4027545Y5252796D01*
X4022465Y5263210D01*
X4017131Y5268544D01*
X4006717Y5273624D01*
X3986143Y5273624D01*
X3975729Y5268544D01*
X3970395Y5263210D01*
X3965315Y5252796D01*
X3965315Y5242382D01*
X3970395Y5231968D01*
X3980809Y5216474D01*
X4032879Y5164658D01*
X3959981Y5164658D01*
X4139986Y5065295D02*
G01*
X4139986Y4956329D01*
X4139986Y5065295D02*
G01*
X4093250Y5065295D01*
X4077756Y5060215D01*
X4072422Y5054881D01*
X4067342Y5044467D01*
X4067342Y5034053D01*
X4072422Y5023639D01*
X4077756Y5018559D01*
X4093250Y5013479D01*
X4139986Y5013479D01*
X4103664Y5013479D02*
G01*
X4067342Y4956329D01*
X4022638Y5065295D02*
G01*
X3965488Y5065295D01*
X3996476Y5023639D01*
X3980982Y5023639D01*
X3970568Y5018559D01*
X3965488Y5013479D01*
X3960154Y4997731D01*
X3960154Y4987317D01*
X3965488Y4971823D01*
X3975902Y4961409D01*
X3991396Y4956329D01*
X4006890Y4956329D01*
X4022638Y4961409D01*
X4027718Y4966489D01*
X4033052Y4976903D01*
X2524686Y4980002D02*
G01*
X2633652Y4980002D01*
X2524686Y4980002D02*
G01*
X2524686Y4933266D01*
X2529766Y4917772D01*
X2535100Y4912438D01*
X2545514Y4907358D01*
X2555928Y4907358D01*
X2566342Y4912438D01*
X2571422Y4917772D01*
X2576502Y4933266D01*
X2576502Y4980002D01*
X2576502Y4943680D02*
G01*
X2633652Y4907358D01*
X2524686Y4820998D02*
G01*
X2597330Y4873068D01*
X2597330Y4795090D01*
X2524686Y4820998D02*
G01*
X2633652Y4820998D01*
X3306333Y4974483D02*
G01*
X3415299Y4974483D01*
X3306333Y4974483D02*
G01*
X3306333Y4927747D01*
X3311413Y4912253D01*
X3316747Y4906919D01*
X3327161Y4901839D01*
X3337575Y4901839D01*
X3347989Y4906919D01*
X3353069Y4912253D01*
X3358149Y4927747D01*
X3358149Y4974483D01*
X3358149Y4938161D02*
G01*
X3415299Y4901839D01*
X3321827Y4805065D02*
G01*
X3311413Y4810399D01*
X3306333Y4825893D01*
X3306333Y4836307D01*
X3311413Y4851801D01*
X3327161Y4862215D01*
X3353069Y4867549D01*
X3378977Y4867549D01*
X3399805Y4862215D01*
X3410219Y4851801D01*
X3415299Y4836307D01*
X3415299Y4830973D01*
X3410219Y4815479D01*
X3399805Y4805065D01*
X3384311Y4799985D01*
X3378977Y4799985D01*
X3363483Y4805065D01*
X3353069Y4815479D01*
X3347989Y4830973D01*
X3347989Y4836307D01*
X3353069Y4851801D01*
X3363483Y4862215D01*
X3378977Y4867549D01*
G36*
X3575812Y5810046D02*
G01*
X3575812Y5649925D01*
X3626612Y5649925D01*
X3626612Y5810046D01*
G37*
X3210354Y5371109D02*
G01*
X3210354Y5230108D01*
X3029633Y5230108D02*
G01*
X3029633Y5371109D01*
X3044873Y5386349D02*
G01*
X3195114Y5386349D01*
X3210354Y5008869D02*
G01*
X3210354Y5149870D01*
X3029633Y5149870D02*
G01*
X3029633Y5008869D01*
X3044873Y4993629D02*
G01*
X3195114Y4993629D01*
X2941703Y5142369D02*
G01*
X2941703Y5013876D01*
X2758285Y5013876D01*
X2758285Y5142369D01*
X2941703Y5237609D02*
G01*
X2941703Y5366103D01*
X2758285Y5366103D01*
X2758285Y5237609D01*
X3575811Y5647367D02*
G01*
X3744173Y5647367D01*
X3575811Y5812609D02*
G01*
X3744173Y5812609D01*
X3575811Y5647367D02*
G01*
X3575811Y5812609D01*
D11*
X4379782Y5407058D02*
G01*
X4507062Y5279783D01*
X4494469Y5518647D02*
G01*
X4618652Y5394464D01*
D12*
X4491009Y5408970D02*
G01*
X4491012Y5340720D01*
X4559259Y5408968D01*
X4494603Y5408970D01*
X4442515Y5374845D02*
G01*
X4521545Y5453867D01*
X4456884Y5443095D02*
G01*
X4548484Y5351498D01*
D10*
X2857964Y5622399D02*
G01*
X2987756Y5677491D01*
X3058370Y5511137D02*
G01*
X2928579Y5456041D01*
X2908594Y5464116D02*
G01*
X2849890Y5602411D01*
X3191408Y5763935D02*
G01*
X3061616Y5708840D01*
X3132231Y5542485D02*
G01*
X3262022Y5597578D01*
X3270097Y5617565D02*
G01*
X3211393Y5755860D01*
X3797612Y5521698D02*
G01*
X3926105Y5521698D01*
X3926105Y5338279D01*
X3797612Y5338279D01*
X3702372Y5521698D02*
G01*
X3573879Y5521698D01*
X3573879Y5338279D01*
X3702372Y5338279D01*
X3797612Y5311698D02*
G01*
X3926105Y5311698D01*
X3926105Y5128280D01*
X3797612Y5128280D01*
X3702372Y5311698D02*
G01*
X3573879Y5311698D01*
X3573879Y5128280D01*
X3702372Y5128280D01*
X3797612Y5101699D02*
G01*
X3926105Y5101699D01*
X3926105Y4918280D01*
X3797612Y4918280D01*
X3702372Y5101699D02*
G01*
X3573879Y5101699D01*
X3573879Y4918280D01*
X3702372Y4918280D01*
X2671704Y5142369D02*
G01*
X2671704Y5013876D01*
X2488285Y5013876D01*
X2488285Y5142369D01*
X2671704Y5237609D02*
G01*
X2671704Y5366103D01*
X2488285Y5366103D01*
X2488285Y5237609D01*
X3358283Y5237609D02*
G01*
X3358283Y5366103D01*
X3541702Y5366103D01*
X3541702Y5237609D01*
X3358283Y5142369D02*
G01*
X3358283Y5013876D01*
X3541702Y5013876D01*
X3541702Y5142369D01*
G75*
G01*
X3029633Y5371109D02*
G02*
X3044873Y5386349I15240J0D01*
G75*
G01*
X3195114Y5386349D02*
G02*
X3210354Y5371109I0J-15240D01*
G75*
G01*
X3029633Y5008870D02*
G03*
X3044873Y4993630I15240J0D01*
G75*
G01*
X3195114Y4993630D02*
G03*
X3210354Y5008870I0J15240D01*
G75*
G01*
X2928579Y5456042D02*
G02*
X2908595Y5464117I-5955J14028D01*
G75*
G01*
X2849890Y5602412D02*
G02*
X2857965Y5622399I14027J5958D01*
G75*
G01*
X3262023Y5597578D02*
G03*
X3270098Y5617566I-5953J14030D01*
G75*
G01*
X3211393Y5755861D02*
G03*
X3191408Y5763936I-14029J-5953D01*
M02*
