G04 Layer: BottomPasteMaskLayer*
G04 EasyEDA v6.5.42, 2024-03-03 14:11:30*
G04 83aee20a283747e8b3d018c67651a6c0,ed70181f279245e6aff80281ee7dc86a,10*
G04 Gerber Generator version 0.2*
G04 Scale: 100 percent, Rotated: No, Reflected: No *
G04 Dimensions in millimeters *
G04 leading zeros omitted , absolute positions ,4 integer and 5 decimal *
%FSLAX45Y45*%
%MOMM*%

%AMMACRO1*21,1,$1,$2,0,0,$3*%
%ADD10MACRO1,1.62X1.4402X-90.0000*%
%ADD11MACRO1,1.62X1.4399X-90.0000*%
%ADD12MACRO1,1.0999X1.7001X135.0000*%

%LPD*%
G36*
X3055874Y5360009D02*
G01*
X3050895Y5354980D01*
X3050895Y5239969D01*
X3055874Y5234990D01*
X3096869Y5234482D01*
X3096869Y5279491D01*
X3141878Y5279491D01*
X3141878Y5235498D01*
X3183890Y5234990D01*
X3188868Y5239969D01*
X3188868Y5354980D01*
X3183890Y5360009D01*
G37*
G36*
X3055874Y5144973D02*
G01*
X3050895Y5139994D01*
X3050895Y5024983D01*
X3055874Y5020005D01*
X3183890Y5020005D01*
X3188868Y5024983D01*
X3188868Y5139994D01*
X3183890Y5144973D01*
X3141878Y5144973D01*
X3141878Y5100472D01*
X3096869Y5100472D01*
X3096869Y5144465D01*
G37*
G36*
X3181858Y5738825D02*
G01*
X3075990Y5693918D01*
X3073349Y5687364D01*
X3088894Y5649417D01*
X3130296Y5666994D01*
X3147872Y5625592D01*
X3107385Y5608370D01*
X3123336Y5569508D01*
X3129889Y5566867D01*
X3235756Y5611825D01*
X3238398Y5618378D01*
X3188411Y5736183D01*
G37*
G36*
X2983941Y5654852D02*
G01*
X2878074Y5609894D01*
X2875432Y5603341D01*
X2925419Y5485536D01*
X2931972Y5482844D01*
X3037840Y5527802D01*
X3040481Y5534355D01*
X3024073Y5573014D01*
X2983128Y5555640D01*
X2965551Y5597042D01*
X3006039Y5614263D01*
X2990494Y5652211D01*
G37*
G36*
X3585006Y5468975D02*
G01*
X3579977Y5463997D01*
X3579977Y5335981D01*
X3585006Y5331002D01*
X3699967Y5331002D01*
X3704996Y5335981D01*
X3705504Y5376976D01*
X3660495Y5376976D01*
X3660495Y5421985D01*
X3704488Y5421985D01*
X3704996Y5463997D01*
X3699967Y5468975D01*
G37*
G36*
X3799992Y5468975D02*
G01*
X3795014Y5463997D01*
X3795014Y5421985D01*
X3839514Y5421985D01*
X3839514Y5376976D01*
X3795471Y5376976D01*
X3795014Y5335981D01*
X3799992Y5331002D01*
X3915003Y5331002D01*
X3919982Y5335981D01*
X3919982Y5463997D01*
X3915003Y5468975D01*
G37*
G36*
X3585006Y5288991D02*
G01*
X3579977Y5284012D01*
X3579977Y5155996D01*
X3585006Y5150967D01*
X3699967Y5150967D01*
X3704996Y5155996D01*
X3705504Y5196992D01*
X3660495Y5196992D01*
X3660495Y5242001D01*
X3704488Y5242001D01*
X3704996Y5284012D01*
X3699967Y5288991D01*
G37*
G36*
X3799992Y5288991D02*
G01*
X3795014Y5284012D01*
X3795014Y5242001D01*
X3839514Y5242001D01*
X3839514Y5196992D01*
X3795471Y5196992D01*
X3795014Y5155996D01*
X3799992Y5150967D01*
X3915003Y5150967D01*
X3919982Y5155996D01*
X3919982Y5284012D01*
X3915003Y5288991D01*
G37*
G36*
X3585006Y5109006D02*
G01*
X3579977Y5103977D01*
X3579977Y4976012D01*
X3585006Y4970983D01*
X3699967Y4970983D01*
X3704996Y4976012D01*
X3705504Y5017008D01*
X3660495Y5017008D01*
X3660495Y5062016D01*
X3704488Y5062016D01*
X3704996Y5103977D01*
X3699967Y5109006D01*
G37*
G36*
X3799992Y5109006D02*
G01*
X3795014Y5103977D01*
X3795014Y5062016D01*
X3839514Y5062016D01*
X3839514Y5017008D01*
X3795471Y5017008D01*
X3795014Y4976012D01*
X3799992Y4970983D01*
X3915003Y4970983D01*
X3919982Y4976012D01*
X3919982Y5103977D01*
X3915003Y5109006D01*
G37*
G36*
X2785973Y5360009D02*
G01*
X2780995Y5354980D01*
X2780995Y5239969D01*
X2785973Y5234990D01*
X2827020Y5234482D01*
X2827020Y5279491D01*
X2871978Y5279491D01*
X2871978Y5235498D01*
X2913989Y5234990D01*
X2919018Y5239969D01*
X2919018Y5354980D01*
X2913989Y5360009D01*
G37*
G36*
X2785973Y5144973D02*
G01*
X2780995Y5139994D01*
X2780995Y5024983D01*
X2785973Y5020005D01*
X2913989Y5020005D01*
X2919018Y5024983D01*
X2919018Y5139994D01*
X2913989Y5144973D01*
X2871978Y5144973D01*
X2871978Y5100472D01*
X2827020Y5100472D01*
X2827020Y5144465D01*
G37*
G36*
X3472992Y5145481D02*
G01*
X3472992Y5100472D01*
X3427984Y5100472D01*
X3427984Y5144516D01*
X3385972Y5144973D01*
X3380994Y5139994D01*
X3380994Y5024983D01*
X3385972Y5020005D01*
X3513988Y5020005D01*
X3518966Y5024983D01*
X3518966Y5139994D01*
X3513988Y5144973D01*
G37*
G36*
X3385972Y5360009D02*
G01*
X3380994Y5354980D01*
X3380994Y5239969D01*
X3385972Y5234990D01*
X3427984Y5234990D01*
X3427984Y5279491D01*
X3472992Y5279491D01*
X3472992Y5235498D01*
X3513988Y5234990D01*
X3518966Y5239969D01*
X3518966Y5354980D01*
X3513988Y5360009D01*
G37*
D10*
G01*
X3836492Y5729985D03*
D11*
G01*
X3483495Y5729985D03*
D12*
G01*
X4620196Y5279783D03*
G01*
X4379785Y5520194D03*
M02*
