G04 Layer: TopSilkscreenLayer*
G04 EasyEDA v6.5.42, 2024-03-03 14:11:30*
G04 83aee20a283747e8b3d018c67651a6c0,ed70181f279245e6aff80281ee7dc86a,10*
G04 Gerber Generator version 0.2*
G04 Scale: 100 percent, Rotated: No, Reflected: No *
G04 Dimensions in millimeters *
G04 leading zeros omitted , absolute positions ,4 integer and 5 decimal *
%FSLAX45Y45*%
%MOMM*%

%ADD10C,0.3000*%
%ADD11C,0.1524*%
%ADD12C,0.2540*%
%ADD13C,0.1520*%

%LPD*%
G36*
X3552342Y3950665D02*
G01*
X3552342Y3940860D01*
X3550107Y3940301D01*
X3549599Y3938574D01*
X3549548Y3926890D01*
X3547313Y3926281D01*
X3546805Y3924604D01*
X3546754Y3910025D01*
X3545027Y3910025D01*
X3543960Y3908958D01*
X3543960Y3898290D01*
X3542385Y3897629D01*
X3541318Y3895496D01*
X3541064Y3882034D01*
X3538880Y3881475D01*
X3538423Y3879748D01*
X3538321Y3867505D01*
X3536797Y3866794D01*
X3535578Y3864711D01*
X3535527Y3862527D01*
X3528568Y3862171D01*
X3527501Y3861257D01*
X3527501Y3859631D01*
X3522624Y3859631D01*
X3521506Y3858514D01*
X3521506Y3856837D01*
X3516782Y3856786D01*
X3514090Y3856075D01*
X3513328Y3853992D01*
X3509467Y3853992D01*
X3507892Y3853586D01*
X3507435Y3851198D01*
X3502456Y3851148D01*
X3500323Y3849928D01*
X3499662Y3848404D01*
X3495801Y3848354D01*
X3494074Y3847846D01*
X3493515Y3845610D01*
X3488740Y3845610D01*
X3487928Y3844747D01*
X3487928Y3842816D01*
X3481781Y3842715D01*
X3480054Y3842258D01*
X3479495Y3840022D01*
X3476701Y3840022D01*
X3476701Y3841953D01*
X3475837Y3842816D01*
X3473551Y3842816D01*
X3473551Y3844493D01*
X3472586Y3845255D01*
X3468319Y3845712D01*
X3468319Y3847592D01*
X3467455Y3848404D01*
X3465525Y3848404D01*
X3464915Y3850640D01*
X3463239Y3851148D01*
X3459937Y3851198D01*
X3459734Y3853840D01*
X3457143Y3854043D01*
X3456736Y3856380D01*
X3455162Y3856786D01*
X3451504Y3856837D01*
X3451301Y3859428D01*
X3448659Y3859682D01*
X3448659Y3861308D01*
X3447592Y3862425D01*
X3443122Y3862425D01*
X3442919Y3865067D01*
X3440277Y3865270D01*
X3440277Y3866946D01*
X3439160Y3868013D01*
X3436924Y3868013D01*
X3436264Y3869537D01*
X3434130Y3870756D01*
X3431895Y3870807D01*
X3431895Y3872788D01*
X3431032Y3873601D01*
X3428746Y3873601D01*
X3428746Y3875278D01*
X3427780Y3876090D01*
X3423462Y3876548D01*
X3423462Y3878376D01*
X3422650Y3879240D01*
X3420313Y3879240D01*
X3420313Y3880916D01*
X3419348Y3881678D01*
X3415080Y3882136D01*
X3414877Y3884676D01*
X3412286Y3884879D01*
X3411677Y3887063D01*
X3410000Y3887571D01*
X3406444Y3887622D01*
X3405682Y3889705D01*
X3403854Y3890162D01*
X3402025Y3889705D01*
X3401263Y3887673D01*
X3398418Y3887470D01*
X3398215Y3884879D01*
X3395624Y3884676D01*
X3395421Y3882085D01*
X3392830Y3881882D01*
X3392627Y3879291D01*
X3390036Y3879037D01*
X3389833Y3876446D01*
X3387242Y3876243D01*
X3386988Y3873652D01*
X3384397Y3873449D01*
X3384194Y3870858D01*
X3381603Y3870655D01*
X3381400Y3868064D01*
X3378809Y3867861D01*
X3378606Y3865270D01*
X3376015Y3865067D01*
X3375812Y3862476D01*
X3373221Y3862222D01*
X3373018Y3859631D01*
X3370427Y3859428D01*
X3370173Y3856837D01*
X3367633Y3856634D01*
X3367379Y3854043D01*
X3364788Y3853840D01*
X3364585Y3851249D01*
X3361994Y3851046D01*
X3361791Y3848455D01*
X3359200Y3848252D01*
X3358997Y3845661D01*
X3356406Y3845407D01*
X3356203Y3842867D01*
X3353612Y3842613D01*
X3353409Y3840022D01*
X3350818Y3839819D01*
X3350564Y3837228D01*
X3347974Y3837025D01*
X3347770Y3834434D01*
X3345179Y3834231D01*
X3344976Y3831640D01*
X3342386Y3831437D01*
X3342182Y3828796D01*
X3340506Y3828796D01*
X3339439Y3827678D01*
X3339439Y3821226D01*
X3340252Y3820414D01*
X3342132Y3820414D01*
X3342589Y3816096D01*
X3343351Y3815130D01*
X3345027Y3815130D01*
X3345027Y3812844D01*
X3345840Y3811981D01*
X3347821Y3811981D01*
X3347821Y3809492D01*
X3348837Y3807104D01*
X3350615Y3806647D01*
X3350615Y3804665D01*
X3351733Y3803599D01*
X3353409Y3803599D01*
X3353612Y3800957D01*
X3356254Y3800754D01*
X3356254Y3796284D01*
X3357321Y3795166D01*
X3358997Y3795166D01*
X3359200Y3792575D01*
X3361842Y3792321D01*
X3361842Y3788714D01*
X3362248Y3787140D01*
X3364585Y3786682D01*
X3364788Y3784142D01*
X3367430Y3783939D01*
X3367481Y3780637D01*
X3367989Y3778910D01*
X3370224Y3778351D01*
X3370224Y3776421D01*
X3371087Y3775557D01*
X3372916Y3775557D01*
X3373374Y3771239D01*
X3374186Y3770325D01*
X3375863Y3770325D01*
X3375863Y3767988D01*
X3376676Y3767175D01*
X3378657Y3767175D01*
X3378708Y3764889D01*
X3379927Y3762806D01*
X3381451Y3762095D01*
X3381451Y3759606D01*
X3382264Y3758742D01*
X3384194Y3758742D01*
X3384397Y3756151D01*
X3387039Y3755898D01*
X3387039Y3747566D01*
X3385362Y3747566D01*
X3384245Y3746449D01*
X3384245Y3741978D01*
X3382010Y3741369D01*
X3381501Y3739692D01*
X3381451Y3735832D01*
X3379927Y3735120D01*
X3378708Y3733037D01*
X3378657Y3727958D01*
X3376929Y3727958D01*
X3375863Y3726840D01*
X3375863Y3722420D01*
X3373475Y3721963D01*
X3373069Y3720388D01*
X3373018Y3713937D01*
X3371087Y3713937D01*
X3370224Y3713073D01*
X3370224Y3708298D01*
X3368548Y3708298D01*
X3367430Y3707231D01*
X3367430Y3702761D01*
X3365195Y3702151D01*
X3364687Y3700424D01*
X3364636Y3696563D01*
X3363112Y3695903D01*
X3361893Y3693769D01*
X3361842Y3691585D01*
X3352088Y3691280D01*
X3350971Y3690365D01*
X3350971Y3688791D01*
X3336086Y3688537D01*
X3334512Y3687622D01*
X3334105Y3685946D01*
X3323132Y3685743D01*
X3321050Y3684676D01*
X3320338Y3683101D01*
X3307740Y3683101D01*
X3306165Y3682695D01*
X3305708Y3680358D01*
X3291281Y3680104D01*
X3289706Y3679240D01*
X3289249Y3677513D01*
X3279698Y3677513D01*
X3278124Y3677056D01*
X3277717Y3674719D01*
X3275533Y3674160D01*
X3275025Y3672433D01*
X3274974Y3586124D01*
X3276092Y3585057D01*
X3277717Y3585057D01*
X3277971Y3582415D01*
X3283661Y3582212D01*
X3284118Y3580536D01*
X3285642Y3579672D01*
X3300171Y3579368D01*
X3300780Y3577183D01*
X3302457Y3576726D01*
X3316935Y3576624D01*
X3317392Y3574287D01*
X3318916Y3573830D01*
X3331006Y3573830D01*
X3331565Y3571595D01*
X3333292Y3571087D01*
X3347821Y3571036D01*
X3347821Y3569360D01*
X3348939Y3568242D01*
X3359048Y3568242D01*
X3359048Y3566261D01*
X3359861Y3565448D01*
X3361842Y3565448D01*
X3361893Y3560368D01*
X3363112Y3558235D01*
X3364636Y3557574D01*
X3364636Y3552545D01*
X3365754Y3551428D01*
X3367430Y3551428D01*
X3367430Y3546703D01*
X3368192Y3544011D01*
X3370224Y3543198D01*
X3370224Y3539337D01*
X3370681Y3537762D01*
X3373018Y3537356D01*
X3373018Y3532682D01*
X3373780Y3529990D01*
X3375863Y3529228D01*
X3375863Y3525316D01*
X3376269Y3523792D01*
X3378657Y3523335D01*
X3378708Y3518306D01*
X3379927Y3516223D01*
X3381451Y3515563D01*
X3381451Y3511346D01*
X3381857Y3509772D01*
X3384245Y3509314D01*
X3384245Y3500628D01*
X3382568Y3500628D01*
X3381806Y3499713D01*
X3381349Y3495395D01*
X3379470Y3495395D01*
X3378657Y3494532D01*
X3378657Y3492601D01*
X3376371Y3492042D01*
X3375914Y3490315D01*
X3375863Y3487013D01*
X3373221Y3486810D01*
X3373018Y3484270D01*
X3370681Y3483813D01*
X3370224Y3482238D01*
X3370224Y3478631D01*
X3367633Y3478428D01*
X3367379Y3475786D01*
X3365754Y3475786D01*
X3364636Y3474669D01*
X3364636Y3472434D01*
X3363112Y3471773D01*
X3361893Y3469640D01*
X3361842Y3467354D01*
X3359861Y3467354D01*
X3359048Y3466541D01*
X3359048Y3464306D01*
X3357219Y3463848D01*
X3356254Y3461461D01*
X3356254Y3458972D01*
X3354273Y3458972D01*
X3353409Y3458108D01*
X3353409Y3455822D01*
X3351784Y3455822D01*
X3350971Y3454857D01*
X3350514Y3450590D01*
X3347974Y3450386D01*
X3347770Y3447796D01*
X3345586Y3447186D01*
X3345078Y3445510D01*
X3345027Y3442208D01*
X3342386Y3442004D01*
X3342182Y3439414D01*
X3339846Y3439007D01*
X3339439Y3437432D01*
X3339439Y3431794D01*
X3340252Y3430930D01*
X3342182Y3430930D01*
X3342386Y3428339D01*
X3344976Y3428136D01*
X3345179Y3425545D01*
X3347770Y3425291D01*
X3347974Y3422700D01*
X3350564Y3422497D01*
X3350818Y3419906D01*
X3353409Y3419703D01*
X3353612Y3417112D01*
X3356203Y3416909D01*
X3356406Y3414318D01*
X3358997Y3414115D01*
X3359200Y3411524D01*
X3361791Y3411321D01*
X3361994Y3408730D01*
X3364585Y3408476D01*
X3364788Y3405936D01*
X3367379Y3405682D01*
X3367633Y3403092D01*
X3370173Y3402888D01*
X3370427Y3400298D01*
X3373018Y3400094D01*
X3373221Y3397504D01*
X3375812Y3397300D01*
X3376015Y3394710D01*
X3378606Y3394506D01*
X3378809Y3391915D01*
X3381400Y3391712D01*
X3381603Y3389122D01*
X3384194Y3388868D01*
X3384397Y3386277D01*
X3386988Y3386074D01*
X3387242Y3383483D01*
X3389833Y3383279D01*
X3390036Y3380689D01*
X3392627Y3380486D01*
X3392830Y3377895D01*
X3395421Y3377692D01*
X3395624Y3375101D01*
X3398215Y3374898D01*
X3398418Y3372307D01*
X3401060Y3372053D01*
X3401060Y3370173D01*
X3401872Y3369310D01*
X3407206Y3369360D01*
X3408883Y3369868D01*
X3409492Y3372104D01*
X3411423Y3372104D01*
X3412286Y3372967D01*
X3412286Y3374898D01*
X3415588Y3374999D01*
X3417315Y3375456D01*
X3417874Y3377742D01*
X3419805Y3377742D01*
X3420668Y3378555D01*
X3420668Y3380536D01*
X3423158Y3380536D01*
X3425545Y3381501D01*
X3426002Y3383330D01*
X3428237Y3383330D01*
X3429050Y3384143D01*
X3429050Y3386074D01*
X3431692Y3386277D01*
X3431895Y3388918D01*
X3436620Y3388918D01*
X3437483Y3389782D01*
X3437483Y3391712D01*
X3439769Y3391763D01*
X3441852Y3392982D01*
X3442563Y3394557D01*
X3444798Y3394557D01*
X3445865Y3395624D01*
X3445865Y3397300D01*
X3448507Y3397504D01*
X3448710Y3400145D01*
X3452368Y3400145D01*
X3453942Y3400551D01*
X3454349Y3402888D01*
X3456940Y3403092D01*
X3457143Y3405733D01*
X3460394Y3405784D01*
X3462121Y3406292D01*
X3462731Y3408527D01*
X3464661Y3408527D01*
X3465474Y3409391D01*
X3465474Y3411220D01*
X3469792Y3411677D01*
X3470757Y3412490D01*
X3470757Y3414166D01*
X3474415Y3414166D01*
X3475126Y3412591D01*
X3477209Y3411372D01*
X3479698Y3411321D01*
X3480460Y3409289D01*
X3483203Y3408527D01*
X3485438Y3408527D01*
X3485438Y3406851D01*
X3486404Y3406089D01*
X3490671Y3405632D01*
X3491077Y3403346D01*
X3492652Y3402939D01*
X3496310Y3402939D01*
X3496310Y3401212D01*
X3497427Y3400145D01*
X3502253Y3400145D01*
X3502253Y3398520D01*
X3503117Y3397707D01*
X3506317Y3397707D01*
X3507181Y3398520D01*
X3507181Y3400145D01*
X3509467Y3400145D01*
X3510330Y3400958D01*
X3510330Y3405733D01*
X3512261Y3405733D01*
X3513124Y3406597D01*
X3513124Y3411270D01*
X3515512Y3411728D01*
X3515918Y3413251D01*
X3515918Y3419754D01*
X3517900Y3419754D01*
X3518712Y3420567D01*
X3518712Y3425342D01*
X3520440Y3425342D01*
X3521506Y3426460D01*
X3521506Y3431286D01*
X3523183Y3431286D01*
X3524097Y3432403D01*
X3524402Y3439363D01*
X3526282Y3439363D01*
X3527145Y3440176D01*
X3527145Y3444951D01*
X3529380Y3445510D01*
X3529888Y3447237D01*
X3529939Y3453384D01*
X3531920Y3453384D01*
X3532733Y3454196D01*
X3532733Y3458870D01*
X3535121Y3459327D01*
X3535527Y3460902D01*
X3535527Y3465118D01*
X3537051Y3465779D01*
X3538270Y3467912D01*
X3538321Y3472992D01*
X3540048Y3472992D01*
X3541115Y3474059D01*
X3541115Y3478580D01*
X3543401Y3479139D01*
X3543858Y3480866D01*
X3543960Y3486962D01*
X3545890Y3486962D01*
X3546754Y3487826D01*
X3546754Y3492500D01*
X3549142Y3492957D01*
X3549548Y3494532D01*
X3549548Y3500983D01*
X3551529Y3500983D01*
X3552342Y3501847D01*
X3552342Y3506622D01*
X3554069Y3506622D01*
X3555136Y3507689D01*
X3555136Y3512565D01*
X3556812Y3512565D01*
X3557727Y3513632D01*
X3558032Y3520592D01*
X3559911Y3520592D01*
X3560775Y3521456D01*
X3560775Y3526129D01*
X3563112Y3526586D01*
X3563569Y3528161D01*
X3563569Y3534613D01*
X3565499Y3534613D01*
X3566363Y3535476D01*
X3566363Y3540912D01*
X3567277Y3540912D01*
X3568446Y3542182D01*
X3568446Y3543960D01*
X3567176Y3545128D01*
X3566363Y3545128D01*
X3566363Y3547770D01*
X3565499Y3548634D01*
X3563213Y3548634D01*
X3563213Y3550310D01*
X3562248Y3551072D01*
X3557930Y3551529D01*
X3557930Y3553409D01*
X3557117Y3554222D01*
X3554780Y3554222D01*
X3554780Y3555898D01*
X3553866Y3556660D01*
X3549599Y3557117D01*
X3549345Y3559657D01*
X3546754Y3559860D01*
X3546754Y3561537D01*
X3545636Y3562654D01*
X3543960Y3562654D01*
X3543401Y3564890D01*
X3540810Y3565499D01*
X3540810Y3567023D01*
X3539947Y3567887D01*
X3538372Y3567887D01*
X3537356Y3570325D01*
X3535629Y3570732D01*
X3535172Y3573475D01*
X3532733Y3573932D01*
X3532733Y3575558D01*
X3531615Y3576624D01*
X3529990Y3576624D01*
X3529736Y3579266D01*
X3527145Y3579469D01*
X3527145Y3583127D01*
X3526688Y3584701D01*
X3524402Y3585108D01*
X3523996Y3589375D01*
X3523183Y3590290D01*
X3521506Y3590290D01*
X3521456Y3593998D01*
X3520998Y3595674D01*
X3518712Y3596284D01*
X3518712Y3601008D01*
X3517900Y3601872D01*
X3516020Y3601872D01*
X3515715Y3613607D01*
X3514851Y3615182D01*
X3513124Y3615588D01*
X3513124Y3643884D01*
X3515360Y3644442D01*
X3515868Y3646170D01*
X3515918Y3655009D01*
X3518306Y3655466D01*
X3518712Y3657041D01*
X3518712Y3661206D01*
X3520236Y3661918D01*
X3521456Y3664000D01*
X3521506Y3669080D01*
X3523487Y3669080D01*
X3524351Y3669944D01*
X3524351Y3672433D01*
X3525875Y3673144D01*
X3527094Y3675227D01*
X3527145Y3677513D01*
X3528822Y3677513D01*
X3529939Y3678631D01*
X3529939Y3680561D01*
X3531717Y3681018D01*
X3532733Y3683457D01*
X3532733Y3685844D01*
X3535375Y3686098D01*
X3535578Y3688689D01*
X3538169Y3688892D01*
X3538372Y3691483D01*
X3540963Y3691686D01*
X3541166Y3694277D01*
X3543757Y3694480D01*
X3544011Y3697122D01*
X3547262Y3697173D01*
X3548989Y3697681D01*
X3549548Y3699916D01*
X3551529Y3699916D01*
X3552342Y3700779D01*
X3552342Y3702710D01*
X3555695Y3702812D01*
X3557371Y3703269D01*
X3557981Y3705504D01*
X3561283Y3705606D01*
X3563010Y3706063D01*
X3563569Y3708298D01*
X3567226Y3708349D01*
X3568801Y3708755D01*
X3569258Y3711143D01*
X3575659Y3711143D01*
X3577183Y3711549D01*
X3577640Y3713835D01*
X3593896Y3714191D01*
X3595928Y3715156D01*
X3596640Y3716731D01*
X3603040Y3716731D01*
X3603498Y3715004D01*
X3604920Y3714242D01*
X3622344Y3713835D01*
X3622751Y3711549D01*
X3624326Y3711143D01*
X3630777Y3711143D01*
X3630777Y3709415D01*
X3631895Y3708298D01*
X3636365Y3708298D01*
X3636975Y3706063D01*
X3638702Y3705606D01*
X3641902Y3705504D01*
X3642360Y3703167D01*
X3643934Y3702710D01*
X3647541Y3702710D01*
X3647795Y3700068D01*
X3650335Y3699865D01*
X3650792Y3697528D01*
X3652316Y3697122D01*
X3653739Y3697122D01*
X3654450Y3695598D01*
X3656533Y3694379D01*
X3658768Y3694328D01*
X3658971Y3691686D01*
X3661562Y3691483D01*
X3661765Y3688892D01*
X3664356Y3688689D01*
X3664610Y3686098D01*
X3667201Y3685844D01*
X3667302Y3682593D01*
X3667760Y3680866D01*
X3669995Y3680307D01*
X3669995Y3678326D01*
X3670858Y3677513D01*
X3672738Y3677513D01*
X3673195Y3673195D01*
X3673957Y3672230D01*
X3675583Y3672230D01*
X3675786Y3669284D01*
X3678428Y3669080D01*
X3678428Y3664356D01*
X3679190Y3661664D01*
X3681171Y3660901D01*
X3681425Y3655618D01*
X3682441Y3653536D01*
X3684015Y3652824D01*
X3684015Y3645814D01*
X3684473Y3644239D01*
X3686810Y3643782D01*
X3686810Y3613048D01*
X3685133Y3613048D01*
X3684015Y3611981D01*
X3684015Y3604463D01*
X3681984Y3603701D01*
X3681222Y3601008D01*
X3681222Y3596335D01*
X3678834Y3595878D01*
X3678428Y3594354D01*
X3678428Y3590645D01*
X3676192Y3590086D01*
X3675684Y3588359D01*
X3675634Y3585057D01*
X3673906Y3585057D01*
X3672840Y3583940D01*
X3672840Y3579469D01*
X3670198Y3579266D01*
X3669995Y3576624D01*
X3668064Y3576624D01*
X3667201Y3575812D01*
X3667201Y3573932D01*
X3664813Y3573475D01*
X3664356Y3571036D01*
X3662172Y3570478D01*
X3661613Y3568242D01*
X3659378Y3567684D01*
X3658819Y3565499D01*
X3656380Y3565042D01*
X3655923Y3562654D01*
X3654044Y3562654D01*
X3653231Y3561791D01*
X3653231Y3559860D01*
X3650589Y3559657D01*
X3650386Y3557015D01*
X3647084Y3556965D01*
X3645357Y3556457D01*
X3644798Y3554222D01*
X3642868Y3554222D01*
X3642004Y3553409D01*
X3642004Y3551428D01*
X3638702Y3551377D01*
X3636975Y3550869D01*
X3636365Y3548634D01*
X3634384Y3548634D01*
X3633520Y3547618D01*
X3633774Y3533343D01*
X3634740Y3532174D01*
X3636416Y3532174D01*
X3636416Y3527298D01*
X3637483Y3526231D01*
X3639210Y3526231D01*
X3639261Y3521151D01*
X3640480Y3519017D01*
X3642004Y3518357D01*
X3642055Y3514496D01*
X3642563Y3512769D01*
X3644798Y3512210D01*
X3644798Y3507435D01*
X3645662Y3506622D01*
X3647490Y3506622D01*
X3647846Y3499612D01*
X3648760Y3498545D01*
X3650386Y3498545D01*
X3650386Y3493668D01*
X3651504Y3492601D01*
X3653231Y3492601D01*
X3653231Y3487877D01*
X3653942Y3485134D01*
X3656025Y3484372D01*
X3656076Y3480866D01*
X3656584Y3479139D01*
X3658819Y3478580D01*
X3658819Y3473805D01*
X3659632Y3472992D01*
X3661613Y3472992D01*
X3661664Y3466846D01*
X3662172Y3465118D01*
X3664407Y3464560D01*
X3664407Y3460089D01*
X3665524Y3458972D01*
X3667150Y3458972D01*
X3667455Y3452012D01*
X3668369Y3450894D01*
X3669995Y3450894D01*
X3670046Y3446881D01*
X3670452Y3445306D01*
X3672840Y3444900D01*
X3672890Y3439871D01*
X3674110Y3437788D01*
X3675634Y3437077D01*
X3675684Y3433216D01*
X3676192Y3431540D01*
X3678428Y3430930D01*
X3678428Y3426206D01*
X3679291Y3425342D01*
X3681120Y3425342D01*
X3681476Y3418382D01*
X3682390Y3417315D01*
X3684015Y3417315D01*
X3684015Y3412439D01*
X3685133Y3411321D01*
X3686810Y3411321D01*
X3686860Y3406241D01*
X3688079Y3404158D01*
X3689604Y3403498D01*
X3689807Y3400298D01*
X3692804Y3400094D01*
X3692804Y3398520D01*
X3693617Y3397707D01*
X3696868Y3397707D01*
X3697681Y3398520D01*
X3697681Y3400145D01*
X3701694Y3400145D01*
X3703269Y3400551D01*
X3703726Y3402939D01*
X3706977Y3402990D01*
X3708704Y3403498D01*
X3709263Y3405632D01*
X3713530Y3406089D01*
X3714496Y3406851D01*
X3714496Y3408527D01*
X3716782Y3408527D01*
X3719474Y3409289D01*
X3720236Y3411321D01*
X3723081Y3411524D01*
X3723284Y3414166D01*
X3728821Y3414166D01*
X3729431Y3411880D01*
X3731158Y3411423D01*
X3734409Y3411321D01*
X3734612Y3408730D01*
X3737254Y3408476D01*
X3737813Y3406292D01*
X3739540Y3405784D01*
X3742842Y3405733D01*
X3743045Y3403092D01*
X3745687Y3402888D01*
X3745687Y3401212D01*
X3746754Y3400145D01*
X3751224Y3400145D01*
X3751427Y3397504D01*
X3754069Y3397300D01*
X3754069Y3395370D01*
X3754932Y3394557D01*
X3757422Y3394557D01*
X3758082Y3392982D01*
X3760215Y3391763D01*
X3762451Y3391712D01*
X3762451Y3389782D01*
X3763314Y3388918D01*
X3765804Y3388918D01*
X3766515Y3387394D01*
X3768598Y3386175D01*
X3770884Y3386124D01*
X3770884Y3384143D01*
X3771747Y3383330D01*
X3774033Y3383330D01*
X3774033Y3381654D01*
X3774998Y3380892D01*
X3779265Y3380435D01*
X3779469Y3377895D01*
X3782060Y3377692D01*
X3782669Y3375456D01*
X3784346Y3374999D01*
X3787648Y3374898D01*
X3787851Y3372307D01*
X3790442Y3372104D01*
X3790848Y3369767D01*
X3792423Y3369310D01*
X3797808Y3369310D01*
X3798925Y3370427D01*
X3798925Y3372053D01*
X3801516Y3372307D01*
X3801719Y3374898D01*
X3804310Y3375101D01*
X3804564Y3377692D01*
X3807104Y3377895D01*
X3807358Y3380486D01*
X3809949Y3380689D01*
X3810152Y3383279D01*
X3812743Y3383483D01*
X3812946Y3386074D01*
X3815537Y3386277D01*
X3815740Y3388868D01*
X3818331Y3389122D01*
X3818534Y3391712D01*
X3821125Y3391915D01*
X3821379Y3394506D01*
X3823919Y3394710D01*
X3824173Y3397300D01*
X3826764Y3397504D01*
X3826967Y3400094D01*
X3829558Y3400298D01*
X3829761Y3402888D01*
X3832351Y3403092D01*
X3832555Y3405682D01*
X3835146Y3405936D01*
X3835349Y3408476D01*
X3837940Y3408730D01*
X3838143Y3411321D01*
X3840734Y3411524D01*
X3840987Y3414115D01*
X3843528Y3414318D01*
X3843782Y3416909D01*
X3846372Y3417112D01*
X3846576Y3419703D01*
X3849166Y3419906D01*
X3849370Y3422497D01*
X3851960Y3422700D01*
X3852164Y3425291D01*
X3854754Y3425545D01*
X3854958Y3428136D01*
X3857548Y3428339D01*
X3857802Y3430930D01*
X3859682Y3430930D01*
X3860546Y3431794D01*
X3860444Y3437077D01*
X3859987Y3438804D01*
X3857751Y3439363D01*
X3857751Y3441344D01*
X3856888Y3442157D01*
X3854958Y3442157D01*
X3854856Y3445510D01*
X3854399Y3447186D01*
X3852113Y3447796D01*
X3852113Y3449726D01*
X3851300Y3450590D01*
X3849420Y3450590D01*
X3848963Y3454857D01*
X3848201Y3455822D01*
X3846525Y3455822D01*
X3846525Y3458108D01*
X3845712Y3458972D01*
X3843731Y3458972D01*
X3843680Y3461258D01*
X3842461Y3463340D01*
X3840937Y3464051D01*
X3840937Y3466287D01*
X3839819Y3467354D01*
X3838143Y3467354D01*
X3837940Y3469995D01*
X3835298Y3470198D01*
X3835298Y3473856D01*
X3834892Y3475431D01*
X3832555Y3475837D01*
X3832351Y3478428D01*
X3829710Y3478631D01*
X3829710Y3482238D01*
X3829304Y3483813D01*
X3826916Y3484270D01*
X3826916Y3486150D01*
X3826052Y3486962D01*
X3824122Y3486962D01*
X3824020Y3490315D01*
X3823563Y3492042D01*
X3821328Y3492601D01*
X3821328Y3494532D01*
X3820464Y3495395D01*
X3818534Y3495395D01*
X3818483Y3497681D01*
X3817264Y3499764D01*
X3815740Y3500475D01*
X3815537Y3503980D01*
X3815740Y3509416D01*
X3817975Y3509975D01*
X3818432Y3511702D01*
X3818534Y3517798D01*
X3820464Y3517798D01*
X3821328Y3518662D01*
X3821328Y3523386D01*
X3823563Y3523996D01*
X3824020Y3525672D01*
X3824122Y3531819D01*
X3826052Y3531819D01*
X3826916Y3532682D01*
X3826916Y3537356D01*
X3829304Y3537762D01*
X3829710Y3539337D01*
X3829710Y3545840D01*
X3831691Y3545840D01*
X3832504Y3546652D01*
X3832504Y3551326D01*
X3834892Y3551783D01*
X3835298Y3553358D01*
X3835298Y3559810D01*
X3837279Y3559810D01*
X3838143Y3560673D01*
X3838143Y3565448D01*
X3840073Y3565448D01*
X3840937Y3566261D01*
X3840937Y3568242D01*
X3851046Y3568242D01*
X3852113Y3569360D01*
X3852113Y3571036D01*
X3866642Y3571087D01*
X3868369Y3571595D01*
X3868978Y3573830D01*
X3880662Y3573932D01*
X3882390Y3574389D01*
X3882948Y3576574D01*
X3898239Y3576828D01*
X3899408Y3577793D01*
X3899408Y3579368D01*
X3913225Y3579672D01*
X3915359Y3580688D01*
X3916019Y3582263D01*
X3921353Y3582263D01*
X3922166Y3583076D01*
X3922166Y3584956D01*
X3924604Y3585413D01*
X3925011Y3587699D01*
X3924808Y3673195D01*
X3923842Y3674364D01*
X3922268Y3674364D01*
X3921607Y3676954D01*
X3919880Y3677412D01*
X3910685Y3677513D01*
X3910279Y3679240D01*
X3908704Y3680104D01*
X3894226Y3680409D01*
X3893769Y3682695D01*
X3892245Y3683101D01*
X3877360Y3683101D01*
X3877360Y3684828D01*
X3876243Y3685895D01*
X3865879Y3685895D01*
X3865422Y3687622D01*
X3863848Y3688486D01*
X3849115Y3688791D01*
X3848354Y3690772D01*
X3845661Y3691534D01*
X3838143Y3691534D01*
X3837940Y3694125D01*
X3835400Y3694328D01*
X3835095Y3701287D01*
X3834180Y3702354D01*
X3832504Y3702354D01*
X3832504Y3706418D01*
X3832098Y3707942D01*
X3829710Y3708400D01*
X3829710Y3713073D01*
X3828897Y3713937D01*
X3826916Y3713937D01*
X3826916Y3718661D01*
X3826154Y3721354D01*
X3824122Y3722115D01*
X3824122Y3726840D01*
X3823004Y3727958D01*
X3821328Y3727958D01*
X3821328Y3732682D01*
X3820464Y3733546D01*
X3818534Y3733546D01*
X3818534Y3738270D01*
X3817772Y3740962D01*
X3815689Y3741724D01*
X3815689Y3745636D01*
X3815283Y3747160D01*
X3812895Y3747617D01*
X3812895Y3755898D01*
X3815537Y3756151D01*
X3815740Y3758742D01*
X3817416Y3758742D01*
X3818534Y3759860D01*
X3818534Y3764330D01*
X3821125Y3764534D01*
X3821379Y3767175D01*
X3823258Y3767175D01*
X3824122Y3767988D01*
X3824122Y3770477D01*
X3825646Y3771188D01*
X3826865Y3773271D01*
X3826916Y3775557D01*
X3828897Y3775557D01*
X3829710Y3776421D01*
X3829710Y3778656D01*
X3831539Y3779113D01*
X3832504Y3781501D01*
X3832504Y3783990D01*
X3834485Y3783990D01*
X3835298Y3784803D01*
X3835298Y3786733D01*
X3837584Y3787343D01*
X3838041Y3789070D01*
X3838143Y3792321D01*
X3840734Y3792575D01*
X3840987Y3795115D01*
X3843274Y3795522D01*
X3843731Y3797096D01*
X3843731Y3800754D01*
X3846372Y3800957D01*
X3846576Y3803599D01*
X3848252Y3803599D01*
X3849319Y3804665D01*
X3849319Y3809136D01*
X3851960Y3809339D01*
X3852164Y3811981D01*
X3853840Y3811981D01*
X3854958Y3813098D01*
X3854958Y3815079D01*
X3856736Y3815537D01*
X3857751Y3817924D01*
X3857751Y3820414D01*
X3859428Y3820414D01*
X3860546Y3821480D01*
X3860546Y3826865D01*
X3860088Y3828440D01*
X3857751Y3828846D01*
X3857548Y3831437D01*
X3854958Y3831640D01*
X3854754Y3834231D01*
X3852164Y3834434D01*
X3851960Y3837025D01*
X3849370Y3837228D01*
X3849166Y3839819D01*
X3846576Y3840022D01*
X3846372Y3842613D01*
X3843782Y3842867D01*
X3843528Y3845407D01*
X3840937Y3845661D01*
X3840937Y3847592D01*
X3840073Y3848404D01*
X3838143Y3848404D01*
X3837940Y3851046D01*
X3835298Y3851249D01*
X3835298Y3853179D01*
X3834485Y3853992D01*
X3832504Y3853992D01*
X3832504Y3855974D01*
X3831691Y3856837D01*
X3829710Y3856837D01*
X3829710Y3858768D01*
X3828897Y3859631D01*
X3826916Y3859631D01*
X3826916Y3861562D01*
X3826052Y3862425D01*
X3824122Y3862425D01*
X3824122Y3864356D01*
X3823258Y3865219D01*
X3821328Y3865219D01*
X3821328Y3867200D01*
X3820464Y3868013D01*
X3818534Y3868013D01*
X3818534Y3869994D01*
X3817670Y3870807D01*
X3815689Y3870807D01*
X3815689Y3872788D01*
X3814876Y3873601D01*
X3812895Y3873601D01*
X3812895Y3875582D01*
X3812082Y3876446D01*
X3810101Y3876446D01*
X3810101Y3878376D01*
X3809288Y3879240D01*
X3807307Y3879240D01*
X3807307Y3881170D01*
X3806444Y3882034D01*
X3804513Y3882034D01*
X3804513Y3884015D01*
X3803650Y3884828D01*
X3801719Y3884828D01*
X3801719Y3886809D01*
X3800856Y3887622D01*
X3798722Y3887622D01*
X3797909Y3889705D01*
X3796080Y3890162D01*
X3794251Y3889705D01*
X3793490Y3887622D01*
X3789629Y3887622D01*
X3788054Y3887215D01*
X3787597Y3884879D01*
X3785057Y3884676D01*
X3784854Y3882034D01*
X3781551Y3881983D01*
X3779875Y3881475D01*
X3779265Y3879240D01*
X3777335Y3879240D01*
X3776472Y3878376D01*
X3776472Y3876548D01*
X3772204Y3876090D01*
X3771239Y3875278D01*
X3771239Y3873601D01*
X3768902Y3873601D01*
X3768090Y3872788D01*
X3768090Y3870909D01*
X3763772Y3870451D01*
X3762806Y3869690D01*
X3762806Y3868013D01*
X3760520Y3868013D01*
X3759657Y3867200D01*
X3759657Y3865219D01*
X3757218Y3865219D01*
X3754780Y3864203D01*
X3754323Y3862425D01*
X3752392Y3862425D01*
X3751275Y3861308D01*
X3751275Y3859682D01*
X3748633Y3859428D01*
X3748430Y3856837D01*
X3743960Y3856837D01*
X3742842Y3855720D01*
X3742842Y3854043D01*
X3740251Y3853840D01*
X3739997Y3851198D01*
X3736390Y3851198D01*
X3734815Y3850792D01*
X3734409Y3848455D01*
X3731818Y3848252D01*
X3731615Y3845610D01*
X3728313Y3845560D01*
X3726637Y3845051D01*
X3726027Y3842816D01*
X3724097Y3842816D01*
X3723233Y3841953D01*
X3723233Y3840022D01*
X3720084Y3840022D01*
X3720084Y3841648D01*
X3719017Y3842562D01*
X3712057Y3842918D01*
X3712057Y3844747D01*
X3711194Y3845610D01*
X3706469Y3845610D01*
X3705860Y3847846D01*
X3704183Y3848354D01*
X3698036Y3848404D01*
X3698036Y3850386D01*
X3697224Y3851198D01*
X3692448Y3851198D01*
X3691890Y3853484D01*
X3690162Y3853942D01*
X3686657Y3853992D01*
X3685844Y3856075D01*
X3683152Y3856786D01*
X3678428Y3856837D01*
X3678428Y3858514D01*
X3677310Y3859631D01*
X3672281Y3859631D01*
X3671620Y3861155D01*
X3669487Y3862374D01*
X3664458Y3862425D01*
X3664254Y3865067D01*
X3661664Y3865270D01*
X3661410Y3879748D01*
X3660546Y3881323D01*
X3658819Y3881780D01*
X3658768Y3892346D01*
X3657600Y3894836D01*
X3656076Y3895496D01*
X3655822Y3909517D01*
X3654806Y3911600D01*
X3653231Y3912311D01*
X3653231Y3922979D01*
X3652113Y3924046D01*
X3650386Y3924046D01*
X3650335Y3938574D01*
X3649878Y3940301D01*
X3647592Y3940860D01*
X3647592Y3948480D01*
X3647186Y3950665D01*
G37*
G36*
X3668522Y4898288D02*
G01*
X3663187Y4890668D01*
X3662527Y4885436D01*
X3661257Y4880000D01*
X3659276Y4874158D01*
X3656584Y4867808D01*
X3663187Y4863236D01*
X3674364Y4879238D01*
X3744468Y4830216D01*
X3729990Y4809642D01*
X3738626Y4803800D01*
X3772915Y4853076D01*
X3764534Y4858918D01*
X3751579Y4840376D01*
G37*
G36*
X3639769Y4835753D02*
G01*
X3634384Y4835652D01*
X3629406Y4834788D01*
X3624884Y4833112D01*
X3620820Y4830673D01*
X3617163Y4827524D01*
X3613912Y4823612D01*
X3611321Y4819192D01*
X3609492Y4814620D01*
X3608578Y4809896D01*
X3608565Y4808677D01*
X3619144Y4808677D01*
X3619906Y4813452D01*
X3622040Y4817770D01*
X3625342Y4821224D01*
X3629558Y4823460D01*
X3634587Y4824526D01*
X3640582Y4824222D01*
X3647440Y4822596D01*
X3655161Y4819497D01*
X3663797Y4814824D01*
X3673348Y4808626D01*
X3682644Y4801616D01*
X3690061Y4794961D01*
X3695750Y4788662D01*
X3699764Y4782769D01*
X3702151Y4777181D01*
X3703015Y4772101D01*
X3702354Y4767376D01*
X3700272Y4763160D01*
X3698189Y4760671D01*
X3695649Y4758740D01*
X3692702Y4757318D01*
X3689400Y4756505D01*
X3685641Y4756251D01*
X3681476Y4756607D01*
X3676904Y4757572D01*
X3671925Y4759198D01*
X3666540Y4761534D01*
X3660749Y4764481D01*
X3654551Y4768138D01*
X3647948Y4772558D01*
X3638905Y4779365D01*
X3631590Y4785918D01*
X3626053Y4792116D01*
X3622141Y4798009D01*
X3619855Y4803546D01*
X3619144Y4808677D01*
X3608565Y4808677D01*
X3608527Y4805019D01*
X3609340Y4800041D01*
X3611067Y4794961D01*
X3613658Y4789728D01*
X3617264Y4784445D01*
X3621735Y4779060D01*
X3627221Y4773625D01*
X3633673Y4768138D01*
X3641090Y4762652D01*
X3648913Y4757521D01*
X3656380Y4753305D01*
X3663442Y4749952D01*
X3670147Y4747514D01*
X3676396Y4745888D01*
X3682288Y4745126D01*
X3687724Y4745177D01*
X3692753Y4746040D01*
X3697376Y4747717D01*
X3701491Y4750155D01*
X3705199Y4753356D01*
X3708400Y4757318D01*
X3710990Y4761687D01*
X3712718Y4766208D01*
X3713530Y4770932D01*
X3713530Y4775758D01*
X3712616Y4780788D01*
X3710787Y4785918D01*
X3708095Y4791151D01*
X3704437Y4796485D01*
X3699814Y4801920D01*
X3694277Y4807407D01*
X3687724Y4812944D01*
X3680206Y4818532D01*
X3672535Y4823612D01*
X3665220Y4827778D01*
X3658260Y4831029D01*
X3651707Y4833467D01*
X3645509Y4834991D01*
G37*
G36*
X3609543Y4752543D02*
G01*
X3604615Y4751679D01*
X3600094Y4749596D01*
X3595878Y4746244D01*
X3592068Y4741570D01*
X3588359Y4734458D01*
X3586734Y4726889D01*
X3586683Y4719066D01*
X3587496Y4711090D01*
X3573779Y4721250D01*
X3546094Y4740554D01*
X3538982Y4730394D01*
X3638550Y4660798D01*
X3645662Y4670958D01*
X3596132Y4705502D01*
X3594912Y4713732D01*
X3594760Y4720793D01*
X3595928Y4726889D01*
X3598672Y4732426D01*
X3604056Y4737709D01*
X3610406Y4739487D01*
X3617925Y4737811D01*
X3626865Y4732680D01*
X3668268Y4703470D01*
X3675634Y4713884D01*
X3632708Y4743856D01*
X3626408Y4747768D01*
X3620465Y4750511D01*
X3614826Y4752136D01*
G37*
G36*
X3565906Y4686960D02*
G01*
X3560064Y4685284D01*
X3554323Y4682642D01*
X3548837Y4678680D01*
X3543808Y4672990D01*
X3541166Y4668570D01*
X3539083Y4663948D01*
X3537661Y4659122D01*
X3536899Y4654194D01*
X3536848Y4649114D01*
X3537458Y4644085D01*
X3538778Y4639005D01*
X3540861Y4634077D01*
X3543655Y4629251D01*
X3547211Y4624578D01*
X3551580Y4620209D01*
X3556762Y4616094D01*
X3562350Y4612589D01*
X3567937Y4609896D01*
X3573424Y4607966D01*
X3578809Y4606848D01*
X3584092Y4606493D01*
X3589223Y4606798D01*
X3594100Y4607864D01*
X3598722Y4609592D01*
X3603091Y4611928D01*
X3607155Y4614926D01*
X3610864Y4618532D01*
X3614165Y4622698D01*
X3617823Y4629099D01*
X3620058Y4635957D01*
X3621024Y4643120D01*
X3620770Y4650384D01*
X3610864Y4650638D01*
X3611118Y4645355D01*
X3610508Y4639919D01*
X3608933Y4634534D01*
X3606292Y4629556D01*
X3602532Y4625187D01*
X3598164Y4621936D01*
X3593236Y4619853D01*
X3587902Y4618888D01*
X3582212Y4619091D01*
X3576320Y4620412D01*
X3570274Y4622901D01*
X3564128Y4626508D01*
X3558692Y4630928D01*
X3554374Y4635804D01*
X3551174Y4640986D01*
X3549091Y4646371D01*
X3548227Y4651806D01*
X3548481Y4657242D01*
X3550005Y4662474D01*
X3552698Y4667402D01*
X3556050Y4671060D01*
X3559860Y4673752D01*
X3564128Y4675682D01*
X3568700Y4677054D01*
G37*
G36*
X3516731Y4615992D02*
G01*
X3510432Y4614722D01*
X3504590Y4612030D01*
X3499256Y4607915D01*
X3494532Y4602378D01*
X3492144Y4598314D01*
X3490315Y4593996D01*
X3489096Y4589424D01*
X3488550Y4584039D01*
X3498850Y4584039D01*
X3499358Y4588560D01*
X3500678Y4592878D01*
X3502914Y4596790D01*
X3506012Y4600448D01*
X3509467Y4603140D01*
X3513277Y4604918D01*
X3517493Y4605731D01*
X3521964Y4605528D01*
X3526739Y4604308D01*
X3531717Y4602073D01*
X3536950Y4598822D01*
X3510534Y4561230D01*
X3506266Y4565497D01*
X3503015Y4570018D01*
X3500678Y4574641D01*
X3499307Y4579366D01*
X3498850Y4584039D01*
X3488550Y4584039D01*
X3488639Y4579772D01*
X3489401Y4574844D01*
X3490823Y4569917D01*
X3492957Y4565040D01*
X3495801Y4560316D01*
X3499358Y4555794D01*
X3503676Y4551476D01*
X3508756Y4547514D01*
X3514394Y4544060D01*
X3519982Y4541418D01*
X3525520Y4539640D01*
X3530955Y4538573D01*
X3536289Y4538268D01*
X3541471Y4538675D01*
X3546398Y4539792D01*
X3551123Y4541520D01*
X3555542Y4543958D01*
X3559606Y4546955D01*
X3563365Y4550511D01*
X3566668Y4554626D01*
X3570630Y4561636D01*
X3573221Y4568444D01*
X3574643Y4575098D01*
X3575304Y4581550D01*
X3565906Y4582566D01*
X3565448Y4577130D01*
X3564229Y4571847D01*
X3562248Y4566716D01*
X3559301Y4561738D01*
X3555492Y4557217D01*
X3551123Y4553762D01*
X3546246Y4551426D01*
X3541014Y4550156D01*
X3535527Y4550003D01*
X3529837Y4550968D01*
X3523996Y4553000D01*
X3518154Y4556150D01*
X3550412Y4602124D01*
X3547872Y4604512D01*
X3544570Y4606950D01*
X3537356Y4611319D01*
X3530295Y4614265D01*
X3523335Y4615840D01*
G37*
G36*
X3450082Y4586376D02*
G01*
X3403854Y4520082D01*
X3412490Y4513986D01*
X3432048Y4541926D01*
X3514598Y4484014D01*
X3521964Y4494428D01*
X3439414Y4552340D01*
X3458972Y4580280D01*
G37*
D10*
X2940050Y4971542D02*
G01*
X3048254Y4809236D01*
X3048254Y4971542D02*
G01*
X2940050Y4809236D01*
X3099054Y4971542D02*
G01*
X3099054Y4809236D01*
D11*
X3960083Y4370605D02*
G01*
X3960083Y4294405D01*
X3960083Y4370605D02*
G01*
X4010883Y4294405D01*
X4010883Y4370605D02*
G01*
X4010883Y4294405D01*
X4056603Y4370605D02*
G01*
X4049491Y4367049D01*
X4042125Y4359937D01*
X4038569Y4352571D01*
X4035013Y4341649D01*
X4035013Y4323361D01*
X4038569Y4312439D01*
X4042125Y4305327D01*
X4049491Y4297961D01*
X4056603Y4294405D01*
X4071335Y4294405D01*
X4078447Y4297961D01*
X4085813Y4305327D01*
X4089369Y4312439D01*
X4093179Y4323361D01*
X4093179Y4341649D01*
X4089369Y4352571D01*
X4085813Y4359937D01*
X4078447Y4367049D01*
X4071335Y4370605D01*
X4056603Y4370605D01*
X4117055Y4370605D02*
G01*
X4135343Y4294405D01*
X4153377Y4370605D02*
G01*
X4135343Y4294405D01*
X4153377Y4370605D02*
G01*
X4171665Y4294405D01*
X4189699Y4370605D02*
G01*
X4171665Y4294405D01*
X3630000Y4555314D02*
G01*
X3630000Y4477336D01*
X3635080Y4461842D01*
X3645494Y4451428D01*
X3661242Y4446348D01*
X3671656Y4446348D01*
X3687150Y4451428D01*
X3697564Y4461842D01*
X3702644Y4477336D01*
X3702644Y4555314D01*
X3736934Y4534486D02*
G01*
X3747348Y4539820D01*
X3763096Y4555314D01*
X3763096Y4446348D01*
D10*
X4109890Y5031516D02*
G01*
X4109890Y4869210D01*
X4409940Y4671517D02*
G01*
X4409940Y4509211D01*
X4460994Y4671517D02*
G01*
X4460994Y4509211D01*
X4470118Y4251416D02*
G01*
X4470118Y4089364D01*
X4520918Y4251416D02*
G01*
X4520918Y4089364D01*
X4571972Y4251416D02*
G01*
X4571972Y4089364D01*
X4319991Y3801620D02*
G01*
X4319991Y3639314D01*
X4371045Y3801620D02*
G01*
X4371045Y3639314D01*
X4422099Y3801620D02*
G01*
X4422099Y3639314D01*
X4472899Y3801620D02*
G01*
X4472899Y3639314D01*
X4079991Y3441443D02*
G01*
X4141713Y3279391D01*
X4203689Y3441443D02*
G01*
X4141713Y3279391D01*
X3539997Y3291586D02*
G01*
X3601720Y3129279D01*
X3663695Y3291586D02*
G01*
X3601720Y3129279D01*
X3714750Y3291586D02*
G01*
X3714750Y3129279D01*
X3029943Y3441443D02*
G01*
X3091919Y3279391D01*
X3153641Y3441443D02*
G01*
X3091919Y3279391D01*
X3204695Y3441443D02*
G01*
X3204695Y3279391D01*
X3255749Y3441443D02*
G01*
X3255749Y3279391D01*
X2729969Y3771645D02*
G01*
X2791691Y3609339D01*
X2853667Y3771645D02*
G01*
X2791691Y3609339D01*
X2904721Y3771645D02*
G01*
X2904721Y3609339D01*
X2955521Y3771645D02*
G01*
X2955521Y3609339D01*
X3006575Y3771645D02*
G01*
X3006575Y3609339D01*
X2640075Y4281423D02*
G01*
X2640075Y4119371D01*
X2690875Y4281423D02*
G01*
X2799079Y4119371D01*
X2799079Y4281423D02*
G01*
X2690875Y4119371D01*
X2849918Y4538464D02*
G01*
X2741714Y4700770D01*
X2741714Y4538464D02*
G01*
X2849918Y4700770D01*
X3510018Y5151592D02*
G01*
X3618222Y4989286D01*
X3618222Y5151592D02*
G01*
X3510018Y4989286D01*
X3669276Y5151592D02*
G01*
X3669276Y4989286D01*
X3720076Y5151592D02*
G01*
X3720076Y4989286D01*
D11*
X4315896Y5680844D02*
G01*
X4263067Y5585541D01*
X4315896Y5680844D02*
G01*
X4356770Y5658187D01*
X4367860Y5646234D01*
X4369940Y5638982D01*
X4369335Y5627413D01*
X4361822Y5613859D01*
X4352330Y5607215D01*
X4345203Y5605358D01*
X4329064Y5608205D01*
X4288188Y5630862D01*
X4409422Y5629005D02*
G01*
X4393029Y5513501D01*
X4482287Y5588612D02*
G01*
X4393029Y5513501D01*
X4502183Y5553770D02*
G01*
X4513877Y5553387D01*
X4534938Y5559427D01*
X4482109Y5464121D01*
X4184335Y5554073D02*
G01*
X4237042Y5491464D01*
X4184335Y5554073D02*
G01*
X4265244Y5542333D01*
X4219900Y5513453D02*
G01*
X4237507Y5545221D01*
X4479973Y5418843D02*
G01*
X4471687Y5419082D01*
X4462018Y5416311D01*
X4455114Y5411713D01*
X4448093Y5399054D01*
X4447854Y5390761D01*
X4450628Y5381094D01*
X4455223Y5374190D01*
X4463051Y5365785D01*
X4479046Y5356920D01*
X4490102Y5354858D01*
X4498390Y5354617D01*
X4508281Y5357266D01*
X4514961Y5361985D01*
X4521982Y5374650D01*
X4522442Y5382813D01*
X4519447Y5392607D01*
X4514855Y5399509D01*
X4958836Y5129382D02*
G01*
X4865433Y5073261D01*
X4958836Y5129382D02*
G01*
X4982908Y5089321D01*
X4986533Y5073423D01*
X4984706Y5066106D01*
X4978397Y5056388D01*
X4965118Y5048407D01*
X4953574Y5047396D01*
X4946472Y5049354D01*
X4933919Y5059885D01*
X4909850Y5099946D01*
X5013911Y5037721D02*
G01*
X4941963Y4945893D01*
X5056822Y4966309D02*
G01*
X4941963Y4945893D01*
X5054889Y4919218D02*
G01*
X5059245Y4921834D01*
X5070919Y4922626D01*
X5078107Y4921018D01*
X5087825Y4914709D01*
X5098552Y4896855D01*
X5099560Y4885311D01*
X5097607Y4878212D01*
X5091427Y4868275D01*
X5082499Y4862911D01*
X5070825Y4862121D01*
X5052181Y4863068D01*
X4981079Y4880795D01*
X5018493Y4818527D01*
X4793571Y5084297D02*
G01*
X4807910Y5003721D01*
X4793571Y5084297D02*
G01*
X4857767Y5033678D01*
X4804059Y5031336D02*
G01*
X4835192Y5050043D01*
X4981986Y4819365D02*
G01*
X4974927Y4823716D01*
X4965169Y4826149D01*
X4956891Y4825621D01*
X4944480Y4818166D01*
X4940129Y4811105D01*
X4937699Y4801344D01*
X4938224Y4793071D01*
X4940800Y4781877D01*
X4950221Y4766200D01*
X4958763Y4758888D01*
X4965821Y4754537D01*
X4975712Y4751885D01*
X4983858Y4752632D01*
X4996268Y4760089D01*
X5000752Y4766929D01*
X5003053Y4776906D01*
X5002527Y4785184D01*
X5275305Y4319991D02*
G01*
X5166339Y4319991D01*
X5275305Y4319991D02*
G01*
X5275305Y4273255D01*
X5270225Y4257761D01*
X5264891Y4252427D01*
X5254477Y4247347D01*
X5238983Y4247347D01*
X5228569Y4252427D01*
X5223489Y4257761D01*
X5218155Y4273255D01*
X5218155Y4319991D01*
X5275305Y4213057D02*
G01*
X5166339Y4171401D01*
X5275305Y4129745D02*
G01*
X5166339Y4171401D01*
X5275305Y4085041D02*
G01*
X5275305Y4027891D01*
X5233649Y4059133D01*
X5233649Y4043639D01*
X5228569Y4033225D01*
X5223489Y4027891D01*
X5207741Y4022811D01*
X5197327Y4022811D01*
X5181833Y4027891D01*
X5171419Y4038305D01*
X5166339Y4054053D01*
X5166339Y4069547D01*
X5171419Y4085041D01*
X5176499Y4090375D01*
X5186913Y4095455D01*
X5101968Y4360491D02*
G01*
X5072758Y4284037D01*
X5101968Y4360491D02*
G01*
X5130924Y4284037D01*
X5083680Y4309691D02*
G01*
X5120002Y4309691D01*
X5127020Y4036357D02*
G01*
X5123210Y4043723D01*
X5116098Y4050835D01*
X5108732Y4054645D01*
X5094254Y4054645D01*
X5086888Y4050835D01*
X5079776Y4043723D01*
X5075966Y4036357D01*
X5072410Y4025435D01*
X5072410Y4007147D01*
X5075966Y3996479D01*
X5079776Y3989113D01*
X5086888Y3981747D01*
X5094254Y3978191D01*
X5108732Y3978191D01*
X5116098Y3981747D01*
X5123210Y3989113D01*
X5127020Y3996479D01*
X5140848Y3484087D02*
G01*
X5045542Y3536914D01*
X5140848Y3484087D02*
G01*
X5118188Y3443211D01*
X5106233Y3432121D01*
X5098983Y3430041D01*
X5087411Y3430648D01*
X5073860Y3438159D01*
X5067216Y3447651D01*
X5065356Y3454780D01*
X5068204Y3470917D01*
X5090863Y3511793D01*
X5089004Y3390559D02*
G01*
X4973505Y3406955D01*
X5048613Y3317694D02*
G01*
X4973505Y3406955D01*
X5006868Y3242383D02*
G01*
X4968453Y3322921D01*
X4930772Y3254941D01*
X5006868Y3242383D02*
G01*
X4911564Y3295210D01*
X5014076Y3585649D02*
G01*
X4951463Y3532941D01*
X5014076Y3585649D02*
G01*
X5002336Y3504742D01*
X4973454Y3550084D02*
G01*
X5005222Y3532474D01*
X4878844Y3290008D02*
G01*
X4879083Y3298299D01*
X4876309Y3307966D01*
X4871714Y3314870D01*
X4859053Y3321888D01*
X4850762Y3322126D01*
X4841095Y3319355D01*
X4834191Y3314760D01*
X4825786Y3306932D01*
X4816919Y3290935D01*
X4814859Y3279881D01*
X4814620Y3271593D01*
X4817270Y3261702D01*
X4821986Y3255020D01*
X4834648Y3248002D01*
X4842817Y3247542D01*
X4852609Y3250534D01*
X4859510Y3255131D01*
X1924657Y4050101D02*
G01*
X2033877Y4050101D01*
X1924657Y4050101D02*
G01*
X1924657Y4096837D01*
X1929737Y4112331D01*
X1935071Y4117411D01*
X1945485Y4122745D01*
X1960979Y4122745D01*
X1971393Y4117411D01*
X1976727Y4112331D01*
X1981807Y4096837D01*
X1981807Y4050101D01*
X1924657Y4157035D02*
G01*
X2033877Y4198691D01*
X1924657Y4240093D02*
G01*
X2033877Y4198691D01*
X1960979Y4341947D02*
G01*
X1976727Y4336867D01*
X1986887Y4326453D01*
X1992221Y4310705D01*
X1992221Y4305625D01*
X1986887Y4290131D01*
X1976727Y4279717D01*
X1960979Y4274383D01*
X1955899Y4274383D01*
X1940151Y4279717D01*
X1929737Y4290131D01*
X1924657Y4305625D01*
X1924657Y4310705D01*
X1929737Y4326453D01*
X1940151Y4336867D01*
X1960979Y4341947D01*
X1986887Y4341947D01*
X2013049Y4336867D01*
X2028543Y4326453D01*
X2033877Y4310705D01*
X2033877Y4300291D01*
X2028543Y4284797D01*
X2018129Y4279717D01*
X2098017Y3979491D02*
G01*
X2127227Y4055945D01*
X2098017Y3979491D02*
G01*
X2069061Y4055945D01*
X2116305Y4030291D02*
G01*
X2079983Y4030291D01*
X2072965Y4303626D02*
G01*
X2076775Y4296260D01*
X2083887Y4289148D01*
X2091253Y4285338D01*
X2105731Y4285338D01*
X2113097Y4289148D01*
X2120209Y4296260D01*
X2124019Y4303626D01*
X2127575Y4314548D01*
X2127575Y4332836D01*
X2124019Y4343504D01*
X2120209Y4350870D01*
X2113097Y4358236D01*
X2105731Y4361792D01*
X2091253Y4361792D01*
X2083887Y4358236D01*
X2076775Y4350870D01*
X2072965Y4343504D01*
X2059144Y4855941D02*
G01*
X2154671Y4802992D01*
X2059144Y4855941D02*
G01*
X2081804Y4896817D01*
X2093760Y4907907D01*
X2101009Y4909987D01*
X2112581Y4909380D01*
X2126132Y4901869D01*
X2132779Y4892377D01*
X2134857Y4885126D01*
X2131788Y4869111D01*
X2109132Y4828237D01*
X2110988Y4949469D02*
G01*
X2226711Y4932951D01*
X2151258Y5022113D02*
G01*
X2226711Y4932951D01*
X2186096Y5042004D02*
G01*
X2186480Y5053700D01*
X2180564Y5074986D01*
X2276088Y5022034D01*
X2212210Y5132077D02*
G01*
X2209142Y5116062D01*
X2217867Y5099321D01*
X2238065Y5082319D01*
X2251616Y5074805D01*
X2276960Y5066565D01*
X2295560Y5068163D01*
X2307737Y5079128D01*
X2312786Y5088237D01*
X2315753Y5104597D01*
X2307254Y5121216D01*
X2286833Y5138341D01*
X2273282Y5145854D01*
X2248161Y5153969D01*
X2229337Y5152499D01*
X2217259Y5141188D01*
X2212210Y5132077D01*
X2215908Y4754333D02*
G01*
X2278522Y4807041D01*
X2215908Y4754333D02*
G01*
X2227648Y4835240D01*
X2256533Y4789898D02*
G01*
X2224763Y4807508D01*
X2351140Y5049974D02*
G01*
X2350902Y5041684D01*
X2353675Y5032016D01*
X2358270Y5025113D01*
X2370935Y5018092D01*
X2379220Y5017853D01*
X2388890Y5020627D01*
X2395791Y5025222D01*
X2404198Y5033053D01*
X2413066Y5049047D01*
X2415125Y5060101D01*
X2415364Y5068392D01*
X2412718Y5078282D01*
X2407998Y5084963D01*
X2395336Y5091981D01*
X2387168Y5092440D01*
X2377379Y5089448D01*
X2370475Y5084853D01*
X2640571Y5528840D02*
G01*
X2696824Y5435221D01*
X2640571Y5528840D02*
G01*
X2680632Y5552912D01*
X2696748Y5556669D01*
X2703850Y5554713D01*
X2713568Y5548401D01*
X2721546Y5535122D01*
X2722557Y5523577D01*
X2720949Y5516389D01*
X2710068Y5503923D01*
X2670007Y5479854D01*
X2732232Y5583915D02*
G01*
X2824190Y5511751D01*
X2803644Y5626823D02*
G01*
X2824190Y5511751D01*
X2843763Y5626633D02*
G01*
X2849943Y5636567D01*
X2855244Y5657829D01*
X2911497Y5564210D01*
X2895363Y5657636D02*
G01*
X2901543Y5667573D01*
X2906844Y5688832D01*
X2963097Y5595213D01*
X2685684Y5363570D02*
G01*
X2766263Y5377908D01*
X2685684Y5363570D02*
G01*
X2736306Y5427766D01*
X2738648Y5374058D02*
G01*
X2719941Y5405193D01*
X2950618Y5551985D02*
G01*
X2946267Y5544926D01*
X2943834Y5535168D01*
X2944362Y5526890D01*
X2951820Y5514479D01*
X2958879Y5510128D01*
X2968637Y5507695D01*
X2976915Y5508223D01*
X2988106Y5510801D01*
X3003783Y5520220D01*
X3011096Y5528762D01*
X3015447Y5535823D01*
X3018099Y5545711D01*
X3017352Y5553857D01*
X3009897Y5566267D01*
X3003054Y5570750D01*
X2993077Y5573052D01*
X2984802Y5572523D01*
X3420102Y5815363D02*
G01*
X3420102Y5706143D01*
X3420102Y5815363D02*
G01*
X3466838Y5815363D01*
X3482332Y5810029D01*
X3487412Y5804949D01*
X3492746Y5794535D01*
X3492746Y5779041D01*
X3487412Y5768627D01*
X3482332Y5763293D01*
X3466838Y5758213D01*
X3420102Y5758213D01*
X3527036Y5815363D02*
G01*
X3568692Y5706143D01*
X3610094Y5815363D02*
G01*
X3568692Y5706143D01*
X3644384Y5794535D02*
G01*
X3654798Y5799615D01*
X3670292Y5815363D01*
X3670292Y5706143D01*
X3709916Y5789455D02*
G01*
X3709916Y5794535D01*
X3714996Y5804949D01*
X3720330Y5810029D01*
X3730744Y5815363D01*
X3751572Y5815363D01*
X3761732Y5810029D01*
X3767066Y5804949D01*
X3772146Y5794535D01*
X3772146Y5784121D01*
X3767066Y5773707D01*
X3756652Y5758213D01*
X3704582Y5706143D01*
X3777480Y5706143D01*
X3409492Y5641967D02*
G01*
X3485946Y5612757D01*
X3409492Y5641967D02*
G01*
X3485946Y5670923D01*
X3460292Y5623679D02*
G01*
X3460292Y5660001D01*
X3733627Y5667019D02*
G01*
X3726261Y5663209D01*
X3719149Y5656097D01*
X3715339Y5648731D01*
X3715339Y5634253D01*
X3719149Y5626887D01*
X3726261Y5619775D01*
X3733627Y5615965D01*
X3744549Y5612409D01*
X3762837Y5612409D01*
X3773505Y5615965D01*
X3780871Y5619775D01*
X3788237Y5626887D01*
X3791793Y5634253D01*
X3791793Y5648731D01*
X3788237Y5656097D01*
X3780871Y5663209D01*
X3773505Y5667019D01*
X4585820Y2779057D02*
G01*
X4532871Y2874584D01*
X4585820Y2779057D02*
G01*
X4544943Y2756397D01*
X4528926Y2753332D01*
X4521898Y2755536D01*
X4512183Y2762056D01*
X4504672Y2775607D01*
X4504288Y2787304D01*
X4506145Y2794431D01*
X4517235Y2806385D01*
X4558113Y2829041D01*
X4492292Y2727215D02*
G01*
X4402909Y2802547D01*
X4419650Y2686949D02*
G01*
X4402909Y2802547D01*
X4335007Y2640032D02*
G01*
X4380550Y2665275D01*
X4362333Y2708615D01*
X4360354Y2701709D01*
X4349389Y2689529D01*
X4335614Y2681897D01*
X4319478Y2679052D01*
X4305320Y2683113D01*
X4293146Y2694073D01*
X4288096Y2703184D01*
X4285249Y2719321D01*
X4289308Y2733476D01*
X4300273Y2745656D01*
X4314047Y2753291D01*
X4330184Y2756136D01*
X4337088Y2754155D01*
X4346806Y2747634D01*
X4547565Y2940618D02*
G01*
X4466536Y2929102D01*
X4547565Y2940618D02*
G01*
X4494735Y2878228D01*
X4494268Y2931988D02*
G01*
X4511878Y2900220D01*
X4276216Y2761564D02*
G01*
X4280811Y2768467D01*
X4283583Y2778137D01*
X4283346Y2786425D01*
X4276326Y2799087D01*
X4269422Y2803687D01*
X4259755Y2806456D01*
X4251467Y2806217D01*
X4240187Y2804030D01*
X4224192Y2795168D01*
X4216585Y2786885D01*
X4211993Y2779984D01*
X4208998Y2770192D01*
X4209458Y2762023D01*
X4216478Y2749362D01*
X4223156Y2744645D01*
X4233049Y2741993D01*
X4241337Y2742232D01*
X3749936Y2464681D02*
G01*
X3749936Y2573647D01*
X3749936Y2464681D02*
G01*
X3703200Y2464681D01*
X3687706Y2469761D01*
X3682372Y2475095D01*
X3677292Y2485509D01*
X3677295Y2501003D01*
X3682370Y2511417D01*
X3687706Y2516497D01*
X3703200Y2521831D01*
X3749936Y2521831D01*
X3643002Y2464681D02*
G01*
X3601346Y2573647D01*
X3559942Y2464681D02*
G01*
X3601346Y2573647D01*
X3463170Y2480175D02*
G01*
X3468504Y2469761D01*
X3483998Y2464681D01*
X3494412Y2464681D01*
X3509906Y2469761D01*
X3520320Y2485509D01*
X3525654Y2511414D01*
X3525654Y2537327D01*
X3520320Y2558153D01*
X3509906Y2568567D01*
X3494412Y2573647D01*
X3489078Y2573647D01*
X3473584Y2568567D01*
X3463170Y2558153D01*
X3458090Y2542659D01*
X3458090Y2537327D01*
X3463170Y2521831D01*
X3473584Y2511417D01*
X3489076Y2506337D01*
X3494412Y2506337D01*
X3509906Y2511417D01*
X3520318Y2521831D01*
X3525654Y2537327D01*
X3790492Y2638016D02*
G01*
X3714038Y2667226D01*
X3790492Y2638016D02*
G01*
X3714038Y2609060D01*
X3739692Y2656304D02*
G01*
X3739692Y2619982D01*
X3466358Y2612964D02*
G01*
X3473724Y2616774D01*
X3480836Y2623886D01*
X3484646Y2631252D01*
X3484646Y2645730D01*
X3480833Y2653096D01*
X3473724Y2660208D01*
X3466358Y2664018D01*
X3455436Y2667574D01*
X3437145Y2667574D01*
X3426480Y2664015D01*
X3419116Y2660208D01*
X3411748Y2653096D01*
X3408192Y2645730D01*
X3408192Y2631252D01*
X3411750Y2623886D01*
X3419114Y2616771D01*
X3426480Y2612966D01*
X2884035Y2629171D02*
G01*
X2936862Y2724475D01*
X2884035Y2629171D02*
G01*
X2843161Y2651831D01*
X2832072Y2663786D01*
X2829994Y2671036D01*
X2830598Y2682608D01*
X2838112Y2696159D01*
X2847604Y2702806D01*
X2854731Y2704660D01*
X2870865Y2701813D01*
X2911744Y2679156D01*
X2790510Y2681015D02*
G01*
X2806905Y2796514D01*
X2717866Y2721284D02*
G01*
X2806905Y2796514D01*
X2624117Y2773245D02*
G01*
X2722486Y2843306D01*
X2687873Y2737906D02*
G01*
X2624117Y2773245D01*
X3015650Y2755907D02*
G01*
X2962943Y2818521D01*
X3015650Y2755907D02*
G01*
X2934746Y2767647D01*
X2980085Y2796529D02*
G01*
X2962475Y2764764D01*
X2720009Y2891137D02*
G01*
X2728297Y2890903D01*
X2737967Y2893672D01*
X2744871Y2898269D01*
X2751889Y2910931D01*
X2752128Y2919219D01*
X2749359Y2928889D01*
X2744762Y2935792D01*
X2736933Y2944197D01*
X2720936Y2953067D01*
X2709882Y2955127D01*
X2701594Y2955366D01*
X2691704Y2952714D01*
X2685021Y2947995D01*
X2678003Y2935333D01*
X2677540Y2927164D01*
X2680538Y2917375D01*
X2685135Y2910474D01*
X2239009Y3184093D02*
G01*
X2334534Y3237044D01*
X2239009Y3184093D02*
G01*
X2216348Y3224969D01*
X2213503Y3241111D01*
X2215362Y3248235D01*
X2222007Y3257727D01*
X2235781Y3265363D01*
X2247130Y3265845D01*
X2254382Y3263765D01*
X2266335Y3252675D01*
X2288994Y3211804D01*
X2187163Y3277621D02*
G01*
X2262494Y3367006D01*
X2146899Y3350265D02*
G01*
X2262494Y3367006D01*
X2117590Y3403137D02*
G01*
X2129889Y3391949D01*
X2141463Y3392558D01*
X2150572Y3397605D01*
X2157216Y3407097D01*
X2156609Y3418667D01*
X2150955Y3439347D01*
X2148108Y3455484D01*
X2152169Y3469645D01*
X2158690Y3479360D01*
X2172243Y3486866D01*
X2183937Y3487249D01*
X2190843Y3485268D01*
X2203142Y3474082D01*
X2213117Y3456089D01*
X2216086Y3439728D01*
X2214105Y3432822D01*
X2207585Y3423109D01*
X2194031Y3415593D01*
X2182337Y3415212D01*
X2168182Y3419274D01*
X2156002Y3430239D01*
X2141463Y3445992D01*
X2131971Y3452637D01*
X2120402Y3452030D01*
X2111293Y3446983D01*
X2104643Y3437491D01*
X2107615Y3421131D01*
X2117590Y3403137D01*
X2400617Y3222419D02*
G01*
X2389103Y3303447D01*
X2400617Y3222419D02*
G01*
X2338230Y3275248D01*
X2391989Y3275716D02*
G01*
X2360218Y3258103D01*
X2221562Y3493767D02*
G01*
X2228468Y3489172D01*
X2238138Y3486398D01*
X2246426Y3486640D01*
X2259091Y3493658D01*
X2263686Y3500564D01*
X2266454Y3510229D01*
X2266221Y3518522D01*
X2264034Y3529794D01*
X2255169Y3545791D01*
X2246886Y3553396D01*
X2239982Y3557993D01*
X2230191Y3560986D01*
X2222025Y3560526D01*
X2209363Y3553508D01*
X2204646Y3546825D01*
X2201994Y3536937D01*
X2202233Y3528646D01*
D12*
X3053941Y5267180D02*
G01*
X3180295Y5344264D01*
X3163293Y5112387D02*
G01*
X3278151Y5181404D01*
X3180295Y5344264D02*
G01*
X3278154Y5181401D01*
X2958934Y4988430D02*
G01*
X2958932Y4988435D01*
X2910913Y5000406D01*
X2861076Y5151295D02*
G01*
X2861078Y5151290D01*
X2849107Y5103271D01*
X2968226Y5215676D02*
G01*
X2861076Y5151295D01*
X3066084Y5052811D02*
G01*
X2958934Y4988430D01*
X2849107Y5103271D02*
G01*
X2910913Y5000406D01*
X3059981Y5218308D02*
G01*
X3111487Y5132593D01*
X3085993Y5175018D02*
G01*
X3043135Y5149265D01*
X3289940Y4349915D02*
G01*
X3909933Y4349915D01*
X3909933Y3989910D02*
G01*
X3289940Y3989910D01*
X3295136Y4042912D02*
G01*
X3345936Y3992112D01*
X3295136Y4296912D02*
G01*
X3345936Y4347712D01*
X3853936Y4347712D02*
G01*
X3904736Y4296912D01*
X3853936Y3992112D02*
G01*
X3904736Y4042912D01*
X3909933Y4349915D02*
G01*
X3909933Y4268028D01*
X3909933Y4071800D02*
G01*
X3909933Y3989910D01*
X3289940Y4349915D02*
G01*
X3289940Y4268028D01*
X3289940Y4071800D02*
G01*
X3289940Y3989910D01*
D11*
X3382352Y4943861D02*
G01*
X3817632Y4943861D01*
X3817632Y4416120D01*
X3382352Y4416120D01*
X3382352Y4943861D01*
D12*
X4259780Y5188882D02*
G01*
X4389716Y5117998D01*
X4180403Y5016784D02*
G01*
X4297601Y4951821D01*
X4389716Y5117998D02*
G01*
X4297601Y4951818D01*
X3970873Y5131785D02*
G01*
X3970875Y5131790D01*
X3957236Y5179359D01*
X4062989Y5297965D02*
G01*
X4062986Y5297959D01*
X4015414Y5284320D01*
X4172318Y5237360D02*
G01*
X4062989Y5297965D01*
X4080205Y5071181D02*
G01*
X3970873Y5131785D01*
X4015414Y5284320D02*
G01*
X3957236Y5179359D01*
X4220479Y5159214D02*
G01*
X4171998Y5071752D01*
X4195993Y5115041D02*
G01*
X4152262Y5139281D01*
X4667069Y4745962D02*
G01*
X4744153Y4619607D01*
X4512276Y4636609D02*
G01*
X4581293Y4521751D01*
X4744153Y4619607D02*
G01*
X4581291Y4521748D01*
X4388319Y4840968D02*
G01*
X4388324Y4840970D01*
X4400295Y4888989D01*
X4551184Y4938826D02*
G01*
X4551179Y4938824D01*
X4503160Y4950795D01*
X4615566Y4831676D02*
G01*
X4551184Y4938826D01*
X4452701Y4733818D02*
G01*
X4388319Y4840968D01*
X4503160Y4950795D02*
G01*
X4400295Y4888989D01*
X4618197Y4739921D02*
G01*
X4532482Y4688415D01*
X4574908Y4713909D02*
G01*
X4549155Y4756767D01*
X4834976Y4119915D02*
G01*
X4835974Y3971907D01*
X4645974Y4105907D02*
G01*
X4645974Y3971907D01*
X4835974Y3971907D02*
G01*
X4645972Y3971907D01*
X4644974Y4344918D02*
G01*
X4644979Y4344918D01*
X4679972Y4379912D01*
X4834976Y4344918D02*
G01*
X4834971Y4344918D01*
X4799977Y4379912D01*
X4834976Y4219915D02*
G01*
X4834976Y4344918D01*
X4644974Y4219915D02*
G01*
X4644974Y4344918D01*
X4799977Y4379912D02*
G01*
X4679972Y4379912D01*
X4789975Y4139907D02*
G01*
X4689975Y4139907D01*
X4739469Y4139907D02*
G01*
X4739469Y4189907D01*
X4648969Y3510150D02*
G01*
X4578085Y3380214D01*
X4476871Y3589528D02*
G01*
X4411908Y3472329D01*
X4578085Y3380214D02*
G01*
X4411906Y3472329D01*
X4591872Y3799057D02*
G01*
X4591878Y3799055D01*
X4639447Y3812694D01*
X4758052Y3706942D02*
G01*
X4758047Y3706944D01*
X4744407Y3754516D01*
X4697448Y3597612D02*
G01*
X4758052Y3706942D01*
X4531268Y3689725D02*
G01*
X4591872Y3799057D01*
X4744407Y3754516D02*
G01*
X4639447Y3812694D01*
X4619302Y3549451D02*
G01*
X4531840Y3597932D01*
X4575129Y3573937D02*
G01*
X4599368Y3617668D01*
X4202305Y3072742D02*
G01*
X4073337Y3000113D01*
X4098422Y3231255D02*
G01*
X3981223Y3166292D01*
X4073337Y3000113D02*
G01*
X3981221Y3166292D01*
X4306981Y3348007D02*
G01*
X4306984Y3348001D01*
X4354555Y3334362D01*
X4399097Y3181827D02*
G01*
X4399094Y3181832D01*
X4412734Y3229401D01*
X4289765Y3121223D02*
G01*
X4399097Y3181827D01*
X4197652Y3287402D02*
G01*
X4306981Y3348007D01*
X4412734Y3229401D02*
G01*
X4354555Y3334362D01*
X4197972Y3121794D02*
G01*
X4149491Y3209256D01*
X4173486Y3165967D02*
G01*
X4217217Y3190206D01*
X3550031Y2904982D02*
G01*
X3402022Y2903984D01*
X3536022Y3093984D02*
G01*
X3402022Y3093984D01*
X3402022Y2903984D02*
G01*
X3402022Y3093986D01*
X3775034Y3094984D02*
G01*
X3775034Y3094979D01*
X3810027Y3059986D01*
X3775034Y2904982D02*
G01*
X3775034Y2904987D01*
X3810027Y2939981D01*
X3650030Y2904982D02*
G01*
X3775034Y2904982D01*
X3650030Y3094984D02*
G01*
X3775034Y3094984D01*
X3810027Y2939981D02*
G01*
X3810027Y3059986D01*
X3570023Y2949983D02*
G01*
X3570023Y3049983D01*
X3570023Y3000489D02*
G01*
X3620023Y3000489D01*
X2940265Y3121215D02*
G01*
X2810329Y3192099D01*
X3019643Y3293313D02*
G01*
X2902445Y3358276D01*
X2810329Y3192099D02*
G01*
X2902445Y3358278D01*
X3229173Y3178312D02*
G01*
X3229170Y3178307D01*
X3242810Y3130737D01*
X3137057Y3012132D02*
G01*
X3137060Y3012137D01*
X3184631Y3025777D01*
X3027728Y3072737D02*
G01*
X3137057Y3012132D01*
X3119841Y3238916D02*
G01*
X3229173Y3178312D01*
X3184631Y3025777D02*
G01*
X3242810Y3130737D01*
X2979567Y3150882D02*
G01*
X3028048Y3238345D01*
X3004052Y3195055D02*
G01*
X3047784Y3170816D01*
X2532575Y3567625D02*
G01*
X2459946Y3696594D01*
X2691089Y3671509D02*
G01*
X2626126Y3788707D01*
X2459946Y3696594D02*
G01*
X2626126Y3788709D01*
X2807840Y3462949D02*
G01*
X2807835Y3462947D01*
X2794195Y3415375D01*
X2641660Y3370834D02*
G01*
X2641666Y3370836D01*
X2689235Y3357196D01*
X2581056Y3480165D02*
G01*
X2641660Y3370834D01*
X2747236Y3572278D02*
G01*
X2807840Y3462949D01*
X2689235Y3357196D02*
G01*
X2794195Y3415375D01*
X2581628Y3571958D02*
G01*
X2669090Y3620439D01*
X2625801Y3596444D02*
G01*
X2650040Y3552713D01*
X2395042Y4219900D02*
G01*
X2394043Y4367908D01*
X2584043Y4233908D02*
G01*
X2584043Y4367908D01*
X2394043Y4367908D02*
G01*
X2584046Y4367908D01*
X2585044Y3994896D02*
G01*
X2585039Y3994896D01*
X2550045Y3959903D01*
X2395042Y3994896D02*
G01*
X2395047Y3994896D01*
X2430040Y3959903D01*
X2395042Y4119900D02*
G01*
X2395042Y3994896D01*
X2585044Y4119900D02*
G01*
X2585044Y3994896D01*
X2430040Y3959903D02*
G01*
X2550045Y3959903D01*
X2440043Y4199907D02*
G01*
X2540043Y4199907D01*
X2490548Y4199907D02*
G01*
X2490548Y4149907D01*
X2581140Y4829771D02*
G01*
X2652024Y4959708D01*
X2753238Y4750394D02*
G01*
X2818201Y4867592D01*
X2652024Y4959708D02*
G01*
X2818203Y4867592D01*
X2638237Y4540864D02*
G01*
X2638231Y4540867D01*
X2590662Y4527227D01*
X2472057Y4632980D02*
G01*
X2472062Y4632977D01*
X2485702Y4585406D01*
X2532661Y4742309D02*
G01*
X2472057Y4632980D01*
X2698841Y4650196D02*
G01*
X2638237Y4540864D01*
X2485702Y4585406D02*
G01*
X2590662Y4527227D01*
X2610807Y4790470D02*
G01*
X2698269Y4741989D01*
X2654980Y4765984D02*
G01*
X2630741Y4722253D01*
X3650015Y5374888D02*
G01*
X3798023Y5375887D01*
X3664023Y5185887D02*
G01*
X3798023Y5185887D01*
X3798023Y5375887D02*
G01*
X3798023Y5185884D01*
X3425012Y5184886D02*
G01*
X3425012Y5184891D01*
X3390018Y5219885D01*
X3425012Y5374888D02*
G01*
X3425012Y5374883D01*
X3390018Y5339890D01*
X3550015Y5374888D02*
G01*
X3425012Y5374888D01*
X3550015Y5184886D02*
G01*
X3425012Y5184886D01*
X3390018Y5339890D02*
G01*
X3390018Y5219885D01*
X3630023Y5329887D02*
G01*
X3630023Y5229887D01*
X3630023Y5279382D02*
G01*
X3580023Y5279382D01*
D13*
X4635489Y5521258D02*
G01*
X4635733Y5521695D01*
X4449079Y5184965D01*
X4064248Y5398282D01*
X4250903Y5735012D01*
X4634420Y5522422D01*
X5167873Y4830300D02*
G01*
X5168303Y4830559D01*
X4838293Y4632269D01*
X4611677Y5009421D01*
X4941686Y5207711D01*
X5167528Y4831844D01*
X5291988Y3949992D02*
G01*
X5292488Y3949992D01*
X4907490Y3949992D01*
X4907490Y4389991D01*
X5292488Y4389991D01*
X5292488Y3951493D01*
X4981257Y3134494D02*
G01*
X4981696Y3134250D01*
X4644969Y3320902D01*
X4858283Y3705735D01*
X5195011Y3519083D01*
X4982423Y3135563D01*
X1907997Y4389991D02*
G01*
X1907496Y4389991D01*
X2292494Y4389991D01*
X2292494Y3949992D01*
X1907496Y3949992D01*
X1907496Y4388490D01*
X2248728Y5205488D02*
G01*
X2248288Y5205729D01*
X2585016Y5019080D01*
X2371702Y4634250D01*
X2034974Y4820899D01*
X2247562Y5204419D01*
X2939684Y5737872D02*
G01*
X2939425Y5738301D01*
X3137715Y5408292D01*
X2760563Y5181676D01*
X2562273Y5511685D01*
X2938139Y5737527D01*
X3819992Y5831987D02*
G01*
X3819992Y5832487D01*
X3819992Y5447489D01*
X3379993Y5447489D01*
X3379993Y5832487D01*
X3818491Y5832487D01*
X4280656Y2575410D02*
G01*
X4280903Y2574975D01*
X4094251Y2911698D01*
X4479079Y3125012D01*
X4665731Y2788290D01*
X4282213Y2575699D01*
X3379993Y2447996D02*
G01*
X3379993Y2447493D01*
X3379993Y2832493D01*
X3819992Y2832496D01*
X3819992Y2447495D01*
X3381494Y2447495D01*
X2564493Y2788726D02*
G01*
X2564251Y2788287D01*
X2750901Y3125015D01*
X3135736Y2911701D01*
X2949087Y2574973D01*
X2565565Y2787561D01*
X2035408Y3489330D02*
G01*
X2034974Y3489083D01*
X2371702Y3675735D01*
X2585016Y3290902D01*
X2248288Y3104250D01*
X2035700Y3487770D01*
D12*
G75*
G01
X3656736Y4169918D02*
G03X3656736Y4169918I-56794J0D01*
G75*
G01
X3701542Y4169918D02*
G03X3701542Y4169918I-101600J0D01*
G75*
G01
X3859936Y4169918D02*
G03X3859936Y4169918I-56794J0D01*
G75*
G01
X3453536Y4169918D02*
G03X3453536Y4169918I-56794J0D01*
D10*
G75*
G01
X3472612Y4870501D02*
G03X3472612Y4870501I-15011J0D01*
G75*
G01
X3261995Y4947234D02*
G03X3261995Y4947234I-15011J0D01*
M02*
